<svg width="781" height="473" xmlns="http://www.w3.org/2000/svg"><defs><linearGradient x1="0%" y1="2.053%" y2="97.947%" id="a"><stop stop-color="#92FFC0" offset="0%"/><stop stop-color="#002661" offset="100%"/></linearGradient><linearGradient x1="0%" y1="0%" y2="100%" id="b"><stop stop-color="#90F7EC" offset="0%"/><stop stop-color="#32CCBC" offset="100%"/></linearGradient><linearGradient x1="0%" y1="17.482%" y2="82.518%" id="c"><stop stop-color="#90F7EC" offset="0%"/><stop stop-color="#32CCBC" offset="100%"/></linearGradient><linearGradient x1="0%" y1="15.278%" y2="84.722%" id="d"><stop stop-color="#70F570" offset="0%"/><stop stop-color="#49C628" offset="100%"/></linearGradient><linearGradient x1="0%" y1="37.302%" y2="62.698%" id="e"><stop stop-color="#81FBB8" offset="0%"/><stop stop-color="#28C76F" offset="100%"/></linearGradient><linearGradient x1="0%" y1="32.061%" y2="67.939%" id="f"><stop stop-color="#79F1A4" offset="0%"/><stop stop-color="#0E5CAD" offset="100%"/></linearGradient></defs><g fill="none" fill-rule="evenodd"><g fill-rule="nonzero"><path d="M275.308 453.62C474.472 531.298 501 352.186 501 227.06S399.955.5 275.308.5c-124.646 0-77.463 171.855-205.976 236-128.513 64.146 6.812 139.442 205.976 217.12z" fill="url(#a)"/><path fill="url(#b)" d="M3.686 216.500341L0.787 217.834341 0 220.657341 0.926 223.345341 3.686 224.500341 6.286 223.190341 8 220.656341 6.705 217.716341z"/><path d="M60.304 250l-1.812.833-.492 1.765.579 1.68 1.725.722 1.624-.82L63 252.599l-.81-1.837-1.886-.762zm-26-20l-1.812.833-.492 1.765.579 1.68 1.725.722 1.624-.82L37 232.599l-.81-1.837-1.886-.762z" fill="url(#c)"/><path fill="url(#b)" d="M22.304 179.500341L20.492 180.333341 20 182.098341 20.579 183.778341 22.304 184.500341 23.928 183.680341 25 182.099341 24.19 180.262341z"/><path fill="url(#b)" d="M74.304 218.500341L72.492 219.333341 72 221.098341 72.579 222.778341 74.304 223.500341 75.928 222.680341 77 221.099341 76.19 219.262341z"/><path fill="url(#d)" d="M65.7648 181.500341L63.5904 182.333341 63 184.098341 63.6948 185.778341 65.7648 186.500341 67.7136 185.680341 69 184.099341 68.028 182.262341z"/><path d="M427.99 436.314a24.293 24.293 0 0 1-3.358 1.147c-1.279.322-2.57.586-3.872.793-2.676.458-5.507.62-8.06.722-2.6.058-4.91.01-6.631-.122-.315-1.39.517-1.327 1.223-1.425.696-.104 1.262-.367.448-2.375 1.366.874 1.524 4.632 3.97 3.014-.034-2.55-1.316-2.089-2.424-2.041 1.078-2.273 2.533-1.388 4.02-.564 1.366.765 2.796 1.495 3.923-.223.076-.155.167-.324.296-.519a4.664 4.664 0 0 1-.297.52c-.75 1.54.987 1.298 3.767.498 3.069-.85 7.345-2.384 11.005-2.739-.539 1.353-2.004 2.45-4.01 3.314m-83.132-34.607c-.497.552-2.292.507-3.722-1.768-.828.773-1.88.836-3.08.402.374-.917.995-.975 1.284-2.16-.534-.382-.765.273-.988.984-1.729-3.775 3.513-2.024 2.784.774 3.493.093 4.222 1.212 3.722 1.768M334 403.873c1.313-2.165 5.499.214 6 1.566-2.185 1.58-2.96-.578-6-1.566m446.448-139.197a86.883 86.883 0 0 0-2.408-12.814 93.26 93.26 0 0 0-.702-2.464c-.493-1.626-1.036-3.325-1.624-4.884a94.632 94.632 0 0 0-1.915-4.762c-.687-1.605-1.422-3.09-2.209-4.638-1.57-3.102-3.348-6.034-5.333-8.987a88.333 88.333 0 0 0-14.742-16.576c-1.793-1.568-3.69-3.03-5.619-4.412l-.726-.514-.666-.449-1.318-.858a75.73 75.73 0 0 0-2.683-1.626 65.32 65.32 0 0 0-10.87-4.964c-7.26-2.538-14.364-3.59-20.932-3.715-6.582-.125-12.648.663-18.162 1.795-5.52 1.136-10.5 2.615-15.025 3.941-1.153.351-2.29.749-3.41 1.193a49.774 49.774 0 0 0-3.195 1.476 67.458 67.458 0 0 0-5.985 3.633c-3.883 2.596-7.586 5.716-11.04 8.809-6.928 6.233-12.89 12.712-18.173 16.66-.595.443-1.259-1.787-2.434-1.174-2.987 1.624-6.16 5.403-9.065 9.297-2.921 3.96-5.572 7.932-7.845 9.929-2.668-.45-4 2.519-5.236 4.808-1.25 2.274-2.396 3.944-4.991.884a54.354 54.354 0 0 1-3.242 5.575c-1.131 1.713-2.305 3.334-3.517 4.795-1.213 1.473-2.464 2.79-3.733 4.045a52.74 52.74 0 0 1-3.857 3.524 54.843 54.843 0 0 1-1.96 1.55c-.655.5-1.304 1.018-1.957 1.497-1.27.94-2.569 1.841-3.894 2.703-1.293.823-2.54 1.713-3.776 2.5l-3.584 2.321c.206 2.926 2.662 5.048 1.659 5.536-1.468 1.129-2.35-3.548-3.854-2.408.154 2.713 2.518 3.759 1.401 4.408-.641-1.233-1.294-2.336-1.999-3.005.432 1.956 1.605 2.602 1.07 3.303-.468.143-.262 1.069-.566 1.393-.866-.468-1.465-4.199-2.397-4.09.77 2.4.176 2.187-.464 2.012-.638-.173-1.335-.334-.728 2.083.766-.344 1.463.41 2.118 1.681-3.023.921-6.053 3.676-8.758 6.413a72.418 72.418 0 0 1-2.03 1.923c-.66.617-1.298 1.218-1.941 1.719-1.285 1.008-2.558 1.686-3.87 1.784.225 2.656-.54 3.487-1.507 4.148-.483.33-1.013.618-1.481 1.066-.467.455-.867 1.1-1.087 2.088-1.837-4.277-2.721-2.373-2.736-1.148.564-.156 1.138-.223 1.925 1.591-.239 2.327-1.577 2.597-3.09 2.543-1.509-.075-3.188-.554-3.99.135-.889.769.286 6.146-1.263 6.162-1.82.017-2.948 1.141-3.895 2.532-.943 1.39-1.73 3.139-2.926 4.535a67.577 67.577 0 0 1-5.583 5.721c-2.054 1.892-4.215 3.696-6.526 5.527-4.587 3.623-9.6 7.172-14.626 10.663l-3.742 2.608-3.676 2.589c-2.463 1.715-4.766 3.437-7.022 5.142-1.12.854-2.162 1.724-3.21 2.58a57.846 57.846 0 0 0-2.976 2.593c-1.845 1.761-3.555 3.489-4.899 5.324-1.76-.657-3.542-.482-5.27.184-1.732.663-3.445 1.748-5.032 2.966-1.598 1.19-3.092 2.456-4.361 3.456-1.277.98-2.339 1.664-3.047 1.695-2.073.086-1.254 2.856-4.647 4.38-5.921 2.63-10.278 5.064-15.29-.646-1.108 1.846-2.659 3.002-4.397 3.72-1.735.738-3.64 1.084-5.48 1.34-.919.134-1.818.256-2.67.411-.857.142-1.668.31-2.405.558-1.475.49-2.654 1.303-3.355 2.73 1.18.392 2.527-.016 3.435 1.534-1.351.349-2.709.676-4.07.98l-1.041-4.502c-1.632.628-3.267.984-4.884 1.186-1.616.209-3.195.341-4.742.476-1.544.142-3.033.377-4.48.813a11.827 11.827 0 0 0-4.179 2.206c.673.172 1.694 1.652.932 2.187-1.829-.075-4.463 1.937-5.057-1.603 1.33-1.459 3.311 3.078 3.54-.498-1.448-.71-2.625-2.07-4.432-1.73.118 1.73.76 4.206-.013 4.664-3.87-.763-7.365-.32-10.545.456a87.805 87.805 0 0 0-4.54 1.243c-1.436.399-2.788.754-4.03.961.178-.715 1.42-4.5-.128-4.619-3.001 4.047-7.735 2.983-12.203 1.617-4.504-1.345-8.67-2.86-11.846.733-.119-3.025-1.503-3.94-3.127-3.7-1.617.25-3.496 1.754-4.467 3.717.46-2.489-.017-3.886-.997-4.676-.981-.787-2.48-.966-4.117-1.097-1.467.011.3 3.285-2.127 3.065a24.02 24.02 0 0 0-2.61-2.226 19.853 19.853 0 0 0-2.682-1.634c-1.823-.993-3.76-1.636-5.776-2.343-2.014-.713-4.171-1.355-6.387-2.337-2.243-.921-4.539-2.185-6.895-3.879-2.033 1.957-.256 4.68-2.025 4.152-2.166.355-4.242-.945-5.93-2.56-1.678-1.642-3.046-3.468-4.03-4.243.978.809-1.33 1.591-.593-.372 1.673-1.71 2.157-.616 2.858.48.685 1.105 1.56 2.284 3.704.704-.88-.576-2.417-2.445-3.997-3.945-1.579-1.514-3.306-2.552-4.837-1.43-.98 1.668.194 1.404 1.153 1.258.954-.136 1.693-.125-.07 2.185-1.01-.176-1.772-.438-2.41-.804-.635-.372-1.16-.828-1.726-1.362-.568-.535-1.177-1.148-1.98-1.84a29.297 29.297 0 0 0-3.085-2.421c1.126-1.106 2.124-1.164 3.345-3.266-1.83 1.255-3.412 1.338-5.147 1.15-1.743-.183-3.714-.523-6.452-.134.677 1.36 1.484 2.564 2.337 3.715a30.92 30.92 0 0 0 1.332 1.658c.47.517.954 1.02 1.45 1.506.995.97 2.015 1.912 3.098 2.776 1.085.86 2.195 1.695 3.319 2.536 4.561 3.302 9.316 6.478 14.112 11.679-6.584-3.385-11.5-6.275-15.833-9.37a84.05 84.05 0 0 1-3.119-2.418c-1.016-.818-1.963-1.726-2.92-2.642-1.923-1.82-3.694-3.939-5.484-6.328-.97.955-2.033 2.582-2.825 2.136 1.244-2.178.477-3.871-.924-5.21-1.396-1.338-3.385-2.423-4.67-3.174 3 3.574-.452.404-2.18 1.105.963.327 1.205 2.123 1.15 3.603-.054 1.364-.377 2.442-.727 1.764.737 1.867 2.592 3.262 4.352 4.609 1.834 1.395 3.657 2.616 4.202 4.31.267.782-2.399 2.19-1.538 3.214-.07-.093 2.183-2.7 2.762-2.232 1.525 1.232.867 4.483 2.356 6.114 1.482 1.547 4.943 1.883 6.59 3.116 8.017 6.038 17.06 12.603 27.405 18.08 10.39 5.576 21.648 9.87 32.214 12.14 7.095 1.548 14.133 2.311 20.923 2.645 6.797.334 13.35.245 19.643.087 6.294-.16 12.335-.38 18.18-.358 5.85.056 11.643.277 17.494 1.04-2.44.066-4.876.247-7.299.545-2.499.252-5.036.676-7.646 1.059-5.168.835-10.717 1.812-16.569 2.554-5.85.738-12.029 1.218-18.348 1-6.31-.216-12.765-1.134-18.95-3.114-1.548 3.81-3.27-.988-4.356 3.056 6.552.69 14.69 1.271 22.43 1.693 7.758.447 15.132.782 20.665 1.622.827 3.07-3.468-.478-2.673 2.583 1.754.688 5.43-2.642 5.338 1.792-12.129.71-26.259.314-40.9-1.488a268.986 268.986 0 0 1-22.005-3.648c-1.802-.348-3.631-.787-5.416-1.177-1.782-.38-3.57-.824-5.329-1.25l-2.62-.632-2.615-.683c-1.724-.458-3.439-.876-5.094-1.328 2.252 1.681 4.675 3.122 7.216 4.444 2.51 1.244 5.2 2.435 8.007 3.443 2.835 1.067 5.792 1.988 8.99 2.968l4.915 1.412c1.708.496 3.422.934 5.243 1.443 7.75 2.113 16.05 3.362 24.213 3.934 8.159.568 16.178.476 23.675.115l2.8-.14 2.727-.174c1.825-.108 3.583-.243 5.318-.373l9.982-.783c6.415-.474 12.312-.924 17.485-.82 1.45-1.68 6.272-3.443 11.292-4.684 2.518-.603 5.078-1.11 7.336-1.293 2.248-.213 4.18-.154 5.414.348 7.309-2.493 14.953-5.543 22.614-8.954 7.664-3.409 15.346-7.176 22.81-11.023 3.78-1.926 7.307-3.843 10.858-5.67 3.343-1.795 6.767-3.538 9.8-5.077l2.32-1.142 2.245-1.078a128.423 128.423 0 0 1 4.312-1.95l2.07-.864a80.174 80.174 0 0 1 1.996-.78 67.472 67.472 0 0 1 3.897-1.344c-.204.459-.932.664-.326 1.61a43.787 43.787 0 0 0 6.063-2.736 39.685 39.685 0 0 0 5.519-3.606c1.61-1.274 3.133-2.733 4.31-4.23 1.139-1.467 2.054-3.066 2.617-4.743-2.18-1.992-2.97 2.864-5.196.73.742-1.005 1.525-2.13 2.614-3.039a6.444 6.444 0 0 1 1.822-1.099 7.224 7.224 0 0 1 2.426-.474c.794 1.246.41 1.647 1.54 3.131l1.307-.956 1.226-.867 2.439-1.69 2.28-1.5c.755-.492 1.525-.998 2.202-1.404l2.087-1.293c.357-.23.676-.412.993-.597l.957-.564.95-.573c.319-.198.632-.387.913-.54.578-.33 1.152-.667 1.721-1.013.59-.375 1.092-.647 1.603-.956.512-.304 1.022-.635 1.519-.957a27.406 27.406 0 0 0 2.845-1.893 27.814 27.814 0 0 0 2.926-2.158c1.025-.731 2.02-1.59 3.042-2.526 2.954-2.57 6.03-5.596 9.354-9.075.844-.846 1.707-1.709 2.569-2.632l1.31-1.404 1.357-1.393 5.68-6.026c3.965-4.146 8.247-8.756 12.949-13.51 2.336-2.46 4.792-4.83 7.328-7.426l3.89-3.822c1.322-1.304 2.667-2.64 4.041-3.931 1.017-.97 2.069-1.957 3.13-2.933l1.598-1.451 1.585-1.365a296.117 296.117 0 0 1 5.72-4.757c2.647-2.145 4.954-3.319 7.205-4.377 2.251-1.053 4.432-2.004 7.007-3.633 3.289-2.067 7.057-5.142 11.66-7.714 2.278-1.268 4.779-2.432 7.394-3.2 1.314-.4 2.655-.704 4.013-.907 1.339-.158 2.756-.267 4.119-.172 2.36.099 4.957.82 7.634 2.008 2.68 1.185 5.412 2.868 8 4.904 2.595 2.026 5.084 4.375 7.395 6.753.589.587 1.128 1.196 1.7 1.776.563.584 1.148 1.144 1.675 1.714a39.358 39.358 0 0 0 1.646 1.616c.276.256.556.503.838.744.269.243.538.48.811.705a48.606 48.606 0 0 0 3.644 2.746 30.5 30.5 0 0 0 3.557 2.191c2.395 1.246 4.838 2.03 7.332 2.28 2.493.252 5.036-.032 7.582-.854 2.546-.818 5.091-2.175 7.552-3.965 2.447-1.778 4.736-3.952 6.904-6.362a72.358 72.358 0 0 0 3.077-3.671c.978-1.242 1.916-2.5 2.819-3.736l2.581-3.545a71.563 71.563 0 0 1 2.397-3.108c1.561-1.884 3.062-3.335 4.602-3.974.99-7.423 1.03-14.847.24-21.783" fill="url(#e)"/></g><g transform="translate(191 87)"><path d="M199.126 365.857c65.36.031 125.766-34.825 158.446-91.428H40.909c32.639 56.532 92.94 91.378 158.217 91.428z" fill="#FFF" fill-rule="nonzero"/><path d="M32.589 258.474c2.468 5.486 5.348 10.789 8.32 16h316.663c3.017-5.211 5.851-10.514 8.365-16H32.59z" fill="#FFF" fill-rule="nonzero"/><path d="M381.983 183v.006C382.033 82.016 300.204.109 199.215.059 98.225.01 16.318 81.84 16.269 182.827a182.856 182.856 0 0 0 16.317 75.597H365.71A182.31 182.31 0 0 0 381.983 183z" fill="#E8F4FA" fill-rule="nonzero"/><path d="M20.84 258.474h356.572m-377.143 0h11.428m374.857 0h11.429" stroke="#191816" stroke-width="4.571" stroke-linecap="round" stroke-linejoin="round"/><path d="M20.84 258.474h356.48" stroke="#191816" stroke-width="4.571" stroke-linejoin="round"/><path d="M23.126 258.474h352" stroke="#191816" stroke-width="4.571" stroke-linecap="round" stroke-linejoin="round"/><path d="M187.697 153.331c-39.115 0-70.832 31.696-70.857 70.812v34.103a5.897 5.897 0 0 1-8.869 4.571c-9.691-5.805-11.52-7.451-16.228-7.451-7.574-.092-13.788 5.973-13.881 13.546a13.717 13.717 0 0 0 6.795 12.008c9.463 5.714 15.36 10.24 26.194 10.24 18.252-.022 33.118-14.666 33.418-32.914h114.285v-34.103.003c-.023-39.115-31.738-70.813-70.854-70.815h-.003z" fill="#E8F4FA" fill-rule="nonzero"/><path d="M258.554 240.189c0-39.134-31.723-70.857-70.857-70.857-39.133 0-70.857 31.723-70.857 70.857v-16.046c0-39.133 31.724-70.857 70.857-70.857 39.134 0 70.857 31.724 70.857 70.857v16.046z" fill="#FFF" fill-rule="nonzero"/><path d="M116.84 224.143c0-39.133 31.724-70.857 70.857-70.857 39.134 0 70.857 31.724 70.857 70.857v34.286H144.27c-.276 18.32-15.233 33.012-33.555 32.96-10.834 0-16.731-4.572-26.194-10.24-6.54-3.822-8.743-12.22-4.922-18.76a13.714 13.714 0 0 1 12.008-6.795c4.571 0 6.537 1.646 16.228 7.452a5.897 5.897 0 0 0 8.869-4.572l.137-34.331z" stroke="#191816" stroke-width="4.571" stroke-linecap="round" stroke-linejoin="round"/><path d="M85.124 269.698a6.4 6.4 0 0 1-7.465-5.118L67.36 209.396a6.4 6.4 0 0 1 5.118-7.466l36.13-6.742a6.4 6.4 0 0 1 7.466 5.118l10.297 55.184a6.4 6.4 0 0 1-5.117 7.466l-36.13 6.742z" fill="#E8F4FA" fill-rule="nonzero"/><path d="M68.109 213.263a6.4 6.4 0 0 1 3.474-1.92l42.194-7.863a6.309 6.309 0 0 1 2.926 0l-.64-3.337a6.354 6.354 0 0 0-7.452-5.12l-36.114 6.72a6.4 6.4 0 0 0-5.12 7.451l.732 4.069z" fill="#FFF" fill-rule="nonzero"/><path d="M85.124 269.698a6.4 6.4 0 0 1-7.465-5.118L67.36 209.396a6.4 6.4 0 0 1 5.118-7.466l36.13-6.742a6.4 6.4 0 0 1 7.466 5.118l10.297 55.184a6.4 6.4 0 0 1-5.117 7.466l-36.13 6.742z" stroke="#191816" stroke-linecap="round" stroke-linejoin="round" stroke-width="4.571"/><path d="M100.063 222.086a5.486 5.486 0 1 1-6.4-4.572 5.486 5.486 0 0 1 6.4 4.572z" stroke="#191816" stroke-width="4.571" fill="#FFF" fill-rule="nonzero" stroke-linecap="round" stroke-linejoin="round"/><path d="M78.349 286.04a5.577 5.577 0 0 0 6.171 2.377l12.206-3.474c7.025-1.971 11.122-9.264 9.151-16.289l-.008-.031-1.783-6.354c-1.996-7.02-9.29-11.108-16.32-9.143L75.514 256.6a5.486 5.486 0 0 0-3.977 5.257 44.206 44.206 0 0 0 6.812 24.183z" stroke="#191816" stroke-width="4.571" fill="#FFCEBF" fill-rule="nonzero" stroke-linecap="round" stroke-linejoin="round"/><path d="M103.263 280.692a14.034 14.034 0 0 0-.457-2.652l-1.829-6.308c-1.915-6.989-9.133-11.101-16.12-9.186l-.154.043-13.029 3.703v-4.572a5.486 5.486 0 0 1 3.977-5.257l12.206-3.291c7.03-1.965 14.324 2.122 16.32 9.142l1.783 6.355c1.14 4.207.13 8.705-2.697 12.023z" fill="#FFDCD1" fill-rule="nonzero"/><path d="M78.349 286.04a5.577 5.577 0 0 0 6.171 2.377l12.206-3.474c7.025-1.971 11.122-9.264 9.151-16.289l-.008-.031-1.783-6.354c-1.996-7.02-9.29-11.108-16.32-9.143L75.514 256.6a5.486 5.486 0 0 0-3.977 5.257 44.846 44.846 0 0 0 1.555 12.069 43.749 43.749 0 0 0 5.257 12.114zm-2.195-75.84l6.995-1.463m88.502 88.549h-11.245a6.811 6.811 0 0 0-6.995 6.72 7.04 7.04 0 0 0 6.995 6.994h12.434a8 8 0 0 1 0 16h-65.143c-6.312 0-11.428-5.117-11.428-11.428 0-6.312 5.116-11.429 11.428-11.429 21.806 0 16.457-16.594 7.086-40.046" stroke="#191816" stroke-width="4.571" stroke-linecap="round" stroke-linejoin="round"/><path d="M187.697 153.331a70.585 70.585 0 0 0-43.246 14.72 89.782 89.782 0 0 1 6.675 28.663c0 20.572-6.857 27.429-6.857 27.429v34.286h86.857v-33.966s-6.812-7.131-6.812-27.749a89.645 89.645 0 0 1 6.629-28.708 70.494 70.494 0 0 0-43.246-14.675z" fill="#FF8A14" fill-rule="nonzero"/><path d="M187.697 169.286a70.491 70.491 0 0 1 39.04 11.703 116.939 116.939 0 0 1 4.206-12.983c-25.492-19.62-61-19.62-86.492 0a108.114 108.114 0 0 1 4.206 12.983 70.583 70.583 0 0 1 39.04-11.703z" fill="#FFAA54" fill-rule="nonzero"/><path d="M187.697 153.331a70.585 70.585 0 0 0-43.246 14.72 89.782 89.782 0 0 1 6.675 28.663c0 20.572-6.857 27.429-6.857 27.429v34.286h86.857v-33.966s-6.812-7.131-6.812-27.749a89.645 89.645 0 0 1 6.629-28.708 70.494 70.494 0 0 0-43.246-14.675z" stroke-linecap="round" stroke-linejoin="round" stroke="#191816" stroke-width="4.571"/><path d="M231.126 226.474v-9.142" stroke="#191816" stroke-width="4.571" stroke-linecap="round" stroke-linejoin="round"/><path stroke="#191816" stroke-width="4.571" fill="#FFF" fill-rule="nonzero" stroke-linecap="round" stroke-linejoin="round" d="M208.268646 164.760074L167.125776 164.760074 165.068633 175.045792 187.697211 258.382961 210.371504 175.045792 208.268646 164.760074z"/><path d="M144.269 224.189v-6.857" stroke="#191816" stroke-width="4.571" stroke-linecap="round" stroke-linejoin="round"/><path d="M171.697 139.617v19.52a9.143 9.143 0 0 0 4.069 7.635l11.931 9.417 11.932-9.417a9.143 9.143 0 0 0 4.068-7.635v-19.52h-32z" fill="#FFCEBF" fill-rule="nonzero"/><path d="M171.697 139.617v19.52a9.143 9.143 0 0 0 4.069 7.635l11.931 9.417 11.932-9.417a9.143 9.143 0 0 0 4.068-7.635v-19.52h-32z" fill="#FFCEBF" fill-rule="nonzero"/><path d="M171.697 139.617v13.257a43.931 43.931 0 0 0 32 0v-13.257h-32z" fill="#FFB59E" fill-rule="nonzero"/><path d="M171.697 139.617v19.52a9.143 9.143 0 0 0 4.069 7.635l11.931 9.417 11.932-9.417a9.143 9.143 0 0 0 4.068-7.635v-19.52h-32z" stroke-linecap="round" stroke-linejoin="round" stroke="#191816" stroke-width="4.571"/><path d="M171.697 159.137V151s-14.537 4.571-12.068 16.046a61.12 61.12 0 0 0 9.142 20.571l18.926-11.428-11.931-9.418a9.143 9.143 0 0 1-4.069-7.634zm32 0V151s14.583 4.571 12.115 16.046a62.126 62.126 0 0 1-9.098 20.526l-18.971-11.43 11.931-9.416a9.143 9.143 0 0 0 4.023-7.589z" stroke="#191816" stroke-width="4.571" fill="#FFF" fill-rule="nonzero" stroke-linecap="round" stroke-linejoin="round"/><path d="M187.697 176.189v13.714" stroke="#191816" stroke-width="4.571" stroke-linecap="round" stroke-linejoin="round"/><path d="M313.412 313.332c0 3.794-33.28 6.857-80 6.857s-70.858-3.063-70.858-6.857c0-3.795 24.183-6.903 70.858-6.903 46.674 0 80 3.108 80 6.903z" fill="#191816" fill-rule="nonzero" opacity=".15"/><path d="M171.651 297.286h132.572v2.286a9.143 9.143 0 0 1-9.143 9.142H180.794a9.143 9.143 0 0 1-9.143-9.142v-2.286z" stroke="#191816" stroke-width="4.571" fill="#8CA4B8" fill-rule="nonzero" stroke-linejoin="round"/><path d="M304.269 297.286H171.697l-6.766-60.572a9.143 9.143 0 0 1 2.24-7.177 9.144 9.144 0 0 1 6.812-3.063h128a9.144 9.144 0 0 1 9.143 10.24l-6.857 60.572z" fill="#ADC4D9" fill-rule="nonzero"/><path d="M165.891 245.583a7.771 7.771 0 0 1 1.28-2.331 9.143 9.143 0 0 1 6.812-3.063h128a9.143 9.143 0 0 1 6.857 3.063c.527.71.943 1.496 1.234 2.331l1.006-8.869a9.143 9.143 0 0 0-9.143-10.24h-128a9.143 9.143 0 0 0-6.811 3.063 9.143 9.143 0 0 0-2.24 7.177l1.005 8.869z" fill="#C0DCEB" fill-rule="nonzero"/><path d="M304.269 297.286H171.697l-6.766-60.572a9.143 9.143 0 0 1 2.24-7.177 9.144 9.144 0 0 1 6.812-3.063h128a9.144 9.144 0 0 1 9.143 10.24l-6.857 60.572z" stroke-linejoin="round" stroke="#191816" stroke-width="4.571"/><path d="M245.343 262.406a7.086 7.086 0 0 1 3.337-5.943 7.314 7.314 0 0 0-5.668-3.063c-2.423-.228-4.572 1.417-5.943 1.417-1.372 0-3.155-1.371-5.12-1.371a7.589 7.589 0 0 0-6.446 3.931 16.137 16.137 0 0 0 1.966 15.68c1.28 1.875 2.88 3.977 4.891 3.932 2.012-.046 2.743-1.28 5.12-1.28 2.377 0 3.017 1.28 5.12 1.234 2.103-.046 3.474-1.92 4.572-3.84a16.64 16.64 0 0 0 2.148-4.571 6.766 6.766 0 0 1-3.977-6.126z" stroke="#191816" stroke-width="4.571" fill="#F0F0F0" fill-rule="nonzero" stroke-linejoin="round"/><path d="M239.994 245.309l2.88-2.835" stroke="#191816" stroke-width="4.571" stroke-linecap="round" stroke-linejoin="round"/><path d="M233.412 89.331V77.857c0-25.247-20.467-45.714-45.715-45.714-25.247 0-45.714 20.467-45.714 45.714v11.429a9.143 9.143 0 1 0 0 18.285h.731c3.98 24.932 27.417 41.917 52.349 37.938 19.517-3.115 34.822-18.42 37.937-37.938h.549a9.143 9.143 0 1 0 0-18.285l-.137.045z" stroke="#191816" stroke-width="4.571" fill="#FFCEBF" fill-rule="nonzero" stroke-linecap="round" stroke-linejoin="round"/><path d="M173.937 118.086c7.69 7.29 19.74 7.29 27.429 0" stroke="#191816" stroke-width="4.571" stroke-linecap="round" stroke-linejoin="round"/><path d="M139.103 90.749c-14.644-20.35-10.018-48.717 10.332-63.36a45.395 45.395 0 0 1 26.514-8.55c12.388 0 37.12-3.016 45.394 8 36.16 8.047 23.589 69.944 19.886 66.241a8.731 8.731 0 0 0-10.103-1.509c-8.229-13.485-15.314-26.285-13.714-43.885 0 12.388-22.858 18.743-45.715 18.743a123.428 123.428 0 0 1-25.143-4.572 208.32 208.32 0 0 1 0 34.286 5.257 5.257 0 0 0-7.451-5.394z" fill="#614B44" fill-rule="nonzero"/><path d="M175.949 34.84c12.388 0 37.12-3.017 45.394 8 16.869 3.749 23.131 19.246 24.64 34.331 1.691-17.965-1.463-45.165-24.64-50.285-8.274-11.017-33.006-8-45.394-8-25.017 0-45.32 20.24-45.395 45.257.013 2.683.258 5.36.732 8 3.895-21.606 22.708-37.32 44.663-37.303z" fill="#947063" fill-rule="nonzero"/><path d="M139.103 90.749c-14.644-20.35-10.018-48.717 10.332-63.36a45.395 45.395 0 0 1 26.514-8.55c12.388 0 37.12-3.016 45.394 8 36.16 8.047 23.589 69.944 19.886 66.241a8.731 8.731 0 0 0-10.103-1.509c-8.229-13.485-15.314-26.285-13.714-43.885 0 12.388-22.858 18.743-45.715 18.743a123.428 123.428 0 0 1-25.143-4.572 208.32 208.32 0 0 1 0 34.286 5.257 5.257 0 0 0-7.451-5.394z" stroke-linecap="round" stroke-linejoin="round" stroke="#191816" stroke-width="4.571"/><path d="M224.269 108.943a5.486 5.486 0 1 1-5.486-5.486 5.531 5.531 0 0 1 5.486 5.486zm-62.126 0a5.531 5.531 0 1 1-5.486-5.486 5.531 5.531 0 0 1 5.486 5.486z" fill="#FFB59E" fill-rule="nonzero"/><path d="M219.743 93.309a7.451 7.451 0 0 0-13.714 0m-36.618 0a7.451 7.451 0 0 0-13.714 0" stroke="#191816" stroke-width="4.571" stroke-linecap="round" stroke-linejoin="round"/></g><path d="M177.77 24.36c.043.47-.302.667-.216 1.166-.643-.64-.746-.467-1.422.062-.255-1.31 1.016-.35 1.638-1.227v-.001zm.397 1.009c.658.058 1.402-2.051 2.317-.53-1.05.581-1.48.785-1.512 1.857-.35-.237-.609-.701-1.263-.183.128-.482.466-.81.386-1.44.27-.038.198.251.072.296zm-7.411 3.9c1.369 1.327-1.118.671-1.752 1.334.019-.328.41-.417.07-.971.609.074 2 .765 1.682-.363zM104.55 95.896c1.169-2.764 3.996-3.013 5.872-4.806-.334 1.648-4.48 2.914-5.872 4.806zm107.825-87.99c.338-.009.656.007.647.574 1.598-.145 1.857-1.535 3.327-1.765-.203-.75-.488-1.372-1.068-1.54-.348.976-1.01 2.462-2.032 1.279.06.608-.004 1.11-.333 1.374-.057-.324-.542-.34-.541.078zm3.835-.9c1.222-.011.492-2.465-.165-1.379-.081-.419-.18-.809-.652-.618.05 1.023.773.975.817 1.997zm-13.117 3.443c-.642-.33-2.355.07-2.115 1.14.44-.582 2.25-.105 2.115-1.14zm-3.571 2.162c-.306 1.111-1.92 1.202-2.717 1.953-.821-1.025 1.562-1.665 2.717-1.953zm3.957 1.393c.314-1.669 1.914-2.212 3.373-2.709 1.466-.464 2.789-.92 2.549-2.551-1.173.808-.974.68-2.251.353.561 2.094-.94.577-1.094 1.938-.365.067-.363-.55-.677-.575-.807.69-.536 1.46-2.086 1.106.003 1.713-1.84.693-2.762 1.947l.14.68c.172-.016.336-.014.345.286.697-.45.735-1.454 1.646-1.731.138.674.836.286.817 1.256zm-11.938 4.733c.317.973.99 1.158 1.452 1.794l1.338-.196c-.264-1 .624-1.134 1.193-1.513.325.735.949 1.242.617 1.915.248-1.09.775-2.35-.115-2.991.746.583.51-.433.879-.798-.426-.242-3.258.454-1.151.837-2.057-.338-2.45 1.122-4.213.952zm-151.55 99.515c1.217-.565 1.073-.422 2.056-.726.117.488-1.717 1.91-2.055.726h-.001zM156.27 60.257c-.32.408-.811.695-1.78 1.138-.104-.909 2.738-2.02 3.097-1.749l-1.317.61v.001zM140.174 74.29c-2.536.918-3.91 2.437-6.348 3.42 1.172-1.372 4.334-4.009 6.348-3.42zm-13.18 7.694c.516-.248 2.5-.827 2.74-2.327-.886.927-5.357 3.555-2.74 2.327zM11.13 136.057c-2.447.295-7.182 3.644-10.636 3.447 3.734-1.54 5.803-2.468 9.583-4.44-.35-.665-1.069.352-1.57.377 11.511-6.164 19.076-9.752 28.56-14.932.626-.598-.1-1.221.045-1.565l4.778-2.625c.58 1.654 1.494 1.134 2.28 1.452.736-.13-.933-1.31-.196-1.438-.392-.631-.925-.323-1.466.032 5.814-4.096 14.874-9.157 23.327-14.395-.183-.672 1.428-.582.606-1.526 4.471.17 6.283-3.71 10.108-5.069-1.024-.674.903-.329 1.046-1.782.561-.34.398.065.56.462 12.477-7.788 25.683-15.74 33.76-22.168 2.092-.443 4.096-1.433 6.116-3.643 4.016-2.1 8.71-3.95 11.295-8.047.338.477.103.661-.157.832 2.04-.526 5.135-2.214 7.159-3.851.493-.286-.662-.633-.722-1.532.394-.407 1.691-.333 1.471-1.066 1.526.533-1.302.67-.348 1.663 1.862.003 3.09-1.57 4.178-3.087 7.49-2.091 14.77-8.342 20.117-10.717.097-1.018-1.285-.197-.605-.856.451-.043.356-.423.237-.82.97-.117.261.992 1.079 1.394 4.18-2.759 6.336-3.386 8.961-6.161-.15 1.391.43-.122.95.396.653-1.205.8-2.764 2.434-3.317.406 1.057-1.344 1.172-1.674 2.347 1.688-.61 3.293-1.13 4.813-2.02 1.537-.849 2.99-2.062 4.396-4.122-.656-1.302-1.383.924-1.79-.516 1.395-1.72 2.588-2.698 4.489-2.41.036.372-.443.356-.322.79-.087-.589 2.671-1.264 2.164-3.043 1.49.614 2.36-.245 2.13-2.33.804.24 1.852-.084 2.39.759.215-.372-.263-.777.52-1.194-1.376-1.225-1.993-.505-4.027.384-.317.756.31.552.433 1.637-1.18.043-.526-1.13-1.722-1.288-1.913.894-1.67 1.932-3.738 2.448-.138-2.502 2.44-2.388 3.82-3.174.241-.7 1.445-2.057 1.377-2.126.202-.795.64.195.518.913 2.327-1.09 1.99-2.637 2.031-4.055.852.168 1.124.79 1.018 1.85 1.93-1.394 5.534-1.257 5.253-5.064.321.153.444.698.946.474.096-1.76 2.225-.13 2.276-2.56 1.334 1.203 2.86-.78 3.953-1.472l.312 1.665c1.557-.656 2.675-1.71 4.07-2.472-1.144-1.408-2.437 1.312-3.984 1.42 1.81-1.77 3.67-3.056 5.626-4.238a146.837 146.837 0 0 1 6.26-3.534c-2.627 2.385-4.985 3.355-7.795 5.304.796.755 1.267-.957 1.991.027 1.354-1.781 5.048-3.918 6.35-3.344.683-1.975 3.256-2.41 5.581-4.079 1.07.556-.76.871-.715 1.452.205 1.11 1.245-1.174 1.205.54-1.316.243-1.21.6-1.776-.473.15 1.502-.756.341-.666 1.783-.586.23-.594-.417-.68-.943-.09.955-.072 2.082-1.258 1.517.313 1.944 2.718.351 2.788-.672 1.472.234 3.194-.042 4.475-1.143.63 0 .685.803.715 1.645.096-.968 2.4.767 1.856 1.897 1.894 1.111 2.226.47 3.754 1.414-.794.97.265.402-.453 1.735.289.944 1.166 1.053 1.75 1.567.282 1.474-.807 1.454-.957 2.453 1.17-.056-.295 1.566 1.412.915-.367.866-1.167 1.418.09 1.693.264 1.257-.98.816-.973 1.776.106 1.19.84 1.455.941 2.646.152.808-.436.772-.166 1.714a46.055 46.055 0 0 1-7.196 6.15c-2.569 1.913-5.287 3.52-8.06 4.92-8.643 4.406-17.431 9.548-26.24 14.22-2.672 1.363-5.533 2.934-8.441 4.319-2.89 1.517-5.82 2.906-8.579 4.295-9.476 4.708-16.602 8.833-24.115 13.26-7.508 4.44-15.39 9.155-26.173 15.75-8.657 5.289-18.61 12.741-28.053 17.524-4.324 2.181.384-.933 1.202-1.469 8.928-5.855 16.615-10.188 25.283-16.377-1.292.17-3.388 1.354-4.591 2.472 6.626-6.098 16.316-10.818 24.034-15.35.112 1.027-.692.632-1.48 1.452 3.467-.568 5.146-3.193 8.946-4.548-1.607-.944-2.327 1.261-4.58 1.742-.365.14-.779.544-1.032.109l.887-.416c6.731-5.078 14.606-8.554 20.78-12.99-4.99 2.131-10.984 4.224-15.913 8.891.015-.336.026-.673-.274-.62-4.921 2.752-9.63 5.322-13.897 8.07 5.394-4.437 11.667-7.613 17.936-11.723-3.602.757-6.569 3.633-10.87 5.308-.547.08-.223.638-.02 1.13-3.325.506-6.075 2.426-8.834 3.896-20.944 11.34-38.171 23.572-62.14 37.967-.992.6-2.029 1.017-3.353 1.935-1.03.72-2.597.697-3.697 1.346-2.794 1.66-4.98 5.026-8.279 4.336-.71.633-2.776 1.466-1.976.73 3.118-2.91 6.834-4.088 9.526-5.82 11.3-7.256 22.617-13.326 32.337-19.826-9.39 3.803-17.538 11.073-25.738 15.245-3.808 1.93-8.214 4.851-11.823 6.398-16.408 7.09-31.122 19.111-49.245 24.116.565-1.252 1.374-1.488 1.71-1.953h.001zM192.203 16.701c-.396.23-.705-1.597.033-1.31-.003.265-.185.382-.132.691 1.157.241.118-1.326 1.024-1.297-.389 1.427.606-.237 1.46-.14-.77 1.093-1.68 1.503-2.385 2.056zM176.68 27.933c-.594-.406-.965.55-2.021.552.346-1.43 1.472-1.363 1.595-2.527.9.253.486 1.59.426 1.975zm-3.943 1.635c-.19.116-.285-.057-.372-.243-.214.587.278 2.246-.756 1.594-.295-.809.936-.625.135-1.768.46-.246.805-.154.993.417zm.683-.476c.684.278-.427 2.235-1.03 1.703-.346-1.022.854-1.021 1.03-1.703zm-3.63 2.602l-.342-.996c.483-.078 1.178-.766 1.257.32-.475.11-.403.588-.914.676h-.001zm-5.955 2.317c-.297.005-.426-.563-.75-.469.024-.743 1.39-.654 1.326-1.457.949.507-.065 1.71-.837 1.305l.261.62v.001zm1.542-.212c.568.097 2.603-.736 2.316-2.053.684.637.781.455 1.467-.129.515.89-.299.89-.07 1.59-1.73-.578-2.583 2.64-3.713.592zm-15.73 8.116c-.79.676-.816-1.317-1.234-1.939.712-.303 1.366 1.395 1.234 1.939zm-8.422 5.748c.129-.651.647-1.094 1.418-1.398.186.86-.979 1.611-1.418 1.398zm17.863-7.227c.008-.303.01-.61-.221-1.058 1.159 1.292 2.538-3.003 3.325.137-1.662-1.356-1.73 1.885-3.104.92v.001zm-20.344 9.095c.152-.814 1.345-1.32 1.909-2.383-.123.537-.385.996-.103 1.752-1.048.012-.955 1.085-1.806.63v.001zm17.79-6.92c-.27-.093-.538-.182-.875-.034-.536-.815.23-.847-.026-1.498.553.128 1.098.892.9 1.532h.001zm1.273-1.625c.317.69-.822.492-1.111.812-.141-.664.207-1.03-.15-1.826.884-.092.896.9 1.26 1.014h.001zM123.8 58.561c-.278-1.25 1.813-1.314 2.29-2.18.248 1.778-1.267 1.027-2.29 2.18zm1.978 4.454c.02-.33-.15-.753-.465-1.247l1.328-.56c.648 1.492-.662.743-.863 1.807zm-99.775 61.991c1.56-2.227 5.837-3.105 9.992-6.012-1.692 1.83-6.89 4.085-9.992 6.012zM126.276 78.48c.578 1.359-1.843 1.24-2.524 1.978-1.375-.131 2.458-1.15 2.524-1.978zm-11.672 9.976c-.059-1.109 2.583-.943 2.528-2.053 1.097.667-2.211 2.036-2.528 2.053zm-.63 1.341c-1.333-1.817-3.368 2.288-.393-.18.113.178.232.343.393.18zM97.826 99.71c1.512-1.15 4.097-4.16 6.348-3.42-2.171 1.03-4.856 2.794-6.348 3.42zm-31.673 18.403c1.681-1.28 4.42-2.905 6.201-3.794-.098.955-2.101 1.98-3.795 2.91-1.27.704-4.163 2.275-2.406.884z" transform="translate(381 330)" fill="url(#f)"/></g></svg>