<svg width="781" height="473" xmlns="http://www.w3.org/2000/svg"><defs><linearGradient x1="0%" y1="2.053%" y2="97.947%" id="a"><stop stop-color="#92FFC0" offset="0%"/><stop stop-color="#002661" offset="100%"/></linearGradient><linearGradient x1="0%" y1="0%" y2="100%" id="b"><stop stop-color="#90F7EC" offset="0%"/><stop stop-color="#32CCBC" offset="100%"/></linearGradient><linearGradient x1="0%" y1="17.482%" y2="82.518%" id="c"><stop stop-color="#90F7EC" offset="0%"/><stop stop-color="#32CCBC" offset="100%"/></linearGradient><linearGradient x1="0%" y1="15.278%" y2="84.722%" id="d"><stop stop-color="#70F570" offset="0%"/><stop stop-color="#49C628" offset="100%"/></linearGradient><linearGradient x1="0%" y1="37.302%" y2="62.698%" id="e"><stop stop-color="#81FBB8" offset="0%"/><stop stop-color="#28C76F" offset="100%"/></linearGradient><linearGradient x1="9.779%" y1="96.598%" x2="92.054%" y2="-.749%" id="f"><stop stop-color="#93F4FE" offset="0%"/><stop stop-color="#5ECCF4" offset="38.08%"/><stop stop-color="#535FD7" offset="100%"/></linearGradient><linearGradient x1="74.95%" y1="53.295%" x2="1.425%" y2="2.391%" id="g"><stop stop-color="#7C85E1" stop-opacity="0" offset="0%"/><stop stop-color="#212880" offset="100%"/></linearGradient><linearGradient x1="0%" y1="32.061%" y2="67.939%" id="h"><stop stop-color="#97ABFF" offset="0%"/><stop stop-color="#123597" offset="100%"/></linearGradient></defs><g fill="none" fill-rule="evenodd"><g fill-rule="nonzero"><path d="M275.308 453.62C474.472 531.298 501 352.186 501 227.06S399.955.5 275.308.5c-124.646 0-77.463 171.855-205.976 236-128.513 64.146 6.812 139.442 205.976 217.12z" fill="url(#a)"/><path fill="url(#b)" d="M3.686 216.500341L0.787 217.834341 0 220.657341 0.926 223.345341 3.686 224.500341 6.286 223.190341 8 220.656341 6.705 217.716341z"/><path d="M60.304 250l-1.812.833-.492 1.765.579 1.68 1.725.722 1.624-.82L63 252.599l-.81-1.837-1.886-.762zm-26-20l-1.812.833-.492 1.765.579 1.68 1.725.722 1.624-.82L37 232.599l-.81-1.837-1.886-.762z" fill="url(#c)"/><path fill="url(#b)" d="M22.304 179.500341L20.492 180.333341 20 182.098341 20.579 183.778341 22.304 184.500341 23.928 183.680341 25 182.099341 24.19 180.262341z"/><path fill="url(#b)" d="M74.304 218.500341L72.492 219.333341 72 221.098341 72.579 222.778341 74.304 223.500341 75.928 222.680341 77 221.099341 76.19 219.262341z"/><path fill="url(#d)" d="M65.7648 181.500341L63.5904 182.333341 63 184.098341 63.6948 185.778341 65.7648 186.500341 67.7136 185.680341 69 184.099341 68.028 182.262341z"/><path d="M427.99 436.314a24.293 24.293 0 0 1-3.358 1.147c-1.279.322-2.57.586-3.872.793-2.676.458-5.507.62-8.06.722-2.6.058-4.91.01-6.631-.122-.315-1.39.517-1.327 1.223-1.425.696-.104 1.262-.367.448-2.375 1.366.874 1.524 4.632 3.97 3.014-.034-2.55-1.316-2.089-2.424-2.041 1.078-2.273 2.533-1.388 4.02-.564 1.366.765 2.796 1.495 3.923-.223.076-.155.167-.324.296-.519a4.664 4.664 0 0 1-.297.52c-.75 1.54.987 1.298 3.767.498 3.069-.85 7.345-2.384 11.005-2.739-.539 1.353-2.004 2.45-4.01 3.314m-83.132-34.607c-.497.552-2.292.507-3.722-1.768-.828.773-1.88.836-3.08.402.374-.917.995-.975 1.284-2.16-.534-.382-.765.273-.988.984-1.729-3.775 3.513-2.024 2.784.774 3.493.093 4.222 1.212 3.722 1.768M334 403.873c1.313-2.165 5.499.214 6 1.566-2.185 1.58-2.96-.578-6-1.566m446.448-139.197a86.883 86.883 0 0 0-2.408-12.814 93.26 93.26 0 0 0-.702-2.464c-.493-1.626-1.036-3.325-1.624-4.884a94.632 94.632 0 0 0-1.915-4.762c-.687-1.605-1.422-3.09-2.209-4.638-1.57-3.102-3.348-6.034-5.333-8.987a88.333 88.333 0 0 0-14.742-16.576c-1.793-1.568-3.69-3.03-5.619-4.412l-.726-.514-.666-.449-1.318-.858a75.73 75.73 0 0 0-2.683-1.626 65.32 65.32 0 0 0-10.87-4.964c-7.26-2.538-14.364-3.59-20.932-3.715-6.582-.125-12.648.663-18.162 1.795-5.52 1.136-10.5 2.615-15.025 3.941-1.153.351-2.29.749-3.41 1.193a49.774 49.774 0 0 0-3.195 1.476 67.458 67.458 0 0 0-5.985 3.633c-3.883 2.596-7.586 5.716-11.04 8.809-6.928 6.233-12.89 12.712-18.173 16.66-.595.443-1.259-1.787-2.434-1.174-2.987 1.624-6.16 5.403-9.065 9.297-2.921 3.96-5.572 7.932-7.845 9.929-2.668-.45-4 2.519-5.236 4.808-1.25 2.274-2.396 3.944-4.991.884a54.354 54.354 0 0 1-3.242 5.575c-1.131 1.713-2.305 3.334-3.517 4.795-1.213 1.473-2.464 2.79-3.733 4.045a52.74 52.74 0 0 1-3.857 3.524 54.843 54.843 0 0 1-1.96 1.55c-.655.5-1.304 1.018-1.957 1.497-1.27.94-2.569 1.841-3.894 2.703-1.293.823-2.54 1.713-3.776 2.5l-3.584 2.321c.206 2.926 2.662 5.048 1.659 5.536-1.468 1.129-2.35-3.548-3.854-2.408.154 2.713 2.518 3.759 1.401 4.408-.641-1.233-1.294-2.336-1.999-3.005.432 1.956 1.605 2.602 1.07 3.303-.468.143-.262 1.069-.566 1.393-.866-.468-1.465-4.199-2.397-4.09.77 2.4.176 2.187-.464 2.012-.638-.173-1.335-.334-.728 2.083.766-.344 1.463.41 2.118 1.681-3.023.921-6.053 3.676-8.758 6.413a72.418 72.418 0 0 1-2.03 1.923c-.66.617-1.298 1.218-1.941 1.719-1.285 1.008-2.558 1.686-3.87 1.784.225 2.656-.54 3.487-1.507 4.148-.483.33-1.013.618-1.481 1.066-.467.455-.867 1.1-1.087 2.088-1.837-4.277-2.721-2.373-2.736-1.148.564-.156 1.138-.223 1.925 1.591-.239 2.327-1.577 2.597-3.09 2.543-1.509-.075-3.188-.554-3.99.135-.889.769.286 6.146-1.263 6.162-1.82.017-2.948 1.141-3.895 2.532-.943 1.39-1.73 3.139-2.926 4.535a67.577 67.577 0 0 1-5.583 5.721c-2.054 1.892-4.215 3.696-6.526 5.527-4.587 3.623-9.6 7.172-14.626 10.663l-3.742 2.608-3.676 2.589c-2.463 1.715-4.766 3.437-7.022 5.142-1.12.854-2.162 1.724-3.21 2.58a57.846 57.846 0 0 0-2.976 2.593c-1.845 1.761-3.555 3.489-4.899 5.324-1.76-.657-3.542-.482-5.27.184-1.732.663-3.445 1.748-5.032 2.966-1.598 1.19-3.092 2.456-4.361 3.456-1.277.98-2.339 1.664-3.047 1.695-2.073.086-1.254 2.856-4.647 4.38-5.921 2.63-10.278 5.064-15.29-.646-1.108 1.846-2.659 3.002-4.397 3.72-1.735.738-3.64 1.084-5.48 1.34-.919.134-1.818.256-2.67.411-.857.142-1.668.31-2.405.558-1.475.49-2.654 1.303-3.355 2.73 1.18.392 2.527-.016 3.435 1.534-1.351.349-2.709.676-4.07.98l-1.041-4.502c-1.632.628-3.267.984-4.884 1.186-1.616.209-3.195.341-4.742.476-1.544.142-3.033.377-4.48.813a11.827 11.827 0 0 0-4.179 2.206c.673.172 1.694 1.652.932 2.187-1.829-.075-4.463 1.937-5.057-1.603 1.33-1.459 3.311 3.078 3.54-.498-1.448-.71-2.625-2.07-4.432-1.73.118 1.73.76 4.206-.013 4.664-3.87-.763-7.365-.32-10.545.456a87.805 87.805 0 0 0-4.54 1.243c-1.436.399-2.788.754-4.03.961.178-.715 1.42-4.5-.128-4.619-3.001 4.047-7.735 2.983-12.203 1.617-4.504-1.345-8.67-2.86-11.846.733-.119-3.025-1.503-3.94-3.127-3.7-1.617.25-3.496 1.754-4.467 3.717.46-2.489-.017-3.886-.997-4.676-.981-.787-2.48-.966-4.117-1.097-1.467.011.3 3.285-2.127 3.065a24.02 24.02 0 0 0-2.61-2.226 19.853 19.853 0 0 0-2.682-1.634c-1.823-.993-3.76-1.636-5.776-2.343-2.014-.713-4.171-1.355-6.387-2.337-2.243-.921-4.539-2.185-6.895-3.879-2.033 1.957-.256 4.68-2.025 4.152-2.166.355-4.242-.945-5.93-2.56-1.678-1.642-3.046-3.468-4.03-4.243.978.809-1.33 1.591-.593-.372 1.673-1.71 2.157-.616 2.858.48.685 1.105 1.56 2.284 3.704.704-.88-.576-2.417-2.445-3.997-3.945-1.579-1.514-3.306-2.552-4.837-1.43-.98 1.668.194 1.404 1.153 1.258.954-.136 1.693-.125-.07 2.185-1.01-.176-1.772-.438-2.41-.804-.635-.372-1.16-.828-1.726-1.362-.568-.535-1.177-1.148-1.98-1.84a29.297 29.297 0 0 0-3.085-2.421c1.126-1.106 2.124-1.164 3.345-3.266-1.83 1.255-3.412 1.338-5.147 1.15-1.743-.183-3.714-.523-6.452-.134.677 1.36 1.484 2.564 2.337 3.715a30.92 30.92 0 0 0 1.332 1.658c.47.517.954 1.02 1.45 1.506.995.97 2.015 1.912 3.098 2.776 1.085.86 2.195 1.695 3.319 2.536 4.561 3.302 9.316 6.478 14.112 11.679-6.584-3.385-11.5-6.275-15.833-9.37a84.05 84.05 0 0 1-3.119-2.418c-1.016-.818-1.963-1.726-2.92-2.642-1.923-1.82-3.694-3.939-5.484-6.328-.97.955-2.033 2.582-2.825 2.136 1.244-2.178.477-3.871-.924-5.21-1.396-1.338-3.385-2.423-4.67-3.174 3 3.574-.452.404-2.18 1.105.963.327 1.205 2.123 1.15 3.603-.054 1.364-.377 2.442-.727 1.764.737 1.867 2.592 3.262 4.352 4.609 1.834 1.395 3.657 2.616 4.202 4.31.267.782-2.399 2.19-1.538 3.214-.07-.093 2.183-2.7 2.762-2.232 1.525 1.232.867 4.483 2.356 6.114 1.482 1.547 4.943 1.883 6.59 3.116 8.017 6.038 17.06 12.603 27.405 18.08 10.39 5.576 21.648 9.87 32.214 12.14 7.095 1.548 14.133 2.311 20.923 2.645 6.797.334 13.35.245 19.643.087 6.294-.16 12.335-.38 18.18-.358 5.85.056 11.643.277 17.494 1.04-2.44.066-4.876.247-7.299.545-2.499.252-5.036.676-7.646 1.059-5.168.835-10.717 1.812-16.569 2.554-5.85.738-12.029 1.218-18.348 1-6.31-.216-12.765-1.134-18.95-3.114-1.548 3.81-3.27-.988-4.356 3.056 6.552.69 14.69 1.271 22.43 1.693 7.758.447 15.132.782 20.665 1.622.827 3.07-3.468-.478-2.673 2.583 1.754.688 5.43-2.642 5.338 1.792-12.129.71-26.259.314-40.9-1.488a268.986 268.986 0 0 1-22.005-3.648c-1.802-.348-3.631-.787-5.416-1.177-1.782-.38-3.57-.824-5.329-1.25l-2.62-.632-2.615-.683c-1.724-.458-3.439-.876-5.094-1.328 2.252 1.681 4.675 3.122 7.216 4.444 2.51 1.244 5.2 2.435 8.007 3.443 2.835 1.067 5.792 1.988 8.99 2.968l4.915 1.412c1.708.496 3.422.934 5.243 1.443 7.75 2.113 16.05 3.362 24.213 3.934 8.159.568 16.178.476 23.675.115l2.8-.14 2.727-.174c1.825-.108 3.583-.243 5.318-.373l9.982-.783c6.415-.474 12.312-.924 17.485-.82 1.45-1.68 6.272-3.443 11.292-4.684 2.518-.603 5.078-1.11 7.336-1.293 2.248-.213 4.18-.154 5.414.348 7.309-2.493 14.953-5.543 22.614-8.954 7.664-3.409 15.346-7.176 22.81-11.023 3.78-1.926 7.307-3.843 10.858-5.67 3.343-1.795 6.767-3.538 9.8-5.077l2.32-1.142 2.245-1.078a128.423 128.423 0 0 1 4.312-1.95l2.07-.864a80.174 80.174 0 0 1 1.996-.78 67.472 67.472 0 0 1 3.897-1.344c-.204.459-.932.664-.326 1.61a43.787 43.787 0 0 0 6.063-2.736 39.685 39.685 0 0 0 5.519-3.606c1.61-1.274 3.133-2.733 4.31-4.23 1.139-1.467 2.054-3.066 2.617-4.743-2.18-1.992-2.97 2.864-5.196.73.742-1.005 1.525-2.13 2.614-3.039a6.444 6.444 0 0 1 1.822-1.099 7.224 7.224 0 0 1 2.426-.474c.794 1.246.41 1.647 1.54 3.131l1.307-.956 1.226-.867 2.439-1.69 2.28-1.5c.755-.492 1.525-.998 2.202-1.404l2.087-1.293c.357-.23.676-.412.993-.597l.957-.564.95-.573c.319-.198.632-.387.913-.54.578-.33 1.152-.667 1.721-1.013.59-.375 1.092-.647 1.603-.956.512-.304 1.022-.635 1.519-.957a27.406 27.406 0 0 0 2.845-1.893 27.814 27.814 0 0 0 2.926-2.158c1.025-.731 2.02-1.59 3.042-2.526 2.954-2.57 6.03-5.596 9.354-9.075.844-.846 1.707-1.709 2.569-2.632l1.31-1.404 1.357-1.393 5.68-6.026c3.965-4.146 8.247-8.756 12.949-13.51 2.336-2.46 4.792-4.83 7.328-7.426l3.89-3.822c1.322-1.304 2.667-2.64 4.041-3.931 1.017-.97 2.069-1.957 3.13-2.933l1.598-1.451 1.585-1.365a296.117 296.117 0 0 1 5.72-4.757c2.647-2.145 4.954-3.319 7.205-4.377 2.251-1.053 4.432-2.004 7.007-3.633 3.289-2.067 7.057-5.142 11.66-7.714 2.278-1.268 4.779-2.432 7.394-3.2 1.314-.4 2.655-.704 4.013-.907 1.339-.158 2.756-.267 4.119-.172 2.36.099 4.957.82 7.634 2.008 2.68 1.185 5.412 2.868 8 4.904 2.595 2.026 5.084 4.375 7.395 6.753.589.587 1.128 1.196 1.7 1.776.563.584 1.148 1.144 1.675 1.714a39.358 39.358 0 0 0 1.646 1.616c.276.256.556.503.838.744.269.243.538.48.811.705a48.606 48.606 0 0 0 3.644 2.746 30.5 30.5 0 0 0 3.557 2.191c2.395 1.246 4.838 2.03 7.332 2.28 2.493.252 5.036-.032 7.582-.854 2.546-.818 5.091-2.175 7.552-3.965 2.447-1.778 4.736-3.952 6.904-6.362a72.358 72.358 0 0 0 3.077-3.671c.978-1.242 1.916-2.5 2.819-3.736l2.581-3.545a71.563 71.563 0 0 1 2.397-3.108c1.561-1.884 3.062-3.335 4.602-3.974.99-7.423 1.03-14.847.24-21.783" fill="url(#e)"/><g><path d="M428.622 436.045c-.999.425-2.13.806-3.345 1.125-1.274.315-2.56.574-3.856.776-2.666.45-5.487.608-8.029.708-2.59.057-4.89.01-6.606-.12-.313-1.362.515-1.3 1.219-1.396.693-.102 1.257-.36.446-2.328 1.36.856 1.518 4.54 3.956 2.955-.035-2.5-1.312-2.048-2.416-2.001 1.073-2.228 2.523-1.361 4.004-.553 1.36.75 2.785 1.466 3.908-.219.076-.152.167-.318.295-.508a4.553 4.553 0 0 1-.296.508c-.747 1.51.983 1.274 3.753.49 3.056-.833 7.315-2.337 10.961-2.685-.536 1.326-1.995 2.401-3.993 3.248m-82.904-34.083c-.501.525-2.31.482-3.75-1.682-.834.735-1.893.795-3.103.382.377-.872 1.003-.928 1.294-2.055-.538-.363-.77.26-.995.936-1.742-3.591 3.538-1.925 2.804.737 3.52.088 4.254 1.153 3.75 1.682m-10.243 2.582c1.28-2.134 5.361.211 5.85 1.544-2.13 1.558-2.887-.57-5.85-1.544m444.973-140.587a87.685 87.685 0 0 0-2.404-12.864 94.048 94.048 0 0 0-.7-2.474c-.491-1.632-1.034-3.338-1.62-4.903a95.33 95.33 0 0 0-1.912-4.78c-.686-1.612-1.42-3.103-2.204-4.657-1.568-3.114-3.342-6.057-5.323-9.022a88.512 88.512 0 0 0-14.713-16.64c-1.789-1.576-3.683-3.042-5.608-4.43l-.724-.516-.665-.451-1.315-.861a75.493 75.493 0 0 0-2.678-1.633 65.008 65.008 0 0 0-10.848-4.983c-7.247-2.549-14.336-3.604-20.891-3.73-6.569-.125-12.623.665-18.126 1.802-5.51 1.14-10.48 2.625-14.996 3.957a43.98 43.98 0 0 0-3.403 1.197 49.538 49.538 0 0 0-3.189 1.482 67.25 67.25 0 0 0-5.972 3.647c-3.876 2.607-7.572 5.738-11.018 8.844-6.915 6.257-12.865 12.762-18.138 16.726-.594.443-1.256-1.794-2.43-1.179-2.98 1.63-6.147 5.423-9.046 9.333-2.916 3.975-5.561 7.963-7.83 9.968-2.662-.452-3.993 2.529-5.225 4.827-1.249 2.282-2.391 3.959-4.982.887a54.646 54.646 0 0 1-3.235 5.597c-1.13 1.72-2.3 3.347-3.51 4.814-1.21 1.478-2.459 2.801-3.726 4.061a52.75 52.75 0 0 1-3.849 3.537c-.65.541-1.302 1.06-1.957 1.557-.653.502-1.3 1.022-1.952 1.502a78.382 78.382 0 0 1-3.886 2.714c-1.29.826-2.536 1.72-3.769 2.51l-3.577 2.33c.206 2.938 2.657 5.068 1.655 5.558-1.464 1.133-2.344-3.562-3.845-2.418.153 2.724 2.512 3.774 1.397 4.425-.64-1.237-1.291-2.345-1.994-3.017.43 1.965 1.602 2.613 1.067 3.317-.467.144-.261 1.073-.565 1.398-.864-.47-1.462-4.215-2.392-4.106.769 2.41.176 2.196-.463 2.02-.636-.173-1.332-.335-.727 2.092.765-.346 1.46.412 2.114 1.687-3.016.925-6.04 3.69-8.74 6.438-.663.657-1.338 1.3-2.026 1.93-.66.62-1.296 1.223-1.938 1.726-1.282 1.012-2.553 1.693-3.863 1.791.226 2.666-.539 3.501-1.503 4.164-.482.332-1.011.621-1.478 1.071-.466.457-.865 1.103-1.085 2.096-1.833-4.294-2.716-2.382-2.73-1.153.563-.156 1.135-.224 1.921 1.598-.238 2.336-1.574 2.607-3.085 2.553-1.505-.076-3.18-.556-3.982.135-.886.772.286 6.17-1.26 6.187-1.817.016-2.942 1.145-3.887 2.542-.941 1.395-1.726 3.15-2.92 4.552a67.66 67.66 0 0 1-5.572 5.744c-2.05 1.899-4.206 3.71-6.514 5.548-4.578 3.637-9.58 7.2-14.597 10.705l-3.734 2.618-3.668 2.6c-2.459 1.721-4.758 3.45-7.009 5.162-1.118.856-2.158 1.73-3.204 2.59a57.834 57.834 0 0 0-2.97 2.603c-1.84 1.768-3.548 3.502-4.889 5.345-1.756-.66-3.535-.484-5.26.184-1.728.666-3.438 1.755-5.022 2.978-1.594 1.194-3.085 2.466-4.352 3.47-1.275.983-2.334 1.67-3.04 1.701-2.07.087-1.253 2.867-4.639 4.398-5.91 2.64-10.257 5.084-15.26-.649-1.105 1.853-2.653 3.013-4.388 3.735-1.731.74-3.634 1.088-5.47 1.344-.916.136-1.814.258-2.664.413-.855.143-1.664.312-2.4.56-1.472.492-2.648 1.308-3.348 2.74 1.176.394 2.522-.015 3.428 1.54-1.349.351-2.703.68-4.063.985l-1.038-4.52c-1.629.63-3.26.989-4.874 1.19-1.613.21-3.189.344-4.733.479-1.54.143-3.028.378-4.47.817a11.78 11.78 0 0 0-4.172 2.214c.672.173 1.69 1.658.93 2.195-1.825-.075-4.454 1.945-5.047-1.61 1.327-1.464 3.305 3.091 3.532-.499-1.444-.713-2.618-2.079-4.422-1.736.118 1.736.758 4.222-.013 4.681-3.862-.765-7.35-.32-10.525.458a87.226 87.226 0 0 0-4.53 1.248c-1.434.4-2.783.757-4.022.965.177-.718 1.417-4.517-.128-4.637-2.995 4.063-7.72 2.995-12.18 1.624-4.494-1.351-8.653-2.872-11.822.735-.118-3.037-1.5-3.954-3.12-3.714-1.615.25-3.49 1.76-4.459 3.731.459-2.498-.017-3.901-.995-4.694-.979-.79-2.475-.97-4.109-1.101-1.463.01.301 3.298-2.122 3.076a24.01 24.01 0 0 0-2.605-2.234 19.792 19.792 0 0 0-2.676-1.64c-1.82-.998-3.753-1.643-5.766-2.353-2.01-.716-4.162-1.36-6.374-2.346-2.238-.925-4.53-2.193-6.88-3.894-2.03 1.965-.256 4.699-2.022 4.168-2.162.357-4.234-.949-5.918-2.57-1.675-1.649-3.04-3.482-4.023-4.26.977.813-1.327 1.598-.592-.373 1.67-1.716 2.154-.618 2.853.482.684 1.11 1.557 2.293 3.696.707-.878-.579-2.41-2.455-3.988-3.961-1.576-1.52-3.3-2.561-4.828-1.435-.977 1.674.194 1.409 1.15 1.263.953-.137 1.69-.125-.069 2.194-1.008-.178-1.768-.44-2.405-.808-.633-.374-1.157-.831-1.723-1.368-.567-.536-1.175-1.152-1.977-1.847-.97-.879-1.999-1.69-3.078-2.43 1.124-1.11 2.12-1.169 3.34-3.279-1.828 1.26-3.406 1.343-5.138 1.155-1.74-.184-3.706-.525-6.44-.135.677 1.366 1.482 2.574 2.333 3.73.428.573.87 1.129 1.33 1.664.469.52.952 1.023 1.447 1.512.993.974 2.01 1.92 3.092 2.787 1.082.864 2.19 1.702 3.312 2.546 4.552 3.315 9.297 6.504 14.084 11.725-6.57-3.399-11.477-6.3-15.802-9.407a83.95 83.95 0 0 1-3.112-2.427c-1.015-.821-1.96-1.733-2.915-2.653-1.919-1.828-3.686-3.954-5.473-6.353-.968.96-2.029 2.592-2.819 2.145 1.241-2.187.476-3.887-.922-5.23-1.394-1.344-3.379-2.434-4.662-3.188 2.996 3.59-.45.406-2.175 1.11.96.328 1.202 2.131 1.148 3.617-.054 1.37-.376 2.452-.726 1.77.735 1.875 2.587 3.276 4.344 4.628 1.83 1.4 3.65 2.626 4.193 4.327.267.785-2.394 2.199-1.535 3.227-.07-.094 2.179-2.71 2.757-2.241 1.522 1.236.866 4.5 2.351 6.138 1.479 1.554 4.934 1.89 6.576 3.128 8.002 6.062 17.028 12.652 27.352 18.15 10.37 5.599 21.605 9.91 32.15 12.19 7.082 1.552 14.105 2.32 20.882 2.655 6.783.335 13.324.245 19.604.086 6.282-.161 12.31-.382 18.145-.359 5.837.056 11.62.278 17.46 1.044a76.346 76.346 0 0 0-7.286.547c-2.494.253-5.026.68-7.63 1.063-5.159.839-10.696 1.82-16.537 2.565-5.84.74-12.005 1.222-18.312 1.003-6.296-.217-12.74-1.138-18.912-3.126-1.546 3.824-3.263-.992-4.348 3.068 6.54.692 14.662 1.277 22.385 1.7 7.743.448 15.103.785 20.625 1.628.825 3.083-3.46-.48-2.667 2.593 1.75.691 5.42-2.652 5.327 1.799-12.105.714-26.207.316-40.82-1.494a267.006 267.006 0 0 1-21.961-3.662c-1.799-.35-3.624-.79-5.405-1.181-1.779-.382-3.563-.828-5.319-1.256l-2.615-.634-2.609-.686c-1.721-.46-3.432-.88-5.085-1.332 2.249 1.687 4.666 3.133 7.202 4.46 2.506 1.25 5.19 2.445 7.991 3.457 2.83 1.071 5.782 1.996 8.974 2.98l4.904 1.417c1.705.499 3.415.938 5.233 1.45 7.734 2.12 16.018 3.374 24.165 3.948 8.142.57 16.146.479 23.628.116l2.795-.14 2.722-.176c1.82-.108 3.575-.243 5.307-.374l9.962-.786c6.402-.476 12.288-.927 17.45-.822 1.447-1.688 6.26-3.457 11.27-4.703 2.513-.606 5.068-1.114 7.322-1.298 2.243-.214 4.17-.155 5.403.35 7.294-2.504 14.924-5.566 22.569-8.99 7.65-3.423 15.316-7.204 22.765-11.067 3.773-1.933 7.293-3.858 10.837-5.691 3.336-1.803 6.753-3.552 9.78-5.098l2.316-1.146 2.24-1.082c1.423-.68 2.857-1.332 4.303-1.958.697-.293 1.385-.583 2.066-.867a79.734 79.734 0 0 1 1.993-.784 67.07 67.07 0 0 1 3.89-1.35c-.204.462-.931.668-.326 1.618a43.575 43.575 0 0 0 6.051-2.747 39.584 39.584 0 0 0 5.508-3.62c1.606-1.28 3.126-2.744 4.3-4.246 1.138-1.473 2.051-3.078 2.613-4.763-2.176-2-2.963 2.875-5.186.734.741-1.01 1.523-2.14 2.61-3.052a6.424 6.424 0 0 1 1.818-1.103 7.172 7.172 0 0 1 2.421-.476c.792 1.25.41 1.654 1.537 3.144l1.304-.96 1.224-.87 2.434-1.697 2.276-1.506c.753-.494 1.521-1.002 2.198-1.41l2.082-1.298c.357-.23.675-.413.991-.599l.955-.567.949-.574c.318-.199.63-.39.91-.543.578-.33 1.15-.67 1.718-1.017.588-.376 1.09-.649 1.6-.96.51-.304 1.02-.637 1.516-.96a27.34 27.34 0 0 0 2.84-1.9 27.769 27.769 0 0 0 2.92-2.167c1.023-.734 2.015-1.596 3.036-2.536 2.948-2.58 6.018-5.618 9.335-9.11.842-.85 1.704-1.716 2.564-2.643l1.307-1.41 1.355-1.398 5.668-6.05c3.958-4.162 8.23-8.79 12.924-13.562 2.331-2.47 4.783-4.85 7.313-7.456l3.882-3.836c1.32-1.31 2.663-2.651 4.034-3.947a234.44 234.44 0 0 1 3.124-2.944l1.595-1.457 1.581-1.37a295.93 295.93 0 0 1 5.708-4.776c2.643-2.154 4.946-3.332 7.192-4.394 2.247-1.058 4.423-2.012 6.993-3.647 3.282-2.076 7.043-5.163 11.636-7.745 2.274-1.273 4.77-2.44 7.38-3.213a27.877 27.877 0 0 1 4.005-.91c1.337-.159 2.75-.268 4.11-.173 2.356.1 4.948.823 7.62 2.016 2.675 1.19 5.402 2.88 7.984 4.924 2.59 2.033 5.074 4.391 7.381 6.78.587.588 1.125 1.2 1.696 1.782.562.586 1.146 1.149 1.672 1.72a39.39 39.39 0 0 0 1.643 1.623c.276.257.555.506.836.747.268.244.537.481.81.708a48.535 48.535 0 0 0 3.636 2.756 30.41 30.41 0 0 0 3.55 2.2c2.39 1.25 4.829 2.038 7.317 2.289 2.489.253 5.027-.032 7.568-.858 2.54-.82 5.08-2.182 7.537-3.98 2.442-1.785 4.726-3.968 6.89-6.387a72.542 72.542 0 0 0 3.071-3.685 130.28 130.28 0 0 0 2.813-3.75l2.577-3.56a71.795 71.795 0 0 1 2.392-3.12c1.558-1.891 3.055-3.348 4.593-3.99.988-7.452 1.028-14.905.24-21.868" fill="url(#f)"/><path d="M274.776 454.08C473.526 531.922 500 352.43 500 227.04 500 101.649 399.164 0 274.776 0 150.39 0 197.474 172.218 69.228 236.5-59.02 300.78 76.025 376.237 274.776 454.08z" fill="url(#g)"/><path fill="#61EFFD" d="M4.14675 216L0.885375 217.334 0 220.157 1.04175 222.845 4.14675 224 7.07175 222.69 9 220.156 7.543125 217.216z"/><path d="M60.118 249.583l-1.937.903-.526 1.912.62 1.82 1.843.782 1.736-.888L63 252.399l-.866-1.99-2.016-.826zM34.463 229l-1.937.902-.526 1.913.619 1.82 1.844.782 1.736-.889 1.146-1.712-.866-1.99-2.016-.826z" fill="#2FEAFC"/><path fill="#93F4FE" d="M21.304 180L19.492 180.833 19 182.598 19.579 184.278 21.304 185 22.928 184.18 24 182.599 23.19 180.762z"/><path fill-opacity=".24" fill="#61EFFD" d="M74.304 218L72.492 218.833 72 220.598 72.579 222.278 74.304 223 75.928 222.18 77 220.599 76.19 218.762z"/><path fill-opacity=".24" fill="#535FD7" d="M65.304 182L63.492 182.833 63 184.598 63.579 186.278 65.304 187 66.928 186.18 68 184.599 67.19 182.762z"/></g></g><g transform="translate(191 87)"><path d="M382 183.369v.017C382 82.105 300.292 0 199.5 0S17 82.105 17 183.386c0 26.078 5.535 51.856 16.235 75.614h332.477A182.76 182.76 0 0 0 382 183.369z" fill="#E8F4FA" fill-rule="nonzero"/><path d="M31 259c41.787 93.324 150.43 134.702 242.661 92.42C314.18 332.847 346.643 300 365 259H31z" fill="#FFF" fill-rule="nonzero"/><g stroke-linecap="round" stroke-linejoin="round" transform="translate(0 258)" stroke="#191816"><path d="M20.716 2H376.73M.177 2h11.41M385.86 2h11.41"/></g><path d="M193.836 282.904c32.219 2.538 32.219 6.654 0 9.192-32.218 2.539-84.454 2.539-116.672 0-32.219-2.538-32.219-6.654 0-9.192 32.218-2.539 84.454-2.539 116.672 0" fill="#191816" fill-rule="nonzero" opacity=".15"/><path d="M152.822 271H163l-21.68-68.79c-.637-1.994-2.507-3.307-4.565-3.204H130L152.822 271z" stroke="#191816" fill="#E8F4FA" fill-rule="nonzero" stroke-linejoin="round"/><path d="M62.796 271h89.905l-23.076-72.005H46.043c-2.546-.127-4.712 1.847-4.839 4.41a4.674 4.674 0 0 0 .224 1.676L62.796 271z" fill="#ADC4D9" fill-rule="nonzero"/><g transform="translate(41 199)" fill="#C0DCEB" fill-rule="nonzero"><path d="M88.151.967H4.999C2.466.842.31 2.78.185 5.294A4.53 4.53 0 0 0 .407 6.94l2.755 8.48h89.58L88.152.967z"/><path d="M21.666 71.635H115.7v11.398H30.85c-5.072 0-9.183-4.083-9.183-9.119v-2.28z" stroke="#191816" stroke-linejoin="round"/></g><path d="M156 272h40.737c1.25 0 2.263 1.075 2.263 2.4 0 5.302-4.053 9.6-9.053 9.6H156v-12z" stroke="#191816" fill="#E8F4FA" fill-rule="nonzero" stroke-linejoin="round"/><g stroke-linejoin="round" transform="translate(41 198)" stroke="#191816"><path d="M60.287 34.443a5.164 5.164 0 0 1 2.446-4.367 5.206 5.206 0 0 0-4.153-2.23c-1.754 0-3.462 1.022-4.339 1.022-.876 0-2.261-1.022-3.738-.975a5.534 5.534 0 0 0-4.615 2.833 12.052 12.052 0 0 0 1.2 11.521c.969 1.394 2.123 2.927 3.6 2.88 1.477-.046 1.984-.929 3.692-.929 1.708 0 2.215.93 3.738.883 1.523-.047 2.539-1.394 3.508-2.787a15.047 15.047 0 0 0 1.569-3.252 4.926 4.926 0 0 1-2.908-4.6z" fill="#F0F0F0" fill-rule="nonzero"/><path d="M56.41 21.9l2.077-2.09" stroke-linecap="round"/><path d="M21.796 73h89.905L88.625.995H5.043C2.497.868.33 2.842.204 5.405A4.674 4.674 0 0 0 .428 7.08L21.796 73z"/></g><path d="M373.951 267.061c-.147-3.668-3.146-6.564-6.794-6.561h-34.292c-7.354 0-13.316-5.998-13.316-13.398v-21.014c0-39.277-31.645-71.117-70.68-71.117-39.037 0-70.682 31.84-70.682 71.117V260.5h116.282c4.089 11.826 13.327 21.121 25.08 25.235a39.998 39.998 0 0 0 13.316 2.294h20.748a8.253 8.253 0 0 0 3.375.505l10.214-.505h.912c3.761-.173 6.676-3.372 6.521-7.157l-.684-13.81z" fill="#656769" fill-rule="nonzero"/><path d="M248.5 173.085c38.936 0 70.5 31.75 70.5 70.915v-20.085C319 184.75 287.436 153 248.5 153S178 184.75 178 223.915V244c0-39.165 31.564-70.915 70.5-70.915z" fill="#87898C" fill-rule="nonzero"/><path d="M373.951 267.061c-.147-3.668-3.146-6.564-6.794-6.561h-34.292c-7.354 0-13.316-5.998-13.316-13.398v-21.014c0-39.277-31.645-71.117-70.68-71.117-39.037 0-70.682 31.84-70.682 71.117V260.5h116.282c4.089 11.826 13.327 21.121 25.08 25.235a39.998 39.998 0 0 0 13.316 2.294h20.748a8.253 8.253 0 0 0 3.375.505l10.214-.505h.912c3.761-.173 6.676-3.372 6.521-7.157l-.684-13.81z" stroke-linecap="round" stroke-linejoin="round" stroke="#191816"/><g stroke-linecap="round" stroke-linejoin="round" transform="translate(213 155)" stroke="#191816"><path d="M72.404 10.196a63.945 63.945 0 0 1-8.019 17.132 83.816 83.816 0 0 1-15.227 17.725C43.843 49.622 36.274 58.12 36.274 68.49c0-10.278-7.478-18.684-12.794-23.39a85.222 85.222 0 0 1-15.497-18A63.258 63.258 0 0 1 .235 10.517v-.32a68.908 68.908 0 0 1 72.079 0h.09z" fill="#FF6242" fill-rule="nonzero"/><path d="M79.071 63.921v27.776a41.083 41.083 0 0 0 2.252 13.385M36.274 68.489v36.548"/></g><path d="M371.945 292.904c10.74 2.538 10.74 6.654 0 9.192-10.739 2.539-28.151 2.539-38.89 0-10.74-2.538-10.74-6.654 0-9.192 10.739-2.539 28.151-2.539 38.89 0" fill="#191816" fill-rule="nonzero" opacity=".15"/><g stroke-linecap="round" stroke-linejoin="round" transform="translate(330 220)" fill-rule="nonzero" stroke="#191816"><path d="M32.102 74h-18.77c-2.358.008-4.324-1.846-4.513-4.255L4.668 18.5h36.098l-4.151 51.245c-.189 2.409-2.155 4.263-4.513 4.255z" fill="#FFFCE5"/><path d="M43.022 18.5H2.412c-1.246 0-2.256-1.035-2.256-2.313v-2.312c0-2.554 2.02-4.625 4.512-4.625h36.098c2.492 0 4.512 2.07 4.512 4.625v2.313c0 1.277-1.01 2.312-2.256 2.312zm-2.256-9.25H4.668l3.249-6.706C8.689.974 10.262-.012 11.977 0h21.479c1.715-.012 3.29.974 4.061 2.544l3.249 6.706z" fill="#FFFCE5"/><path d="M29.098 35.084c3.524 3.613 3.524 9.47 0 13.082a8.87 8.87 0 0 1-12.762 0c-3.525-3.613-3.525-9.47 0-13.082a8.87 8.87 0 0 1 12.762 0" fill="#00DBA8"/></g><path d="M356.542 259.484l10.603-.542c3.611-.179 6.678 2.708 6.85 6.448l.001.014.611 13.559c.173 3.715-2.595 6.87-6.182 7.05h-.014l-10.647.543c-4.308.196-8.11-2.895-8.946-7.277-.69-3.95-.88-7.976-.567-11.976.568-4.344 4.062-7.64 8.29-7.82z" fill="#FFCEBF" fill-rule="nonzero"/><path d="M368.74 267.075l-11.637.568c-4.263.103-7.904 3.082-8.816 7.213a45.432 45.432 0 0 1 0-7.738c.514-4.253 4.06-7.51 8.375-7.693l10.712-.525c3.648-.173 6.746 2.62 6.92 6.237v3.904a7.443 7.443 0 0 0-5.554-1.966z" fill="#FFDCD1" fill-rule="nonzero"/><path d="M356.542 259.484l10.603-.542c3.611-.179 6.678 2.708 6.85 6.448l.001.014.611 13.559c.173 3.715-2.595 6.87-6.182 7.05h-.014l-10.647.543c-4.308.196-8.11-2.895-8.946-7.277-.69-3.95-.88-7.976-.567-11.976.568-4.344 4.062-7.64 8.29-7.82z" stroke-linecap="round" stroke-linejoin="round" stroke="#191816"/><path d="M356.542 259.484l10.603-.542c3.611-.179 6.678 2.708 6.85 6.448l.001.014.611 13.559c.173 3.715-2.595 6.87-6.182 7.05h-.014l-10.647.543c-4.308.196-8.11-2.895-8.946-7.277-.69-3.95-.88-7.976-.567-11.976.568-4.344 4.062-7.64 8.29-7.82z" fill="#FFCEBF" fill-rule="nonzero"/><path d="M368.74 267.075l-11.637.568c-4.263.103-7.904 3.082-8.816 7.213a45.432 45.432 0 0 1 0-7.738c.514-4.253 4.06-7.51 8.375-7.693l10.712-.525c3.648-.173 6.746 2.62 6.92 6.237v3.904a7.443 7.443 0 0 0-5.554-1.966z" fill="#FFDCD1" fill-rule="nonzero"/><g stroke-linecap="round" stroke-linejoin="round" transform="translate(194 23)" stroke="#191816"><path d="M162.614 237.03l11.137-.552c3.792-.181 7.013 2.752 7.194 6.552v.015l.643 13.775c.18 3.774-2.726 6.981-6.493 7.163h-.015l-11.183.551a9.17 9.17 0 0 1-9.395-7.393 47.11 47.11 0 0 1-.596-12.168 9.173 9.173 0 0 1 8.708-7.944zm4.904-74.02s-6.875 3.351-2.292 11.8a11.59 11.59 0 0 1 0 13.454m-14.482-41.326s-6.874 3.352-2.291 11.8a11.59 11.59 0 0 1 0 13.455M11.697 236.478v-41.326"/><path d="M10.139 145.423l.733 1.102c25.902-20.885 62.824-20.885 88.726 0l.733-1.102.275-.46a67 67 0 0 0 9.625-34.484V55.102C110.23 24.67 85.608 0 55.235 0S.239 24.67.239 55.102v55.377a67 67 0 0 0 9.625 34.485l.275.459z" fill="#656769" fill-rule="nonzero"/></g><path d="M265 165.4a22.693 22.693 0 0 1-32 0V140h32v25.4z" fill="#FFCEBF" fill-rule="nonzero"/><path d="M233 157.583a54.16 54.16 0 0 0 32 0V141h-32v16.583z" fill="#FFB59E" fill-rule="nonzero"/><path d="M265 140v25.4a22.693 22.693 0 0 1-32 0V140h32z" stroke="#191816" stroke-linecap="round" stroke-linejoin="round"/><path d="M295.41 91.013v-11.41c0-25.206-20.588-45.64-45.985-45.64s-45.986 20.434-45.986 45.64v11.41c-5.08 0-9.197 4.087-9.197 9.128 0 5.042 4.118 9.128 9.197 9.128h.552c3.923 24.904 27.444 41.937 52.536 38.043 19.75-3.064 35.244-18.44 38.332-38.043h.551c5.08 0 9.198-4.086 9.198-9.128 0-5.04-4.118-9.128-9.198-9.128z" fill="#FFCEBF" fill-rule="nonzero"/><path d="M295.41 91.013v-11.41c0-25.206-20.588-45.64-45.985-45.64s-45.986 20.434-45.986 45.64v11.41c-5.08 0-9.197 4.087-9.197 9.128 0 5.042 4.118 9.128 9.197 9.128h.552c3.923 24.904 27.444 41.937 52.536 38.043 19.75-3.064 35.244-18.44 38.332-38.043h.551c5.08 0 9.198-4.086 9.198-9.128 0-5.04-4.118-9.128-9.198-9.128z" stroke-linecap="round" stroke-linejoin="round" stroke="#191816"/><g transform="translate(216 106)" fill="#FFB59E" fill-rule="nonzero"><path d="M9.895 1.627a5.483 5.483 0 0 1 0 7.857c-2.21 2.17-5.794 2.17-8.004 0a5.483 5.483 0 0 1 0-7.857c2.21-2.17 5.794-2.17 8.004 0m52.071 0a5.483 5.483 0 0 1 0 7.857c-2.21 2.17-5.794 2.17-8.004 0a5.483 5.483 0 0 1 0-7.857c2.21-2.17 5.794-2.17 8.004 0"/></g><path d="M234 123c7.587 6.667 19.413 6.667 27 0" stroke="#191816" stroke-linecap="round" stroke-linejoin="round"/><g stroke-linecap="round" stroke-linejoin="round" transform="translate(224 92)" stroke="#191816"><path d="M50.272 4.375C48.668.751 44.312-.938 40.54.603c-1.767.722-3.173 2.074-3.925 3.772m-22.804 0C12.21.751 7.852-.938 4.082.603 2.314 1.325.907 2.677.156 4.375"/></g><path d="M288.426 44.344a5.058 5.058 0 0 1-1.613-2.898 12.408 12.408 0 0 0-1.613-4.002A55.339 55.339 0 0 0 249.86 23h-3.916a55.339 55.339 0 0 0-35.34 14.398 13.373 13.373 0 0 0-1.567 4.002 5.058 5.058 0 0 1-1.612 2.898 30.109 30.109 0 0 0-10.183 22.54V87.4c0 2.54 2.063 4.6 4.607 4.6a4.604 4.604 0 0 0 4.608-4.6c.032-11.735 6.958-22.359 17.693-27.14l3.04-.322s9.216 0 11.52 6.9a8.268 8.268 0 0 1-.369 6.9 2.298 2.298 0 0 0 1.567 3.496 12.59 12.59 0 0 0 10.32-3.634 11.309 11.309 0 0 0 4.286-9.2h.322a44.199 44.199 0 0 0 16.864-4.278c10.78 4.801 17.715 15.493 17.693 27.278 0 2.54 2.063 4.6 4.608 4.6a4.604 4.604 0 0 0 4.607-4.6V66.884v.001a30.109 30.109 0 0 0-10.181-22.54l-.001-.001z" fill="#947063" fill-rule="nonzero"/><g stroke-linecap="round" stroke-linejoin="round" transform="translate(197 23)" stroke="#191816"><path d="M57.514 41.4c0-3.818-2.35-6.9-4.285-6.9m38.197-13.156a5.058 5.058 0 0 1-1.613-2.898 12.408 12.408 0 0 0-1.613-4.002A55.339 55.339 0 0 0 52.86 0h-3.916a55.339 55.339 0 0 0-35.34 14.398 13.373 13.373 0 0 0-1.567 4.002 5.058 5.058 0 0 1-1.612 2.898A30.109 30.109 0 0 0 .242 43.838V64.4c0 2.54 2.063 4.6 4.607 4.6a4.604 4.604 0 0 0 4.608-4.6c.032-11.735 6.958-22.359 17.693-27.14l3.04-.322s9.216 0 11.52 6.9a8.268 8.268 0 0 1-.369 6.9 2.298 2.298 0 0 0 1.567 3.496 12.59 12.59 0 0 0 10.32-3.634 11.309 11.309 0 0 0 4.286-9.2h.322A44.199 44.199 0 0 0 74.7 37.122C85.48 41.923 92.415 52.615 92.393 64.4c0 2.54 2.063 4.6 4.608 4.6a4.604 4.604 0 0 0 4.607-4.6V43.884v.001a30.109 30.109 0 0 0-10.181-22.54l-.001-.001z"/></g><path d="M249.425 22c-30.477 0-55.183 24.696-55.183 55.161v55.437a66.955 66.955 0 0 0 9.657 34.522l.276.46a79.542 79.542 0 0 0 26.396 25.282 86.982 86.982 0 0 1-10.025-12.55 63.24 63.24 0 0 1-7.91-16.685c-4.966-13.515-.781-48.634 0-70.377.506-14.526 4.6-43.669 36.79-43.669s36.282 29.143 36.788 43.67c.736 21.742 4.966 56.861 0 70.376a63.24 63.24 0 0 1-7.91 16.686 86.976 86.976 0 0 1-10.025 12.549 79.955 79.955 0 0 0 26.396-25.282l.276-.46a66.955 66.955 0 0 0 9.657-34.522V77.161c0-30.465-24.706-55.161-55.183-55.161z" fill="#656769" fill-rule="nonzero"/><path d="M248 24c-30.376 0-55 24.438-55 54.583V90c0-30.145 24.624-54.583 55-54.583S303 59.855 303 90V78.583C303 48.438 278.376 24 248 24z" fill="#87898C" fill-rule="nonzero"/><path d="M249.425 22c-30.477 0-55.183 24.696-55.183 55.161v55.437a66.955 66.955 0 0 0 9.657 34.522l.276.46a79.542 79.542 0 0 0 26.396 25.282 86.982 86.982 0 0 1-10.025-12.55 63.24 63.24 0 0 1-7.91-16.685c-4.966-13.515-.781-48.634 0-70.377.506-14.526 4.6-43.669 36.79-43.669s36.282 29.143 36.788 43.67c.736 21.742 4.966 56.861 0 70.376a63.24 63.24 0 0 1-7.91 16.686 86.976 86.976 0 0 1-10.025 12.549 79.955 79.955 0 0 0 26.396-25.282l.276-.46a66.955 66.955 0 0 0 9.657-34.522V77.161c0-30.465-24.706-55.161-55.183-55.161z" stroke-linecap="round" stroke-linejoin="round" stroke="#191816"/></g><path d="M177.77 24.36c.043.47-.302.667-.216 1.166-.643-.64-.746-.467-1.422.062-.255-1.31 1.016-.35 1.638-1.227v-.001zm.397 1.009c.658.058 1.402-2.051 2.317-.53-1.05.581-1.48.785-1.512 1.857-.35-.237-.609-.701-1.263-.183.128-.482.466-.81.386-1.44.27-.038.198.251.072.296zm-7.411 3.9c1.369 1.327-1.118.671-1.752 1.334.019-.328.41-.417.07-.971.609.074 2 .765 1.682-.363zM104.55 95.896c1.169-2.764 3.996-3.013 5.872-4.806-.334 1.648-4.48 2.914-5.872 4.806zm107.825-87.99c.338-.009.656.007.647.574 1.598-.145 1.857-1.535 3.327-1.765-.203-.75-.488-1.372-1.068-1.54-.348.976-1.01 2.462-2.032 1.279.06.608-.004 1.11-.333 1.374-.057-.324-.542-.34-.541.078zm3.835-.9c1.222-.011.492-2.465-.165-1.379-.081-.419-.18-.809-.652-.618.05 1.023.773.975.817 1.997zm-13.117 3.443c-.642-.33-2.355.07-2.115 1.14.44-.582 2.25-.105 2.115-1.14zm-3.571 2.162c-.306 1.111-1.92 1.202-2.717 1.953-.821-1.025 1.562-1.665 2.717-1.953zm3.957 1.393c.314-1.669 1.914-2.212 3.373-2.709 1.466-.464 2.789-.92 2.549-2.551-1.173.808-.974.68-2.251.353.561 2.094-.94.577-1.094 1.938-.365.067-.363-.55-.677-.575-.807.69-.536 1.46-2.086 1.106.003 1.713-1.84.693-2.762 1.947l.14.68c.172-.016.336-.014.345.286.697-.45.735-1.454 1.646-1.731.138.674.836.286.817 1.256zm-11.938 4.733c.317.973.99 1.158 1.452 1.794l1.338-.196c-.264-1 .624-1.134 1.193-1.513.325.735.949 1.242.617 1.915.248-1.09.775-2.35-.115-2.991.746.583.51-.433.879-.798-.426-.242-3.258.454-1.151.837-2.057-.338-2.45 1.122-4.213.952zm-151.55 99.515c1.217-.565 1.073-.422 2.056-.726.117.488-1.717 1.91-2.055.726h-.001zM156.27 60.257c-.32.408-.811.695-1.78 1.138-.104-.909 2.738-2.02 3.097-1.749l-1.317.61v.001zM140.174 74.29c-2.536.918-3.91 2.437-6.348 3.42 1.172-1.372 4.334-4.009 6.348-3.42zm-13.18 7.694c.516-.248 2.5-.827 2.74-2.327-.886.927-5.357 3.555-2.74 2.327zM11.13 136.057c-2.447.295-7.182 3.644-10.636 3.447 3.734-1.54 5.803-2.468 9.583-4.44-.35-.665-1.069.352-1.57.377 11.511-6.164 19.076-9.752 28.56-14.932.626-.598-.1-1.221.045-1.565l4.778-2.625c.58 1.654 1.494 1.134 2.28 1.452.736-.13-.933-1.31-.196-1.438-.392-.631-.925-.323-1.466.032 5.814-4.096 14.874-9.157 23.327-14.395-.183-.672 1.428-.582.606-1.526 4.471.17 6.283-3.71 10.108-5.069-1.024-.674.903-.329 1.046-1.782.561-.34.398.065.56.462 12.477-7.788 25.683-15.74 33.76-22.168 2.092-.443 4.096-1.433 6.116-3.643 4.016-2.1 8.71-3.95 11.295-8.047.338.477.103.661-.157.832 2.04-.526 5.135-2.214 7.159-3.851.493-.286-.662-.633-.722-1.532.394-.407 1.691-.333 1.471-1.066 1.526.533-1.302.67-.348 1.663 1.862.003 3.09-1.57 4.178-3.087 7.49-2.091 14.77-8.342 20.117-10.717.097-1.018-1.285-.197-.605-.856.451-.043.356-.423.237-.82.97-.117.261.992 1.079 1.394 4.18-2.759 6.336-3.386 8.961-6.161-.15 1.391.43-.122.95.396.653-1.205.8-2.764 2.434-3.317.406 1.057-1.344 1.172-1.674 2.347 1.688-.61 3.293-1.13 4.813-2.02 1.537-.849 2.99-2.062 4.396-4.122-.656-1.302-1.383.924-1.79-.516 1.395-1.72 2.588-2.698 4.489-2.41.036.372-.443.356-.322.79-.087-.589 2.671-1.264 2.164-3.043 1.49.614 2.36-.245 2.13-2.33.804.24 1.852-.084 2.39.759.215-.372-.263-.777.52-1.194-1.376-1.225-1.993-.505-4.027.384-.317.756.31.552.433 1.637-1.18.043-.526-1.13-1.722-1.288-1.913.894-1.67 1.932-3.738 2.448-.138-2.502 2.44-2.388 3.82-3.174.241-.7 1.445-2.057 1.377-2.126.202-.795.64.195.518.913 2.327-1.09 1.99-2.637 2.031-4.055.852.168 1.124.79 1.018 1.85 1.93-1.394 5.534-1.257 5.253-5.064.321.153.444.698.946.474.096-1.76 2.225-.13 2.276-2.56 1.334 1.203 2.86-.78 3.953-1.472l.312 1.665c1.557-.656 2.675-1.71 4.07-2.472-1.144-1.408-2.437 1.312-3.984 1.42 1.81-1.77 3.67-3.056 5.626-4.238a146.837 146.837 0 0 1 6.26-3.534c-2.627 2.385-4.985 3.355-7.795 5.304.796.755 1.267-.957 1.991.027 1.354-1.781 5.048-3.918 6.35-3.344.683-1.975 3.256-2.41 5.581-4.079 1.07.556-.76.871-.715 1.452.205 1.11 1.245-1.174 1.205.54-1.316.243-1.21.6-1.776-.473.15 1.502-.756.341-.666 1.783-.586.23-.594-.417-.68-.943-.09.955-.072 2.082-1.258 1.517.313 1.944 2.718.351 2.788-.672 1.472.234 3.194-.042 4.475-1.143.63 0 .685.803.715 1.645.096-.968 2.4.767 1.856 1.897 1.894 1.111 2.226.47 3.754 1.414-.794.97.265.402-.453 1.735.289.944 1.166 1.053 1.75 1.567.282 1.474-.807 1.454-.957 2.453 1.17-.056-.295 1.566 1.412.915-.367.866-1.167 1.418.09 1.693.264 1.257-.98.816-.973 1.776.106 1.19.84 1.455.941 2.646.152.808-.436.772-.166 1.714a46.055 46.055 0 0 1-7.196 6.15c-2.569 1.913-5.287 3.52-8.06 4.92-8.643 4.406-17.431 9.548-26.24 14.22-2.672 1.363-5.533 2.934-8.441 4.319-2.89 1.517-5.82 2.906-8.579 4.295-9.476 4.708-16.602 8.833-24.115 13.26-7.508 4.44-15.39 9.155-26.173 15.75-8.657 5.289-18.61 12.741-28.053 17.524-4.324 2.181.384-.933 1.202-1.469 8.928-5.855 16.615-10.188 25.283-16.377-1.292.17-3.388 1.354-4.591 2.472 6.626-6.098 16.316-10.818 24.034-15.35.112 1.027-.692.632-1.48 1.452 3.467-.568 5.146-3.193 8.946-4.548-1.607-.944-2.327 1.261-4.58 1.742-.365.14-.779.544-1.032.109l.887-.416c6.731-5.078 14.606-8.554 20.78-12.99-4.99 2.131-10.984 4.224-15.913 8.891.015-.336.026-.673-.274-.62-4.921 2.752-9.63 5.322-13.897 8.07 5.394-4.437 11.667-7.613 17.936-11.723-3.602.757-6.569 3.633-10.87 5.308-.547.08-.223.638-.02 1.13-3.325.506-6.075 2.426-8.834 3.896-20.944 11.34-38.171 23.572-62.14 37.967-.992.6-2.029 1.017-3.353 1.935-1.03.72-2.597.697-3.697 1.346-2.794 1.66-4.98 5.026-8.279 4.336-.71.633-2.776 1.466-1.976.73 3.118-2.91 6.834-4.088 9.526-5.82 11.3-7.256 22.617-13.326 32.337-19.826-9.39 3.803-17.538 11.073-25.738 15.245-3.808 1.93-8.214 4.851-11.823 6.398-16.408 7.09-31.122 19.111-49.245 24.116.565-1.252 1.374-1.488 1.71-1.953h.001zM192.203 16.701c-.396.23-.705-1.597.033-1.31-.003.265-.185.382-.132.691 1.157.241.118-1.326 1.024-1.297-.389 1.427.606-.237 1.46-.14-.77 1.093-1.68 1.503-2.385 2.056zM176.68 27.933c-.594-.406-.965.55-2.021.552.346-1.43 1.472-1.363 1.595-2.527.9.253.486 1.59.426 1.975zm-3.943 1.635c-.19.116-.285-.057-.372-.243-.214.587.278 2.246-.756 1.594-.295-.809.936-.625.135-1.768.46-.246.805-.154.993.417zm.683-.476c.684.278-.427 2.235-1.03 1.703-.346-1.022.854-1.021 1.03-1.703zm-3.63 2.602l-.342-.996c.483-.078 1.178-.766 1.257.32-.475.11-.403.588-.914.676h-.001zm-5.955 2.317c-.297.005-.426-.563-.75-.469.024-.743 1.39-.654 1.326-1.457.949.507-.065 1.71-.837 1.305l.261.62v.001zm1.542-.212c.568.097 2.603-.736 2.316-2.053.684.637.781.455 1.467-.129.515.89-.299.89-.07 1.59-1.73-.578-2.583 2.64-3.713.592zm-15.73 8.116c-.79.676-.816-1.317-1.234-1.939.712-.303 1.366 1.395 1.234 1.939zm-8.422 5.748c.129-.651.647-1.094 1.418-1.398.186.86-.979 1.611-1.418 1.398zm17.863-7.227c.008-.303.01-.61-.221-1.058 1.159 1.292 2.538-3.003 3.325.137-1.662-1.356-1.73 1.885-3.104.92v.001zm-20.344 9.095c.152-.814 1.345-1.32 1.909-2.383-.123.537-.385.996-.103 1.752-1.048.012-.955 1.085-1.806.63v.001zm17.79-6.92c-.27-.093-.538-.182-.875-.034-.536-.815.23-.847-.026-1.498.553.128 1.098.892.9 1.532h.001zm1.273-1.625c.317.69-.822.492-1.111.812-.141-.664.207-1.03-.15-1.826.884-.092.896.9 1.26 1.014h.001zM123.8 58.561c-.278-1.25 1.813-1.314 2.29-2.18.248 1.778-1.267 1.027-2.29 2.18zm1.978 4.454c.02-.33-.15-.753-.465-1.247l1.328-.56c.648 1.492-.662.743-.863 1.807zm-99.775 61.991c1.56-2.227 5.837-3.105 9.992-6.012-1.692 1.83-6.89 4.085-9.992 6.012zM126.276 78.48c.578 1.359-1.843 1.24-2.524 1.978-1.375-.131 2.458-1.15 2.524-1.978zm-11.672 9.976c-.059-1.109 2.583-.943 2.528-2.053 1.097.667-2.211 2.036-2.528 2.053zm-.63 1.341c-1.333-1.817-3.368 2.288-.393-.18.113.178.232.343.393.18zM97.826 99.71c1.512-1.15 4.097-4.16 6.348-3.42-2.171 1.03-4.856 2.794-6.348 3.42zm-31.673 18.403c1.681-1.28 4.42-2.905 6.201-3.794-.098.955-2.101 1.98-3.795 2.91-1.27.704-4.163 2.275-2.406.884z" transform="translate(381 330)" fill="url(#h)"/></g></svg>