<svg width="778" height="468" xmlns="http://www.w3.org/2000/svg"><defs><linearGradient x1="0%" y1="2.437%" y2="97.563%" id="a"><stop stop-color="#92FFC0" offset="0%"/><stop stop-color="#002661" offset="100%"/></linearGradient><linearGradient x1="0%" y1=".018%" y2="99.982%" id="b"><stop stop-color="#90F7EC" offset="0%"/><stop stop-color="#32CCBC" offset="100%"/></linearGradient><linearGradient x1="0%" y1="15.767%" y2="84.233%" id="c"><stop stop-color="#90F7EC" offset="0%"/><stop stop-color="#32CCBC" offset="100%"/></linearGradient><linearGradient x1="0%" y1=".018%" y2="99.982%" id="d"><stop stop-color="#90F7EC" offset="0%"/><stop stop-color="#32CCBC" offset="100%"/></linearGradient><linearGradient x1="0%" y1=".018%" y2="99.982%" id="e"><stop stop-color="#70F570" offset="0%"/><stop stop-color="#49C628" offset="100%"/></linearGradient><linearGradient x1="0%" y1="37.345%" y2="62.655%" id="f"><stop stop-color="#70F570" offset="0%"/><stop stop-color="#49C628" offset="100%"/></linearGradient><linearGradient x1="0%" y1="0%" y2="100%" id="g"><stop stop-color="#F8F9FB" offset="0%"/><stop stop-color="#FFF" offset="100%"/></linearGradient><linearGradient x1="0%" y1="32.061%" y2="67.939%" id="h"><stop stop-color="#79F1A4" offset="0%"/><stop stop-color="#0E5CAD" offset="100%"/></linearGradient></defs><g fill="none" fill-rule="evenodd"><path d="M273.831 448.767c198.044 76.932 224.423-100.46 224.423-224.383C498.254 100.46 397.777 0 273.831 0 149.886 0 196.804 170.203 69.013 233.733c-127.79 63.53 6.774 138.103 204.818 215.034z" fill="url(#a)" fill-rule="nonzero"/><path fill="url(#b)" fill-rule="nonzero" d="M3.93915934 213.69863L0.841052198 215.124 0 218.140356 0.989598901 221.012466 3.93915934 222.246575 6.71773077 220.846849 8.54945055 218.139288 7.16550824 214.997918z"/><path d="M60.171 246.822l-1.936.89-.526 1.886.619 1.795 1.843.771 1.736-.876 1.145-1.69-.865-1.962-2.016-.814zM34.523 226.52l-1.937.89-.526 1.885.62 1.796 1.843.771 1.735-.876 1.146-1.69-.866-1.962-2.015-.814z" fill="url(#c)" fill-rule="nonzero"/><path fill="url(#d)" fill-rule="nonzero" d="M21.6985055 177.369863L19.7620549 178.259918 19.2362637 180.145808 19.8550302 181.940877 21.6985055 182.712329 23.434044 181.836164 24.5796703 180.146877 23.7140385 178.184055z"/><path fill="url(#d)" fill-rule="nonzero" d="M74.0638901 215.835616L72.1274396 216.725671 71.6016484 218.611562 72.2204148 220.40663 74.0638901 221.178082 75.7994286 220.301918 76.9450549 218.61263 76.0794231 216.649808z"/><path fill="url(#e)" fill-rule="nonzero" d="M65.5144396 179.506849L63.577989 180.396904 63.0521978 182.282795 63.6709643 184.077863 65.5144396 184.849315 67.249978 183.973151 68.3956044 182.283863 67.5299725 180.321041z"/><path d="M426.57 431.272c-.994.42-2.12.796-3.33 1.11a45.213 45.213 0 0 1-3.838.768c-2.654.443-5.461.6-7.992.699-2.578.056-4.868.01-6.575-.118-.312-1.346.513-1.285 1.213-1.38.69-.1 1.251-.355.444-2.3 1.354.847 1.511 4.486 3.937 2.92-.034-2.47-1.306-2.023-2.404-1.977 1.068-2.201 2.511-1.344 3.986-.546 1.354.74 2.772 1.448 3.89-.216.075-.15.165-.314.293-.502a4.49 4.49 0 0 1-.294.502c-.744 1.492.978 1.258 3.735.483 3.042-.823 7.282-2.308 10.911-2.652-.534 1.31-1.987 2.372-3.975 3.209m-82.522-33.67c-.499.52-2.299.477-3.733-1.661-.83.726-1.884.785-3.088.378.375-.862.998-.917 1.287-2.03-.535-.36-.767.256-.99.924-1.734-3.547 3.522-1.902 2.791.728 3.503.087 4.234 1.139 3.733 1.661m-10.196 2.552c1.274-2.108 5.337.208 5.823 1.525-2.12 1.538-2.874-.563-5.823-1.525m442.923-138.88a86.032 86.032 0 0 0-2.392-12.707 92.36 92.36 0 0 0-.697-2.444c-.49-1.612-1.03-3.297-1.614-4.843a93.756 93.756 0 0 0-1.902-4.723c-.683-1.592-1.413-3.065-2.194-4.6-1.56-3.076-3.327-5.984-5.299-8.912a87.651 87.651 0 0 0-14.645-16.439c-1.78-1.556-3.665-3.005-5.582-4.376l-.721-.51-.661-.445-1.31-.85a75.255 75.255 0 0 0-2.665-1.614 64.944 64.944 0 0 0-10.798-4.922c-7.213-2.518-14.27-3.56-20.795-3.684-6.539-.124-12.565.657-18.043 1.78-5.484 1.126-10.431 2.593-14.926 3.908a44.003 44.003 0 0 0-3.388 1.183 49.487 49.487 0 0 0-3.174 1.464 67.036 67.036 0 0 0-5.945 3.603c-3.858 2.575-7.536 5.668-10.967 8.736-6.883 6.181-12.806 12.607-18.054 16.523-.591.438-1.25-1.773-2.418-1.165-2.967 1.61-6.12 5.358-9.005 9.22-2.903 3.927-5.536 7.867-7.794 9.847-2.65-.447-3.975 2.498-5.201 4.768-1.243 2.255-2.38 3.911-4.959.876a53.882 53.882 0 0 1-3.22 5.53c-1.124 1.699-2.29 3.306-3.495 4.755-1.204 1.46-2.447 2.767-3.708 4.012a52.361 52.361 0 0 1-3.831 3.494 54.466 54.466 0 0 1-1.948 1.537c-.65.496-1.294 1.01-1.943 1.485a78.034 78.034 0 0 1-3.869 2.68c-1.284.817-2.524 1.7-3.75 2.48l-3.562 2.302c.205 2.902 2.645 5.006 1.648 5.49-1.457 1.12-2.334-3.519-3.828-2.388.153 2.69 2.5 3.728 1.392 4.37-.637-1.221-1.286-2.316-1.986-2.98.429 1.941 1.594 2.581 1.062 3.277-.465.142-.26 1.06-.562 1.381-.86-.463-1.455-4.163-2.38-4.056.764 2.381.174 2.17-.461 1.995-.634-.17-1.327-.33-.724 2.067.76-.342 1.453.407 2.104 1.667-3.003.913-6.013 3.645-8.7 6.36a71.888 71.888 0 0 1-2.016 1.907c-.657.612-1.29 1.207-1.93 1.704-1.275 1-2.54 1.672-3.845 1.77.225 2.633-.536 3.458-1.496 4.113-.48.328-1.006.613-1.471 1.058-.464.45-.862 1.09-1.08 2.07-1.825-4.241-2.703-2.353-2.718-1.138.56-.155 1.13-.222 1.913 1.578-.238 2.308-1.567 2.575-3.07 2.521-1.5-.074-3.167-.549-3.965.134-.882.763.285 6.096-1.254 6.112-1.808.016-2.928 1.131-3.869 2.51-.937 1.379-1.718 3.113-2.907 4.498a67.071 67.071 0 0 1-5.546 5.674c-2.041 1.876-4.187 3.665-6.484 5.481-4.557 3.592-9.537 7.112-14.53 10.575l-3.716 2.586-3.652 2.567c-2.447 1.701-4.735 3.409-6.976 5.1-1.113.846-2.148 1.71-3.19 2.558-1.014.824-2 1.681-2.955 2.572-1.833 1.747-3.532 3.46-4.867 5.28-1.748-.651-3.52-.478-5.237.182-1.72.658-3.422 1.734-4.998 2.942-1.587 1.18-3.071 2.436-4.332 3.427-1.269.972-2.324 1.65-3.027 1.681-2.06.086-1.246 2.833-4.617 4.345-5.882 2.608-10.21 5.022-15.189-.641-1.1 1.83-2.641 2.976-4.368 3.689-1.723.732-3.617 1.075-5.444 1.328-.913.134-1.806.254-2.653.408-.85.141-1.656.308-2.388.554-1.465.485-2.637 1.292-3.334 2.706 1.172.39 2.51-.015 3.413 1.522-1.343.346-2.69.67-4.044.972l-1.034-4.465c-1.62.623-3.245.977-4.851 1.176-1.605.208-3.174.339-4.711.473-1.534.14-3.014.374-4.45.806a11.756 11.756 0 0 0-4.152 2.188c.668.17 1.682 1.638.926 2.169-1.817-.075-4.434 1.92-5.024-1.59 1.32-1.447 3.29 3.052 3.516-.494-1.438-.704-2.607-2.054-4.402-1.715.117 1.715.754 4.17-.013 4.625-3.844-.757-7.317-.317-10.476.451-1.514.371-3.018.782-4.51 1.234-1.427.395-2.77.747-4.003.953.176-.71 1.41-4.462-.128-4.581-2.981 4.013-7.683 2.959-12.123 1.604-4.474-1.335-8.613-2.837-11.768.726-.118-3-1.493-3.906-3.106-3.669-1.607.248-3.473 1.74-4.438 3.686.456-2.468-.017-3.854-.99-4.637-.975-.78-2.464-.958-4.09-1.088-1.457.011.299 3.258-2.113 3.04a23.85 23.85 0 0 0-2.593-2.208 19.729 19.729 0 0 0-2.664-1.62c-1.811-.985-3.735-1.623-5.739-2.324-2-.707-4.143-1.344-6.345-2.318-2.228-.913-4.508-2.167-6.849-3.846-2.02 1.94-.254 4.641-2.012 4.117-2.151.352-4.214-.937-5.89-2.538-1.668-1.63-3.027-3.44-4.005-4.209.972.803-1.32 1.578-.589-.368 1.663-1.696 2.144-.612 2.84.475.68 1.096 1.55 2.265 3.68.699-.875-.572-2.401-2.426-3.971-3.913-1.569-1.501-3.284-2.53-4.806-1.418-.972 1.654.194 1.392 1.146 1.248.948-.136 1.682-.124-.07 2.167-1.003-.175-1.76-.435-2.394-.798-.63-.369-1.152-.82-1.715-1.35-.564-.53-1.169-1.139-1.967-1.826a29.097 29.097 0 0 0-3.064-2.4c1.119-1.097 2.11-1.155 3.323-3.24-1.818 1.246-3.39 1.328-5.113 1.142-1.731-.182-3.69-.52-6.41-.134.673 1.35 1.475 2.543 2.322 3.685.425.566.866 1.115 1.323 1.644a36.6 36.6 0 0 0 1.44 1.494c.99.961 2.002 1.895 3.078 2.752 1.078.854 2.18 1.682 3.297 2.515 4.532 3.275 9.255 6.425 14.02 11.583-6.541-3.357-11.425-6.223-15.73-9.293a83.481 83.481 0 0 1-3.098-2.397c-1.01-.811-1.95-1.712-2.901-2.62-1.91-1.806-3.669-3.907-5.447-6.277-.964.948-2.02 2.561-2.807 2.12 1.236-2.161.474-3.84-.918-5.167-1.387-1.328-3.363-2.404-4.64-3.149 2.982 3.545-.449.4-2.165 1.096.957.324 1.197 2.105 1.143 3.573-.054 1.353-.375 2.423-.723 1.75.732 1.851 2.576 3.235 4.324 4.57 1.822 1.384 3.632 2.595 4.174 4.274.265.776-2.383 2.173-1.528 3.189-.07-.093 2.168-2.678 2.744-2.214 1.515 1.221.862 4.446 2.34 6.064 1.472 1.534 4.911 1.866 6.546 3.09 7.965 5.988 16.95 12.498 27.226 17.93 10.323 5.53 21.505 9.788 32.002 12.04 7.049 1.534 14.04 2.292 20.786 2.623 6.752.331 13.262.243 19.514.086 6.253-.16 12.253-.378 18.06-.355 5.811.055 11.567.274 17.38 1.03a76.564 76.564 0 0 0-7.252.542c-2.482.25-5.003.67-7.596 1.05-5.134.828-10.646 1.797-16.46 2.533-5.812.732-11.95 1.208-18.227.99-6.268-.213-12.681-1.123-18.825-3.087-1.539 3.778-3.249-.98-4.328 3.031 6.51.684 14.594 1.261 22.282 1.679 7.707.443 15.033.775 20.53 1.609.821 3.045-3.445-.475-2.655 2.561 1.742.683 5.395-2.62 5.303 1.777-12.05.705-26.087.312-40.633-1.476a267.639 267.639 0 0 1-21.86-3.618c-1.79-.345-3.606-.78-5.38-1.166-1.77-.378-3.546-.818-5.294-1.24l-2.603-.627-2.597-.677c-1.713-.455-3.416-.87-5.061-1.317 2.238 1.667 4.644 3.096 7.169 4.407 2.494 1.234 5.166 2.414 7.954 3.415 2.817 1.057 5.755 1.97 8.932 2.943l4.882 1.4c1.697.493 3.4.926 5.208 1.432 7.7 2.095 15.945 3.333 24.054 3.9 8.105.564 16.072.473 23.52.115l2.782-.139 2.709-.173c1.812-.107 3.558-.24 5.282-.37l9.916-.776c6.373-.47 12.232-.916 17.37-.812 1.44-1.667 6.231-3.415 11.219-4.646 2.5-.599 5.044-1.1 7.287-1.282 2.234-.212 4.152-.153 5.379.345 7.26-2.473 14.854-5.498 22.464-8.88 7.615-3.381 15.246-7.117 22.66-10.932 3.756-1.91 7.26-3.812 10.788-5.623 3.32-1.78 6.722-3.509 9.735-5.035l2.305-1.133 2.23-1.069c1.416-.67 2.844-1.315 4.283-1.934.694-.29 1.38-.575 2.057-.856.663-.27 1.325-.528 1.983-.775a67.107 67.107 0 0 1 3.872-1.333c-.203.456-.927.66-.324 1.598a43.535 43.535 0 0 0 6.023-2.714 39.43 39.43 0 0 0 5.483-3.576c1.598-1.263 3.112-2.71 4.28-4.194 1.132-1.455 2.042-3.041 2.6-4.705-2.165-1.975-2.949 2.84-5.161.725.737-.997 1.515-2.114 2.597-3.015a6.404 6.404 0 0 1 1.81-1.09 7.187 7.187 0 0 1 2.41-.47c.789 1.236.407 1.634 1.53 3.105l1.298-.947 1.218-.86 2.423-1.676 2.265-1.488c.75-.487 1.515-.99 2.188-1.392l2.073-1.283c.355-.227.671-.408.987-.592l.95-.56.944-.567c.317-.196.628-.385.907-.536a66.952 66.952 0 0 0 1.71-1.005c.585-.371 1.084-.64 1.592-.947.509-.302 1.015-.63 1.509-.95a27.23 27.23 0 0 0 2.827-1.877 27.628 27.628 0 0 0 2.906-2.14c1.019-.725 2.006-1.577 3.023-2.505 2.934-2.549 5.99-5.55 9.292-9 .838-.839 1.696-1.695 2.552-2.61l1.3-1.393 1.35-1.381 5.642-5.976c3.939-4.112 8.192-8.684 12.863-13.398 2.322-2.44 4.761-4.79 7.28-7.365l3.865-3.79c1.313-1.293 2.65-2.62 4.015-3.9 1.01-.961 2.055-1.94 3.11-2.908l1.587-1.439 1.574-1.354c2.073-1.77 4.093-3.43 5.682-4.717 2.63-2.128 4.922-3.291 7.158-4.34 2.237-1.045 4.403-1.988 6.961-3.603 3.267-2.05 7.01-5.1 11.583-7.65 2.263-1.258 4.748-2.412 7.346-3.175a27.929 27.929 0 0 1 3.986-.899c1.33-.157 2.738-.265 4.092-.17 2.345.097 4.924.812 7.584 1.99 2.662 1.176 5.377 2.845 7.947 4.865 2.579 2.008 5.05 4.338 7.347 6.697.585.581 1.12 1.186 1.689 1.76.559.58 1.14 1.136 1.664 1.7.529.55 1.074 1.085 1.635 1.604.274.253.552.499.832.737.267.241.535.475.806.7a48.279 48.279 0 0 0 3.62 2.722 30.309 30.309 0 0 0 3.534 2.173c2.379 1.236 4.806 2.014 7.283 2.261 2.477.25 5.003-.032 7.533-.847 2.529-.81 5.057-2.156 7.502-3.932 2.43-1.763 4.705-3.92 6.859-6.31a71.789 71.789 0 0 0 3.056-3.64 128.781 128.781 0 0 0 2.8-3.704l2.565-3.517a70.986 70.986 0 0 1 2.381-3.081c1.55-1.869 3.042-3.308 4.572-3.942.983-7.362 1.024-14.724.238-21.603" fill="url(#f)" fill-rule="nonzero"/><g transform="translate(119 35)" fill-rule="nonzero"><path fill="#FFF" d="M0 0L540 0 540 370 0 370z"/><path fill="url(#g)" d="M0 34.571L540 34.571 540 158.839 0 158.839z"/></g><g transform="translate(380 328)" fill="url(#h)"><path d="M177.77 24.36c.043.47-.302.667-.216 1.166-.643-.64-.746-.467-1.422.062-.255-1.31 1.016-.35 1.638-1.227v-.001zm.397 1.009c.658.058 1.402-2.051 2.317-.53-1.05.581-1.48.785-1.512 1.857-.35-.237-.609-.701-1.263-.183.128-.482.466-.81.386-1.44.27-.038.198.251.072.296zm-7.411 3.9c1.369 1.327-1.118.671-1.752 1.334.019-.328.41-.417.07-.971.609.074 2 .765 1.682-.363zM104.55 95.896c1.169-2.764 3.996-3.013 5.872-4.806-.334 1.648-4.48 2.914-5.872 4.806zm107.825-87.99c.338-.009.656.007.647.574 1.598-.145 1.857-1.535 3.327-1.765-.203-.75-.488-1.372-1.068-1.54-.348.976-1.01 2.462-2.032 1.279.06.608-.004 1.11-.333 1.374-.057-.324-.542-.34-.541.078zm3.835-.9c1.222-.011.492-2.465-.165-1.379-.081-.419-.18-.809-.652-.618.05 1.023.773.975.817 1.997zm-13.117 3.443c-.642-.33-2.355.07-2.115 1.14.44-.582 2.25-.105 2.115-1.14zm-3.571 2.162c-.306 1.111-1.92 1.202-2.717 1.953-.821-1.025 1.562-1.665 2.717-1.953zm3.957 1.393c.314-1.669 1.914-2.212 3.373-2.709 1.466-.464 2.789-.92 2.549-2.551-1.173.808-.974.68-2.251.353.561 2.094-.94.577-1.094 1.938-.365.067-.363-.55-.677-.575-.807.69-.536 1.46-2.086 1.106.003 1.713-1.84.693-2.762 1.947l.14.68c.172-.016.336-.014.345.286.697-.45.735-1.454 1.646-1.731.138.674.836.286.817 1.256zm-11.938 4.733c.317.973.99 1.158 1.452 1.794l1.338-.196c-.264-1 .624-1.134 1.193-1.513.325.735.949 1.242.617 1.915.248-1.09.775-2.35-.115-2.991.746.583.51-.433.879-.798-.426-.242-3.258.454-1.151.837-2.057-.338-2.45 1.122-4.213.952zm-151.55 99.515c1.217-.565 1.073-.422 2.056-.726.117.488-1.717 1.91-2.055.726h-.001zM156.27 60.257c-.32.408-.811.695-1.78 1.138-.104-.909 2.738-2.02 3.097-1.749l-1.317.61v.001zM140.174 74.29c-2.536.918-3.91 2.437-6.348 3.42 1.172-1.372 4.334-4.009 6.348-3.42zm-13.18 7.694c.516-.248 2.5-.827 2.74-2.327-.886.927-5.357 3.555-2.74 2.327zM11.13 136.057c-2.447.295-7.182 3.644-10.636 3.447 3.734-1.54 5.803-2.468 9.583-4.44-.35-.665-1.069.352-1.57.377 11.511-6.164 19.076-9.752 28.56-14.932.626-.598-.1-1.221.045-1.565l4.778-2.625c.58 1.654 1.494 1.134 2.28 1.452.736-.13-.933-1.31-.196-1.438-.392-.631-.925-.323-1.466.032 5.814-4.096 14.874-9.157 23.327-14.395-.183-.672 1.428-.582.606-1.526 4.471.17 6.283-3.71 10.108-5.069-1.024-.674.903-.329 1.046-1.782.561-.34.398.065.56.462 12.477-7.788 25.683-15.74 33.76-22.168 2.092-.443 4.096-1.433 6.116-3.643 4.016-2.1 8.71-3.95 11.295-8.047.338.477.103.661-.157.832 2.04-.526 5.135-2.214 7.159-3.851.493-.286-.662-.633-.722-1.532.394-.407 1.691-.333 1.471-1.066 1.526.533-1.302.67-.348 1.663 1.862.003 3.09-1.57 4.178-3.087 7.49-2.091 14.77-8.342 20.117-10.717.097-1.018-1.285-.197-.605-.856.451-.043.356-.423.237-.82.97-.117.261.992 1.079 1.394 4.18-2.759 6.336-3.386 8.961-6.161-.15 1.391.43-.122.95.396.653-1.205.8-2.764 2.434-3.317.406 1.057-1.344 1.172-1.674 2.347 1.688-.61 3.293-1.13 4.813-2.02 1.537-.849 2.99-2.062 4.396-4.122-.656-1.302-1.383.924-1.79-.516 1.395-1.72 2.588-2.698 4.489-2.41.036.372-.443.356-.322.79-.087-.589 2.671-1.264 2.164-3.043 1.49.614 2.36-.245 2.13-2.33.804.24 1.852-.084 2.39.759.215-.372-.263-.777.52-1.194-1.376-1.225-1.993-.505-4.027.384-.317.756.31.552.433 1.637-1.18.043-.526-1.13-1.722-1.288-1.913.894-1.67 1.932-3.738 2.448-.138-2.502 2.44-2.388 3.82-3.174.241-.7 1.445-2.057 1.377-2.126.202-.795.64.195.518.913 2.327-1.09 1.99-2.637 2.031-4.055.852.168 1.124.79 1.018 1.85 1.93-1.394 5.534-1.257 5.253-5.064.321.153.444.698.946.474.096-1.76 2.225-.13 2.276-2.56 1.334 1.203 2.86-.78 3.953-1.472l.312 1.665c1.557-.656 2.675-1.71 4.07-2.472-1.144-1.408-2.437 1.312-3.984 1.42 1.81-1.77 3.67-3.056 5.626-4.238a146.837 146.837 0 0 1 6.26-3.534c-2.627 2.385-4.985 3.355-7.795 5.304.796.755 1.267-.957 1.991.027 1.354-1.781 5.048-3.918 6.35-3.344.683-1.975 3.256-2.41 5.581-4.079 1.07.556-.76.871-.715 1.452.205 1.11 1.245-1.174 1.205.54-1.316.243-1.21.6-1.776-.473.15 1.502-.756.341-.666 1.783-.586.23-.594-.417-.68-.943-.09.955-.072 2.082-1.258 1.517.313 1.944 2.718.351 2.788-.672 1.472.234 3.194-.042 4.475-1.143.63 0 .685.803.715 1.645.096-.968 2.4.767 1.856 1.897 1.894 1.111 2.226.47 3.754 1.414-.794.97.265.402-.453 1.735.289.944 1.166 1.053 1.75 1.567.282 1.474-.807 1.454-.957 2.453 1.17-.056-.295 1.566 1.412.915-.367.866-1.167 1.418.09 1.693.264 1.257-.98.816-.973 1.776.106 1.19.84 1.455.941 2.646.152.808-.436.772-.166 1.714a46.055 46.055 0 0 1-7.196 6.15c-2.569 1.913-5.287 3.52-8.06 4.92-8.643 4.406-17.431 9.548-26.24 14.22-2.672 1.363-5.533 2.934-8.441 4.319-2.89 1.517-5.82 2.906-8.579 4.295-9.476 4.708-16.602 8.833-24.115 13.26-7.508 4.44-15.39 9.155-26.173 15.75-8.657 5.289-18.61 12.741-28.053 17.524-4.324 2.181.384-.933 1.202-1.469 8.928-5.855 16.615-10.188 25.283-16.377-1.292.17-3.388 1.354-4.591 2.472 6.626-6.098 16.316-10.818 24.034-15.35.112 1.027-.692.632-1.48 1.452 3.467-.568 5.146-3.193 8.946-4.548-1.607-.944-2.327 1.261-4.58 1.742-.365.14-.779.544-1.032.109l.887-.416c6.731-5.078 14.606-8.554 20.78-12.99-4.99 2.131-10.984 4.224-15.913 8.891.015-.336.026-.673-.274-.62-4.921 2.752-9.63 5.322-13.897 8.07 5.394-4.437 11.667-7.613 17.936-11.723-3.602.757-6.569 3.633-10.87 5.308-.547.08-.223.638-.02 1.13-3.325.506-6.075 2.426-8.834 3.896-20.944 11.34-38.171 23.572-62.14 37.967-.992.6-2.029 1.017-3.353 1.935-1.03.72-2.597.697-3.697 1.346-2.794 1.66-4.98 5.026-8.279 4.336-.71.633-2.776 1.466-1.976.73 3.118-2.91 6.834-4.088 9.526-5.82 11.3-7.256 22.617-13.326 32.337-19.826-9.39 3.803-17.538 11.073-25.738 15.245-3.808 1.93-8.214 4.851-11.823 6.398-16.408 7.09-31.122 19.111-49.245 24.116.565-1.252 1.374-1.488 1.71-1.953h.001zM192.203 16.701c-.396.23-.705-1.597.033-1.31-.003.265-.185.382-.132.691 1.157.241.118-1.326 1.024-1.297-.389 1.427.606-.237 1.46-.14-.77 1.093-1.68 1.503-2.385 2.056zM176.68 27.933c-.594-.406-.965.55-2.021.552.346-1.43 1.472-1.363 1.595-2.527.9.253.486 1.59.426 1.975zm-3.943 1.635c-.19.116-.285-.057-.372-.243-.214.587.278 2.246-.756 1.594-.295-.809.936-.625.135-1.768.46-.246.805-.154.993.417zm.683-.476c.684.278-.427 2.235-1.03 1.703-.346-1.022.854-1.021 1.03-1.703zm-3.63 2.602l-.342-.996c.483-.078 1.178-.766 1.257.32-.475.11-.403.588-.914.676h-.001zm-5.955 2.317c-.297.005-.426-.563-.75-.469.024-.743 1.39-.654 1.326-1.457.949.507-.065 1.71-.837 1.305l.261.62v.001zm1.542-.212c.568.097 2.603-.736 2.316-2.053.684.637.781.455 1.467-.129.515.89-.299.89-.07 1.59-1.73-.578-2.583 2.64-3.713.592zm-15.73 8.116c-.79.676-.816-1.317-1.234-1.939.712-.303 1.366 1.395 1.234 1.939zm-8.422 5.748c.129-.651.647-1.094 1.418-1.398.186.86-.979 1.611-1.418 1.398zm17.863-7.227c.008-.303.01-.61-.221-1.058 1.159 1.292 2.538-3.003 3.325.137-1.662-1.356-1.73 1.885-3.104.92v.001zm-20.344 9.095c.152-.814 1.345-1.32 1.909-2.383-.123.537-.385.996-.103 1.752-1.048.012-.955 1.085-1.806.63v.001zm17.79-6.92c-.27-.093-.538-.182-.875-.034-.536-.815.23-.847-.026-1.498.553.128 1.098.892.9 1.532h.001zm1.273-1.625c.317.69-.822.492-1.111.812-.141-.664.207-1.03-.15-1.826.884-.092.896.9 1.26 1.014h.001zM123.8 58.561c-.278-1.25 1.813-1.314 2.29-2.18.248 1.778-1.267 1.027-2.29 2.18zm1.978 4.454c.02-.33-.15-.753-.465-1.247l1.328-.56c.648 1.492-.662.743-.863 1.807zm-99.775 61.991c1.56-2.227 5.837-3.105 9.992-6.012-1.692 1.83-6.89 4.085-9.992 6.012zM126.276 78.48c.578 1.359-1.843 1.24-2.524 1.978-1.375-.131 2.458-1.15 2.524-1.978zm-11.672 9.976c-.059-1.109 2.583-.943 2.528-2.053 1.097.667-2.211 2.036-2.528 2.053zm-.63 1.341c-1.333-1.817-3.368 2.288-.393-.18.113.178.232.343.393.18zM97.826 99.71c1.512-1.15 4.097-4.16 6.348-3.42-2.171 1.03-4.856 2.794-6.348 3.42zm-31.673 18.403c1.681-1.28 4.42-2.905 6.201-3.794-.098.955-2.101 1.98-3.795 2.91-1.27.704-4.163 2.275-2.406.884z"/></g></g></svg>