<?xml version="1.0" encoding="UTF-8" standalone="no"?><!DOCTYPE svg PUBLIC "-//W3C//DTD SVG 1.1//EN" "http://www.w3.org/Graphics/SVG/1.1/DTD/svg11.dtd"><svg width="100%" height="100%" viewBox="0 0 1440 786" version="1.1" xmlns="http://www.w3.org/2000/svg" xmlns:xlink="http://www.w3.org/1999/xlink" xml:space="preserve" xmlns:serif="http://www.serif.com/" style="fill-rule:evenodd;clip-rule:evenodd;stroke-linejoin:round;stroke-miterlimit:2;"><g id="Desktop-HD-1440"><g id="Path-4"><path id="path-1" d="M-197.196,2694.77l0,-1814.1c50.512,-313.178 185.676,-469.767 405.49,-469.767c329.723,0 220.538,200.151 477.206,174.251c256.668,-25.9 251.662,-200.463 416.047,-342.9c109.59,-94.959 265.14,-145.377 466.649,-151.256l0,4414l-1765.39,0l0,-1810.23Z"/><path id="path-11" serif:id="path-1" d="M-197.196,2694.77l0,-1814.1c50.512,-313.178 185.676,-469.767 405.49,-469.767c329.723,0 220.538,200.151 477.206,174.251c256.668,-25.9 251.662,-200.463 416.047,-342.9c109.59,-94.959 265.14,-145.377 466.649,-151.256l0,4414l-1765.39,0l0,-1810.23Z" style="fill:#242830;"/></g></g></svg>