<svg width="403" height="366" xmlns="http://www.w3.org/2000/svg"><g transform="translate(2)" fill="none" fill-rule="evenodd"><path d="M199.126 365.857c65.36.031 125.766-34.825 158.446-91.428H40.909c32.639 56.532 92.94 91.378 158.217 91.428z" fill="#FFF" fill-rule="nonzero"/><path d="M32.589 258.474c2.468 5.486 5.348 10.789 8.32 16h316.663c3.017-5.211 5.851-10.514 8.365-16H32.59z" fill="#FFF" fill-rule="nonzero"/><path d="M381.983 183v.006C382.033 82.016 300.204.109 199.215.059 98.225.01 16.318 81.84 16.269 182.827a182.856 182.856 0 0 0 16.317 75.597H365.71A182.31 182.31 0 0 0 381.983 183z" fill="#E8F4FA" fill-rule="nonzero"/><path d="M20.84 258.474h356.572m-377.143 0h11.428m374.857 0h11.429" stroke="#191816" stroke-width="4.571" stroke-linecap="round" stroke-linejoin="round"/><path d="M20.84 258.474h356.48" stroke="#191816" stroke-width="4.571" stroke-linejoin="round"/><path d="M23.126 258.474h352" stroke="#191816" stroke-width="4.571" stroke-linecap="round" stroke-linejoin="round"/><path d="M187.697 153.331c-39.115 0-70.832 31.696-70.857 70.812v34.103a5.897 5.897 0 0 1-8.869 4.571c-9.691-5.805-11.52-7.451-16.228-7.451-7.574-.092-13.788 5.973-13.881 13.546a13.717 13.717 0 0 0 6.795 12.008c9.463 5.714 15.36 10.24 26.194 10.24 18.252-.022 33.118-14.666 33.418-32.914h114.285v-34.103.003c-.023-39.115-31.738-70.813-70.854-70.815h-.003z" fill="#E8F4FA" fill-rule="nonzero"/><path d="M258.554 240.189c0-39.134-31.723-70.857-70.857-70.857-39.133 0-70.857 31.723-70.857 70.857v-16.046c0-39.133 31.724-70.857 70.857-70.857 39.134 0 70.857 31.724 70.857 70.857v16.046z" fill="#FFF" fill-rule="nonzero"/><path d="M116.84 224.143c0-39.133 31.724-70.857 70.857-70.857 39.134 0 70.857 31.724 70.857 70.857v34.286H144.27c-.276 18.32-15.233 33.012-33.555 32.96-10.834 0-16.731-4.572-26.194-10.24-6.54-3.822-8.743-12.22-4.922-18.76a13.714 13.714 0 0 1 12.008-6.795c4.571 0 6.537 1.646 16.228 7.452a5.897 5.897 0 0 0 8.869-4.572l.137-34.331z" stroke="#191816" stroke-width="4.571" stroke-linecap="round" stroke-linejoin="round"/><path d="M85.124 269.698a6.4 6.4 0 0 1-7.465-5.118L67.36 209.396a6.4 6.4 0 0 1 5.118-7.466l36.13-6.742a6.4 6.4 0 0 1 7.466 5.118l10.297 55.184a6.4 6.4 0 0 1-5.117 7.466l-36.13 6.742z" fill="#E8F4FA" fill-rule="nonzero"/><path d="M68.109 213.263a6.4 6.4 0 0 1 3.474-1.92l42.194-7.863a6.309 6.309 0 0 1 2.926 0l-.64-3.337a6.354 6.354 0 0 0-7.452-5.12l-36.114 6.72a6.4 6.4 0 0 0-5.12 7.451l.732 4.069z" fill="#FFF" fill-rule="nonzero"/><path d="M85.124 269.698a6.4 6.4 0 0 1-7.465-5.118L67.36 209.396a6.4 6.4 0 0 1 5.118-7.466l36.13-6.742a6.4 6.4 0 0 1 7.466 5.118l10.297 55.184a6.4 6.4 0 0 1-5.117 7.466l-36.13 6.742z" stroke="#191816" stroke-linecap="round" stroke-linejoin="round" stroke-width="4.571"/><path d="M100.063 222.086a5.486 5.486 0 1 1-6.4-4.572 5.486 5.486 0 0 1 6.4 4.572z" stroke="#191816" stroke-width="4.571" fill="#FFF" fill-rule="nonzero" stroke-linecap="round" stroke-linejoin="round"/><path d="M78.349 286.04a5.577 5.577 0 0 0 6.171 2.377l12.206-3.474c7.025-1.971 11.122-9.264 9.151-16.289l-.008-.031-1.783-6.354c-1.996-7.02-9.29-11.108-16.32-9.143L75.514 256.6a5.486 5.486 0 0 0-3.977 5.257 44.206 44.206 0 0 0 6.812 24.183z" stroke="#191816" stroke-width="4.571" fill="#FFCEBF" fill-rule="nonzero" stroke-linecap="round" stroke-linejoin="round"/><path d="M103.263 280.692a14.034 14.034 0 0 0-.457-2.652l-1.829-6.308c-1.915-6.989-9.133-11.101-16.12-9.186l-.154.043-13.029 3.703v-4.572a5.486 5.486 0 0 1 3.977-5.257l12.206-3.291c7.03-1.965 14.324 2.122 16.32 9.142l1.783 6.355c1.14 4.207.13 8.705-2.697 12.023z" fill="#FFDCD1" fill-rule="nonzero"/><path d="M78.349 286.04a5.577 5.577 0 0 0 6.171 2.377l12.206-3.474c7.025-1.971 11.122-9.264 9.151-16.289l-.008-.031-1.783-6.354c-1.996-7.02-9.29-11.108-16.32-9.143L75.514 256.6a5.486 5.486 0 0 0-3.977 5.257 44.846 44.846 0 0 0 1.555 12.069 43.749 43.749 0 0 0 5.257 12.114zm-2.195-75.84l6.995-1.463m88.502 88.549h-11.245a6.811 6.811 0 0 0-6.995 6.72 7.04 7.04 0 0 0 6.995 6.994h12.434a8 8 0 0 1 0 16h-65.143c-6.312 0-11.428-5.117-11.428-11.428 0-6.312 5.116-11.429 11.428-11.429 21.806 0 16.457-16.594 7.086-40.046" stroke="#191816" stroke-width="4.571" stroke-linecap="round" stroke-linejoin="round"/><path d="M187.697 153.331a70.585 70.585 0 0 0-43.246 14.72 89.782 89.782 0 0 1 6.675 28.663c0 20.572-6.857 27.429-6.857 27.429v34.286h86.857v-33.966s-6.812-7.131-6.812-27.749a89.645 89.645 0 0 1 6.629-28.708 70.494 70.494 0 0 0-43.246-14.675z" fill="#FF8A14" fill-rule="nonzero"/><path d="M187.697 169.286a70.491 70.491 0 0 1 39.04 11.703 116.939 116.939 0 0 1 4.206-12.983c-25.492-19.62-61-19.62-86.492 0a108.114 108.114 0 0 1 4.206 12.983 70.583 70.583 0 0 1 39.04-11.703z" fill="#FFAA54" fill-rule="nonzero"/><path d="M187.697 153.331a70.585 70.585 0 0 0-43.246 14.72 89.782 89.782 0 0 1 6.675 28.663c0 20.572-6.857 27.429-6.857 27.429v34.286h86.857v-33.966s-6.812-7.131-6.812-27.749a89.645 89.645 0 0 1 6.629-28.708 70.494 70.494 0 0 0-43.246-14.675z" stroke-linecap="round" stroke-linejoin="round" stroke="#191816" stroke-width="4.571"/><path d="M231.126 226.474v-9.142" stroke="#191816" stroke-width="4.571" stroke-linecap="round" stroke-linejoin="round"/><path stroke="#191816" stroke-width="4.571" fill="#FFF" fill-rule="nonzero" stroke-linecap="round" stroke-linejoin="round" d="M208.268646 164.760074L167.125776 164.760074 165.068633 175.045792 187.697211 258.382961 210.371504 175.045792 208.268646 164.760074z"/><path d="M144.269 224.189v-6.857" stroke="#191816" stroke-width="4.571" stroke-linecap="round" stroke-linejoin="round"/><path d="M171.697 139.617v19.52a9.143 9.143 0 0 0 4.069 7.635l11.931 9.417 11.932-9.417a9.143 9.143 0 0 0 4.068-7.635v-19.52h-32z" fill="#FFCEBF" fill-rule="nonzero"/><path d="M171.697 139.617v19.52a9.143 9.143 0 0 0 4.069 7.635l11.931 9.417 11.932-9.417a9.143 9.143 0 0 0 4.068-7.635v-19.52h-32z" fill="#FFCEBF" fill-rule="nonzero"/><path d="M171.697 139.617v13.257a43.931 43.931 0 0 0 32 0v-13.257h-32z" fill="#FFB59E" fill-rule="nonzero"/><path d="M171.697 139.617v19.52a9.143 9.143 0 0 0 4.069 7.635l11.931 9.417 11.932-9.417a9.143 9.143 0 0 0 4.068-7.635v-19.52h-32z" stroke-linecap="round" stroke-linejoin="round" stroke="#191816" stroke-width="4.571"/><path d="M171.697 159.137V151s-14.537 4.571-12.068 16.046a61.12 61.12 0 0 0 9.142 20.571l18.926-11.428-11.931-9.418a9.143 9.143 0 0 1-4.069-7.634zm32 0V151s14.583 4.571 12.115 16.046a62.126 62.126 0 0 1-9.098 20.526l-18.971-11.43 11.931-9.416a9.143 9.143 0 0 0 4.023-7.589z" stroke="#191816" stroke-width="4.571" fill="#FFF" fill-rule="nonzero" stroke-linecap="round" stroke-linejoin="round"/><path d="M187.697 176.189v13.714" stroke="#191816" stroke-width="4.571" stroke-linecap="round" stroke-linejoin="round"/><path d="M313.412 313.332c0 3.794-33.28 6.857-80 6.857s-70.858-3.063-70.858-6.857c0-3.795 24.183-6.903 70.858-6.903 46.674 0 80 3.108 80 6.903z" fill="#191816" fill-rule="nonzero" opacity=".15"/><path d="M171.651 297.286h132.572v2.286a9.143 9.143 0 0 1-9.143 9.142H180.794a9.143 9.143 0 0 1-9.143-9.142v-2.286z" stroke="#191816" stroke-width="4.571" fill="#8CA4B8" fill-rule="nonzero" stroke-linejoin="round"/><path d="M304.269 297.286H171.697l-6.766-60.572a9.143 9.143 0 0 1 2.24-7.177 9.144 9.144 0 0 1 6.812-3.063h128a9.144 9.144 0 0 1 9.143 10.24l-6.857 60.572z" fill="#ADC4D9" fill-rule="nonzero"/><path d="M165.891 245.583a7.771 7.771 0 0 1 1.28-2.331 9.143 9.143 0 0 1 6.812-3.063h128a9.143 9.143 0 0 1 6.857 3.063c.527.71.943 1.496 1.234 2.331l1.006-8.869a9.143 9.143 0 0 0-9.143-10.24h-128a9.143 9.143 0 0 0-6.811 3.063 9.143 9.143 0 0 0-2.24 7.177l1.005 8.869z" fill="#C0DCEB" fill-rule="nonzero"/><path d="M304.269 297.286H171.697l-6.766-60.572a9.143 9.143 0 0 1 2.24-7.177 9.144 9.144 0 0 1 6.812-3.063h128a9.144 9.144 0 0 1 9.143 10.24l-6.857 60.572z" stroke-linejoin="round" stroke="#191816" stroke-width="4.571"/><path d="M245.343 262.406a7.086 7.086 0 0 1 3.337-5.943 7.314 7.314 0 0 0-5.668-3.063c-2.423-.228-4.572 1.417-5.943 1.417-1.372 0-3.155-1.371-5.12-1.371a7.589 7.589 0 0 0-6.446 3.931 16.137 16.137 0 0 0 1.966 15.68c1.28 1.875 2.88 3.977 4.891 3.932 2.012-.046 2.743-1.28 5.12-1.28 2.377 0 3.017 1.28 5.12 1.234 2.103-.046 3.474-1.92 4.572-3.84a16.64 16.64 0 0 0 2.148-4.571 6.766 6.766 0 0 1-3.977-6.126z" stroke="#191816" stroke-width="4.571" fill="#F0F0F0" fill-rule="nonzero" stroke-linejoin="round"/><path d="M239.994 245.309l2.88-2.835" stroke="#191816" stroke-width="4.571" stroke-linecap="round" stroke-linejoin="round"/><path d="M233.412 89.331V77.857c0-25.247-20.467-45.714-45.715-45.714-25.247 0-45.714 20.467-45.714 45.714v11.429a9.143 9.143 0 1 0 0 18.285h.731c3.98 24.932 27.417 41.917 52.349 37.938 19.517-3.115 34.822-18.42 37.937-37.938h.549a9.143 9.143 0 1 0 0-18.285l-.137.045z" stroke="#191816" stroke-width="4.571" fill="#FFCEBF" fill-rule="nonzero" stroke-linecap="round" stroke-linejoin="round"/><path d="M173.937 118.086c7.69 7.29 19.74 7.29 27.429 0" stroke="#191816" stroke-width="4.571" stroke-linecap="round" stroke-linejoin="round"/><path d="M139.103 90.749c-14.644-20.35-10.018-48.717 10.332-63.36a45.395 45.395 0 0 1 26.514-8.55c12.388 0 37.12-3.016 45.394 8 36.16 8.047 23.589 69.944 19.886 66.241a8.731 8.731 0 0 0-10.103-1.509c-8.229-13.485-15.314-26.285-13.714-43.885 0 12.388-22.858 18.743-45.715 18.743a123.428 123.428 0 0 1-25.143-4.572 208.32 208.32 0 0 1 0 34.286 5.257 5.257 0 0 0-7.451-5.394z" fill="#614B44" fill-rule="nonzero"/><path d="M175.949 34.84c12.388 0 37.12-3.017 45.394 8 16.869 3.749 23.131 19.246 24.64 34.331 1.691-17.965-1.463-45.165-24.64-50.285-8.274-11.017-33.006-8-45.394-8-25.017 0-45.32 20.24-45.395 45.257.013 2.683.258 5.36.732 8 3.895-21.606 22.708-37.32 44.663-37.303z" fill="#947063" fill-rule="nonzero"/><path d="M139.103 90.749c-14.644-20.35-10.018-48.717 10.332-63.36a45.395 45.395 0 0 1 26.514-8.55c12.388 0 37.12-3.016 45.394 8 36.16 8.047 23.589 69.944 19.886 66.241a8.731 8.731 0 0 0-10.103-1.509c-8.229-13.485-15.314-26.285-13.714-43.885 0 12.388-22.858 18.743-45.715 18.743a123.428 123.428 0 0 1-25.143-4.572 208.32 208.32 0 0 1 0 34.286 5.257 5.257 0 0 0-7.451-5.394z" stroke-linecap="round" stroke-linejoin="round" stroke="#191816" stroke-width="4.571"/><path d="M224.269 108.943a5.486 5.486 0 1 1-5.486-5.486 5.531 5.531 0 0 1 5.486 5.486zm-62.126 0a5.531 5.531 0 1 1-5.486-5.486 5.531 5.531 0 0 1 5.486 5.486z" fill="#FFB59E" fill-rule="nonzero"/><path d="M219.743 93.309a7.451 7.451 0 0 0-13.714 0m-36.618 0a7.451 7.451 0 0 0-13.714 0" stroke="#191816" stroke-width="4.571" stroke-linecap="round" stroke-linejoin="round"/></g></svg>