<svg width="399" height="368" xmlns="http://www.w3.org/2000/svg"><g transform="translate(1)" fill="none" fill-rule="evenodd"><path d="M382 183.369v.017C382 82.105 300.292 0 199.5 0S17 82.105 17 183.386c0 26.078 5.535 51.856 16.235 75.614h332.477A182.76 182.76 0 0 0 382 183.369z" fill="#E8F4FA" fill-rule="nonzero"/><path d="M31 259c41.787 93.324 150.43 134.702 242.661 92.42C314.18 332.847 346.643 300 365 259H31z" fill="#FFF" fill-rule="nonzero"/><g stroke-linecap="round" stroke-linejoin="round" transform="translate(0 258)" stroke="#191816"><path d="M20.716 2H376.73M.177 2h11.41M385.86 2h11.41"/></g><path d="M193.836 282.904c32.219 2.538 32.219 6.654 0 9.192-32.218 2.539-84.454 2.539-116.672 0-32.219-2.538-32.219-6.654 0-9.192 32.218-2.539 84.454-2.539 116.672 0" fill="#191816" fill-rule="nonzero" opacity=".15"/><path d="M152.822 271H163l-21.68-68.79c-.637-1.994-2.507-3.307-4.565-3.204H130L152.822 271z" stroke="#191816" fill="#E8F4FA" fill-rule="nonzero" stroke-linejoin="round"/><path d="M62.796 271h89.905l-23.076-72.005H46.043c-2.546-.127-4.712 1.847-4.839 4.41a4.674 4.674 0 0 0 .224 1.676L62.796 271z" fill="#ADC4D9" fill-rule="nonzero"/><g transform="translate(41 199)" fill="#C0DCEB" fill-rule="nonzero"><path d="M88.151.967H4.999C2.466.842.31 2.78.185 5.294A4.53 4.53 0 0 0 .407 6.94l2.755 8.48h89.58L88.152.967z"/><path d="M21.666 71.635H115.7v11.398H30.85c-5.072 0-9.183-4.083-9.183-9.119v-2.28z" stroke="#191816" stroke-linejoin="round"/></g><path d="M156 272h40.737c1.25 0 2.263 1.075 2.263 2.4 0 5.302-4.053 9.6-9.053 9.6H156v-12z" stroke="#191816" fill="#E8F4FA" fill-rule="nonzero" stroke-linejoin="round"/><g stroke-linejoin="round" transform="translate(41 198)" stroke="#191816"><path d="M60.287 34.443a5.164 5.164 0 0 1 2.446-4.367 5.206 5.206 0 0 0-4.153-2.23c-1.754 0-3.462 1.022-4.339 1.022-.876 0-2.261-1.022-3.738-.975a5.534 5.534 0 0 0-4.615 2.833 12.052 12.052 0 0 0 1.2 11.521c.969 1.394 2.123 2.927 3.6 2.88 1.477-.046 1.984-.929 3.692-.929 1.708 0 2.215.93 3.738.883 1.523-.047 2.539-1.394 3.508-2.787a15.047 15.047 0 0 0 1.569-3.252 4.926 4.926 0 0 1-2.908-4.6z" fill="#F0F0F0" fill-rule="nonzero"/><path d="M56.41 21.9l2.077-2.09" stroke-linecap="round"/><path d="M21.796 73h89.905L88.625.995H5.043C2.497.868.33 2.842.204 5.405A4.674 4.674 0 0 0 .428 7.08L21.796 73z"/></g><path d="M373.951 267.061c-.147-3.668-3.146-6.564-6.794-6.561h-34.292c-7.354 0-13.316-5.998-13.316-13.398v-21.014c0-39.277-31.645-71.117-70.68-71.117-39.037 0-70.682 31.84-70.682 71.117V260.5h116.282c4.089 11.826 13.327 21.121 25.08 25.235a39.998 39.998 0 0 0 13.316 2.294h20.748a8.253 8.253 0 0 0 3.375.505l10.214-.505h.912c3.761-.173 6.676-3.372 6.521-7.157l-.684-13.81z" fill="#656769" fill-rule="nonzero"/><path d="M248.5 173.085c38.936 0 70.5 31.75 70.5 70.915v-20.085C319 184.75 287.436 153 248.5 153S178 184.75 178 223.915V244c0-39.165 31.564-70.915 70.5-70.915z" fill="#87898C" fill-rule="nonzero"/><path d="M373.951 267.061c-.147-3.668-3.146-6.564-6.794-6.561h-34.292c-7.354 0-13.316-5.998-13.316-13.398v-21.014c0-39.277-31.645-71.117-70.68-71.117-39.037 0-70.682 31.84-70.682 71.117V260.5h116.282c4.089 11.826 13.327 21.121 25.08 25.235a39.998 39.998 0 0 0 13.316 2.294h20.748a8.253 8.253 0 0 0 3.375.505l10.214-.505h.912c3.761-.173 6.676-3.372 6.521-7.157l-.684-13.81z" stroke-linecap="round" stroke-linejoin="round" stroke="#191816"/><g stroke-linecap="round" stroke-linejoin="round" transform="translate(213 155)" stroke="#191816"><path d="M72.404 10.196a63.945 63.945 0 0 1-8.019 17.132 83.816 83.816 0 0 1-15.227 17.725C43.843 49.622 36.274 58.12 36.274 68.49c0-10.278-7.478-18.684-12.794-23.39a85.222 85.222 0 0 1-15.497-18A63.258 63.258 0 0 1 .235 10.517v-.32a68.908 68.908 0 0 1 72.079 0h.09z" fill="#FF6242" fill-rule="nonzero"/><path d="M79.071 63.921v27.776a41.083 41.083 0 0 0 2.252 13.385M36.274 68.489v36.548"/></g><path d="M371.945 292.904c10.74 2.538 10.74 6.654 0 9.192-10.739 2.539-28.151 2.539-38.89 0-10.74-2.538-10.74-6.654 0-9.192 10.739-2.539 28.151-2.539 38.89 0" fill="#191816" fill-rule="nonzero" opacity=".15"/><g stroke-linecap="round" stroke-linejoin="round" transform="translate(330 220)" fill-rule="nonzero" stroke="#191816"><path d="M32.102 74h-18.77c-2.358.008-4.324-1.846-4.513-4.255L4.668 18.5h36.098l-4.151 51.245c-.189 2.409-2.155 4.263-4.513 4.255z" fill="#FFFCE5"/><path d="M43.022 18.5H2.412c-1.246 0-2.256-1.035-2.256-2.313v-2.312c0-2.554 2.02-4.625 4.512-4.625h36.098c2.492 0 4.512 2.07 4.512 4.625v2.313c0 1.277-1.01 2.312-2.256 2.312zm-2.256-9.25H4.668l3.249-6.706C8.689.974 10.262-.012 11.977 0h21.479c1.715-.012 3.29.974 4.061 2.544l3.249 6.706z" fill="#FFFCE5"/><path d="M29.098 35.084c3.524 3.613 3.524 9.47 0 13.082a8.87 8.87 0 0 1-12.762 0c-3.525-3.613-3.525-9.47 0-13.082a8.87 8.87 0 0 1 12.762 0" fill="#00DBA8"/></g><path d="M356.542 259.484l10.603-.542c3.611-.179 6.678 2.708 6.85 6.448l.001.014.611 13.559c.173 3.715-2.595 6.87-6.182 7.05h-.014l-10.647.543c-4.308.196-8.11-2.895-8.946-7.277-.69-3.95-.88-7.976-.567-11.976.568-4.344 4.062-7.64 8.29-7.82z" fill="#FFCEBF" fill-rule="nonzero"/><path d="M368.74 267.075l-11.637.568c-4.263.103-7.904 3.082-8.816 7.213a45.432 45.432 0 0 1 0-7.738c.514-4.253 4.06-7.51 8.375-7.693l10.712-.525c3.648-.173 6.746 2.62 6.92 6.237v3.904a7.443 7.443 0 0 0-5.554-1.966z" fill="#FFDCD1" fill-rule="nonzero"/><path d="M356.542 259.484l10.603-.542c3.611-.179 6.678 2.708 6.85 6.448l.001.014.611 13.559c.173 3.715-2.595 6.87-6.182 7.05h-.014l-10.647.543c-4.308.196-8.11-2.895-8.946-7.277-.69-3.95-.88-7.976-.567-11.976.568-4.344 4.062-7.64 8.29-7.82z" stroke-linecap="round" stroke-linejoin="round" stroke="#191816"/><path d="M356.542 259.484l10.603-.542c3.611-.179 6.678 2.708 6.85 6.448l.001.014.611 13.559c.173 3.715-2.595 6.87-6.182 7.05h-.014l-10.647.543c-4.308.196-8.11-2.895-8.946-7.277-.69-3.95-.88-7.976-.567-11.976.568-4.344 4.062-7.64 8.29-7.82z" fill="#FFCEBF" fill-rule="nonzero"/><path d="M368.74 267.075l-11.637.568c-4.263.103-7.904 3.082-8.816 7.213a45.432 45.432 0 0 1 0-7.738c.514-4.253 4.06-7.51 8.375-7.693l10.712-.525c3.648-.173 6.746 2.62 6.92 6.237v3.904a7.443 7.443 0 0 0-5.554-1.966z" fill="#FFDCD1" fill-rule="nonzero"/><g stroke-linecap="round" stroke-linejoin="round" transform="translate(194 23)" stroke="#191816"><path d="M162.614 237.03l11.137-.552c3.792-.181 7.013 2.752 7.194 6.552v.015l.643 13.775c.18 3.774-2.726 6.981-6.493 7.163h-.015l-11.183.551a9.17 9.17 0 0 1-9.395-7.393 47.11 47.11 0 0 1-.596-12.168 9.173 9.173 0 0 1 8.708-7.944zm4.904-74.02s-6.875 3.351-2.292 11.8a11.59 11.59 0 0 1 0 13.454m-14.482-41.326s-6.874 3.352-2.291 11.8a11.59 11.59 0 0 1 0 13.455M11.697 236.478v-41.326"/><path d="M10.139 145.423l.733 1.102c25.902-20.885 62.824-20.885 88.726 0l.733-1.102.275-.46a67 67 0 0 0 9.625-34.484V55.102C110.23 24.67 85.608 0 55.235 0S.239 24.67.239 55.102v55.377a67 67 0 0 0 9.625 34.485l.275.459z" fill="#656769" fill-rule="nonzero"/></g><path d="M265 165.4a22.693 22.693 0 0 1-32 0V140h32v25.4z" fill="#FFCEBF" fill-rule="nonzero"/><path d="M233 157.583a54.16 54.16 0 0 0 32 0V141h-32v16.583z" fill="#FFB59E" fill-rule="nonzero"/><path d="M265 140v25.4a22.693 22.693 0 0 1-32 0V140h32z" stroke="#191816" stroke-linecap="round" stroke-linejoin="round"/><path d="M295.41 91.013v-11.41c0-25.206-20.588-45.64-45.985-45.64s-45.986 20.434-45.986 45.64v11.41c-5.08 0-9.197 4.087-9.197 9.128 0 5.042 4.118 9.128 9.197 9.128h.552c3.923 24.904 27.444 41.937 52.536 38.043 19.75-3.064 35.244-18.44 38.332-38.043h.551c5.08 0 9.198-4.086 9.198-9.128 0-5.04-4.118-9.128-9.198-9.128z" fill="#FFCEBF" fill-rule="nonzero"/><path d="M295.41 91.013v-11.41c0-25.206-20.588-45.64-45.985-45.64s-45.986 20.434-45.986 45.64v11.41c-5.08 0-9.197 4.087-9.197 9.128 0 5.042 4.118 9.128 9.197 9.128h.552c3.923 24.904 27.444 41.937 52.536 38.043 19.75-3.064 35.244-18.44 38.332-38.043h.551c5.08 0 9.198-4.086 9.198-9.128 0-5.04-4.118-9.128-9.198-9.128z" stroke-linecap="round" stroke-linejoin="round" stroke="#191816"/><g transform="translate(216 106)" fill="#FFB59E" fill-rule="nonzero"><path d="M9.895 1.627a5.483 5.483 0 0 1 0 7.857c-2.21 2.17-5.794 2.17-8.004 0a5.483 5.483 0 0 1 0-7.857c2.21-2.17 5.794-2.17 8.004 0m52.071 0a5.483 5.483 0 0 1 0 7.857c-2.21 2.17-5.794 2.17-8.004 0a5.483 5.483 0 0 1 0-7.857c2.21-2.17 5.794-2.17 8.004 0"/></g><path d="M234 123c7.587 6.667 19.413 6.667 27 0" stroke="#191816" stroke-linecap="round" stroke-linejoin="round"/><g stroke-linecap="round" stroke-linejoin="round" transform="translate(224 92)" stroke="#191816"><path d="M50.272 4.375C48.668.751 44.312-.938 40.54.603c-1.767.722-3.173 2.074-3.925 3.772m-22.804 0C12.21.751 7.852-.938 4.082.603 2.314 1.325.907 2.677.156 4.375"/></g><path d="M288.426 44.344a5.058 5.058 0 0 1-1.613-2.898 12.408 12.408 0 0 0-1.613-4.002A55.339 55.339 0 0 0 249.86 23h-3.916a55.339 55.339 0 0 0-35.34 14.398 13.373 13.373 0 0 0-1.567 4.002 5.058 5.058 0 0 1-1.612 2.898 30.109 30.109 0 0 0-10.183 22.54V87.4c0 2.54 2.063 4.6 4.607 4.6a4.604 4.604 0 0 0 4.608-4.6c.032-11.735 6.958-22.359 17.693-27.14l3.04-.322s9.216 0 11.52 6.9a8.268 8.268 0 0 1-.369 6.9 2.298 2.298 0 0 0 1.567 3.496 12.59 12.59 0 0 0 10.32-3.634 11.309 11.309 0 0 0 4.286-9.2h.322a44.199 44.199 0 0 0 16.864-4.278c10.78 4.801 17.715 15.493 17.693 27.278 0 2.54 2.063 4.6 4.608 4.6a4.604 4.604 0 0 0 4.607-4.6V66.884v.001a30.109 30.109 0 0 0-10.181-22.54l-.001-.001z" fill="#947063" fill-rule="nonzero"/><g stroke-linecap="round" stroke-linejoin="round" transform="translate(197 23)" stroke="#191816"><path d="M57.514 41.4c0-3.818-2.35-6.9-4.285-6.9m38.197-13.156a5.058 5.058 0 0 1-1.613-2.898 12.408 12.408 0 0 0-1.613-4.002A55.339 55.339 0 0 0 52.86 0h-3.916a55.339 55.339 0 0 0-35.34 14.398 13.373 13.373 0 0 0-1.567 4.002 5.058 5.058 0 0 1-1.612 2.898A30.109 30.109 0 0 0 .242 43.838V64.4c0 2.54 2.063 4.6 4.607 4.6a4.604 4.604 0 0 0 4.608-4.6c.032-11.735 6.958-22.359 17.693-27.14l3.04-.322s9.216 0 11.52 6.9a8.268 8.268 0 0 1-.369 6.9 2.298 2.298 0 0 0 1.567 3.496 12.59 12.59 0 0 0 10.32-3.634 11.309 11.309 0 0 0 4.286-9.2h.322A44.199 44.199 0 0 0 74.7 37.122C85.48 41.923 92.415 52.615 92.393 64.4c0 2.54 2.063 4.6 4.608 4.6a4.604 4.604 0 0 0 4.607-4.6V43.884v.001a30.109 30.109 0 0 0-10.181-22.54l-.001-.001z"/></g><path d="M249.425 22c-30.477 0-55.183 24.696-55.183 55.161v55.437a66.955 66.955 0 0 0 9.657 34.522l.276.46a79.542 79.542 0 0 0 26.396 25.282 86.982 86.982 0 0 1-10.025-12.55 63.24 63.24 0 0 1-7.91-16.685c-4.966-13.515-.781-48.634 0-70.377.506-14.526 4.6-43.669 36.79-43.669s36.282 29.143 36.788 43.67c.736 21.742 4.966 56.861 0 70.376a63.24 63.24 0 0 1-7.91 16.686 86.976 86.976 0 0 1-10.025 12.549 79.955 79.955 0 0 0 26.396-25.282l.276-.46a66.955 66.955 0 0 0 9.657-34.522V77.161c0-30.465-24.706-55.161-55.183-55.161z" fill="#656769" fill-rule="nonzero"/><path d="M248 24c-30.376 0-55 24.438-55 54.583V90c0-30.145 24.624-54.583 55-54.583S303 59.855 303 90V78.583C303 48.438 278.376 24 248 24z" fill="#87898C" fill-rule="nonzero"/><path d="M249.425 22c-30.477 0-55.183 24.696-55.183 55.161v55.437a66.955 66.955 0 0 0 9.657 34.522l.276.46a79.542 79.542 0 0 0 26.396 25.282 86.982 86.982 0 0 1-10.025-12.55 63.24 63.24 0 0 1-7.91-16.685c-4.966-13.515-.781-48.634 0-70.377.506-14.526 4.6-43.669 36.79-43.669s36.282 29.143 36.788 43.67c.736 21.742 4.966 56.861 0 70.376a63.24 63.24 0 0 1-7.91 16.686 86.976 86.976 0 0 1-10.025 12.549 79.955 79.955 0 0 0 26.396-25.282l.276-.46a66.955 66.955 0 0 0 9.657-34.522V77.161c0-30.465-24.706-55.161-55.183-55.161z" stroke-linecap="round" stroke-linejoin="round" stroke="#191816"/></g></svg>