<svg height="260pt" preserveAspectRatio="xMidYMid meet" viewBox="0 0 260 260" width="260pt" xmlns="http://www.w3.org/2000/svg"><path d="m0 1300v-1300h1300 1300v1300 1300h-1300-1300zm665 207 88-78 31 28c17 16 57 53 89 82 45 41 61 51 70 42s-10-33-83-101c-52-49-100-89-105-90-8 0-132 106-199 170-10 10 2 33 14 28 5-2 48-38 95-81zm705 68c0-12-16-15-80-15h-80v-265c0-229-2-265-15-265s-15 36-15 265v265h-85c-69 0-85 3-85 15 0 13 27 15 180 15s180-2 180-15zm142-135 3-150 110 90c61 49 112 90 116 90 3 0 54-41 115-90l109-90 3 150c2 124 5 150 17 150 13 0 15-29 15-187 0-176-1-185-17-171-10 8-69 56-130 107l-113 92-112-93c-62-51-121-99-131-107-16-13-17-3-17 173 0 157 2 186 15 186 12 0 15-26 17-150zm326-267c52-43 103-85 115-94 13-11 18-23 14-34-6-14-25-1-111 69-58 47-109 86-115 86s-57-38-113-84c-96-80-119-92-118-63 1 10 216 195 229 197 2 0 47-35 99-77zm-1068-39c0-95-2-105-17-102s-18 17-21 92c-3 99 0 116 23 116 12 0 15-17 15-106z" transform="matrix(.1 0 0 -.1 0 260)"/></svg>