<?xml version="1.0" standalone="no"?>
<!DOCTYPE svg PUBLIC "-//W3C//DTD SVG 20010904//EN"
 "http://www.w3.org/TR/2001/REC-SVG-20010904/DTD/svg10.dtd">
<svg version="1.0" xmlns="http://www.w3.org/2000/svg"
 width="260.000000pt" height="260.000000pt" viewBox="0 0 260.000000 260.000000"
 preserveAspectRatio="xMidYMid meet">
<metadata>
Created by potrace 1.11, written by Peter Selinger 2001-2013
</metadata>
<g transform="translate(0.000000,260.000000) scale(0.100000,-0.100000)"
fill="#000000" stroke="none">
<path d="M0 1300 l0 -1300 1300 0 1300 0 0 1300 0 1300 -1300 0 -1300 0 0
-1300z m665 207 l88 -78 31 28 c17 16 57 53 89 82 45 41 61 51 70 42 9 -9 -10
-33 -83 -101 -52 -49 -100 -89 -105 -90 -8 0 -132 106 -199 170 -10 10 2 33
14 28 5 -2 48 -38 95 -81z m705 68 c0 -12 -16 -15 -80 -15 l-80 0 0 -265 c0
-229 -2 -265 -15 -265 -13 0 -15 36 -15 265 l0 265 -85 0 c-69 0 -85 3 -85 15
0 13 27 15 180 15 153 0 180 -2 180 -15z m142 -135 l3 -150 110 90 c61 49 112
90 116 90 3 0 54 -41 115 -90 l109 -90 3 150 c2 124 5 150 17 150 13 0 15 -29
15 -187 0 -176 -1 -185 -17 -171 -10 8 -69 56 -130 107 l-113 92 -112 -93
c-62 -51 -121 -99 -131 -107 -16 -13 -17 -3 -17 173 0 157 2 186 15 186 12 0
15 -26 17 -150z m326 -267 c52 -43 103 -85 115 -94 13 -11 18 -23 14 -34 -6
-14 -25 -1 -111 69 -58 47 -109 86 -115 86 -6 0 -57 -38 -113 -84 -96 -80
-119 -92 -118 -63 1 10 216 195 229 197 2 0 47 -35 99 -77z m-1068 -39 c0 -95
-2 -105 -17 -102 -15 3 -18 17 -21 92 -3 99 0 116 23 116 12 0 15 -17 15 -106z"/>
</g>
</svg>
