<svg clip-rule="evenodd" fill-rule="evenodd" stroke-linecap="round" stroke-linejoin="round" viewBox="0 0 100 100" xmlns="http://www.w3.org/2000/svg"><g fill="none" stroke="#2f3541" transform="scale(4.16667)"><path d="m14.49 5.326c-1.012.674-1.546 1.894-.111 2.939.071.051.128.12.164.2.873 2.005 2.431 1.429 3.361.449.938-1.354 1.285-3.031.962-4.646-.059-.27-.325-.441-.595-.382-.05.011-.098.029-.143.055-1.307.759-2.495.623-3.638 1.385z"/><path d="m11.2 3.041c1 1.177 1.539 2.716-.714 3.778-.103.049-.186.131-.236.234-1.116 2.29-2.764 1.379-3.868.078-1.018-1.194-1.47-4.185-.834-6.144.084-.263.366-.408.629-.323.043.014.085.034.123.059 1.733 1.137 3.729.944 4.9 2.318z"/><path d="m16.644 7.014c-2.643.345-4.28 4.345-4.28 4.345-.834-3.145-2.551-5.986-4.948-8.186"/><path d="m17.5 20.51-3.93.79"/><path d="m14 16.859-1.853.761c-.613.251-1.314-.042-1.565-.655-.24-.585.015-1.255.582-1.533l1.853-.9c.408-.204.881-.231 1.309-.075l3.382 1.294"/><path d="m6.5 21.359h1.4l2.329 1.771c.244.274.66.306.944.074l3.5-2.807c.285-.237.33-.658.1-.949l-1.92-2.118"/><path d="m11.011 15.534-.25-.206c-.409-.3-.944-.368-1.415-.18l-2.846 1.211"/><path d="m3.5 21.859c0 .276.224.5.5.5h1.5c.552 0 1-.448 1-1v-5c0-.552-.448-1-1-1h-1.5c-.276 0-.5.224-.5.5z"/><path d="m20.5 21.859c0 .276-.224.5-.5.5h-1.5c-.552 0-1-.448-1-1v-5c0-.552.448-1 1-1h1.5c.276 0 .5.224.5.5z"/><path d="m.5 13.707c7.347-3.131 15.653-3.131 23 0"/></g></svg>