<svg viewBox="0 0 512 512" xmlns="http://www.w3.org/2000/svg"><path d="M256 7.9C119 7.9 7.9 119 7.9 256S119 504.1 256 504.1 504.1 393 504.1 256 393 7.9 256 7.9z" fill="#334D5C"/><path fill="#CCCCC2" d="M184.7 327.7C178.3 310.8 144 313 144 313s-16-4-14 5.3 11.5 2.7 9.3 9.3c-2.2 6.6-5.8 3.8-10 5.3s-9.8-1-10.7 4c-.9 5-8.2 6.5-8 14 .2 7.5 19.8 20 28.7 29.3 8.9 9.3 32.7 11.2 40.7 7.3 8-3.9 11-43 4.7-59.8z"/><path d="M256 73.4C155.2 73.4 73.4 155.1 73.4 256c0 100.8 81.8 182.6 182.6 182.6S438.6 356.8 438.6 256c0-100.9-81.8-182.6-182.6-182.6z" fill="#D5D6C9"/><path fill="#D8D8D6" d="M251.5 103.9c-83.2 0-150.6 67.4-150.6 150.6 0 83.2 67.4 150.6 150.6 150.6 83.2 0 150.6-67.4 150.6-150.6 0-83.2-67.4-150.6-150.6-150.6z"/><path d="M245.5 137.9c-59.4 0-107.6 48.2-107.6 107.6 0 59.4 48.2 107.6 107.6 107.6 59.4 0 107.6-48.2 107.6-107.6 0-59.4-48.2-107.6-107.6-107.6z" fill="#DDD"/><path fill="#E2E2E2" d="M267.33 205.67c17.027 17.027 17.027 44.633 0 61.66-17.027 17.027-44.633 17.027-61.66 0-17.027-17.027-17.027-44.633 0-61.66 17.027-17.027 44.633-17.027 61.66 0"/><path opacity=".5" d="M312 360s-2-7-5-8-15 1.5-18-6 5-5 5-11-7.5-14-15-17-9.5-10-21-10-12 25-12 25-16-2-22 4-4 20-4 20-1.5 9.5 0 16 11.5 11.5 15 13 10.5 4.5 15 7 7.5 10 13 1 13-8.5 20-11-11.5-14-2-16 13 5.5 23 6 8-13 8-13z" fill="#CCCCC2"/><path fill="#D5D6C9" d="M388 345s3.8 18.2 5.9 30.7c8.3-9.5 15.5-19.9 21.7-30.9-13.5.5-27.6.2-27.6.2z"/><g fill="#CCCCC2"><path opacity=".5" d="M241 192c-13-16-89-9-95-19s1.7-7.7-10.7-13.3C122.9 154.1 116 149 116 149l-10.9 4.1c-6.9 10.1-12.8 20.8-17.5 32.2 0 0 9.4 0 12.4 6.4s14.3 47.3 22.7 53.3c8.4 6 20.3-8 32.3-10 12-2 30-6 47-10s52-17 39-33zm49.3-78.3c-6.3-8.7-3.2-29.2-10-30.7s-18.8 4.7-29.3 3.3c-10.5-1.4-37.3-4-37.3-4l-10.9-1c-5.4 1.6-10.6 3.5-15.8 5.6 0 0 4.4 32.8 6.7 37.4 2.3 4.6 22 4 22 4s26.3-3.8 31.3-5.3 33.7 17.8 43.3 12.7c9.6-5.1 6.4-13.4 0-22zm131.2 65.1s-13-13.7-25.5-12.5c-12.5 1.2-17 11-30 13.3-13 2.3-38.2-7.3-47.3-6-9.1 1.3-12.8 12.2-8 20 4.8 7.8 41.8 28.2 53.3 28 11.5-.2 18.5-25.2 26-22.7s45.7 24.4 45.7 24.4c-2.8-15.5-7.6-30.5-14.2-44.5zM414 313c-6-3.5-23.5-4-25-10s19.5-5 16-12-17.5-4.5-27-6-16.5 2-21 5-26 30-25 36 13 8 14 17 10 11 13 19-.5 14 0 20 5 13 11 14c.8.1 1.9.1 3.2 0 7.4-6.2 14.3-13 20.7-20.3-2-12.5-10.9-23.7-5.9-30.7s14.1.3 27.6-.2c3.8-6.8 7.1-13.8 10-21.1-1.6-10.2-5.6-7.2-11.6-10.7z"/></g><path fill="#C1C1C1" d="M333.48 332.62c14.293 14.293 14.293 37.467 0 51.76s-37.467 14.293-51.76 0-14.293-37.467 0-51.76 37.467-14.293 51.76 0"/><g fill="#D3D3D3"><path d="M330.652 334.448c12.731 12.731 12.731 33.372 0 46.103-12.731 12.732-33.372 12.732-46.103 0-12.732-12.73-12.732-33.372 0-46.103 12.73-12.731 33.372-12.731 46.103 0"/><path d="M329.5 375.8c-2.4-2.4-6.2-2.5-8.5-.3s-2.2 6.1.3 8.5c2.4 2.4 6.9 1 8.5.3 1-.5 2.2-6.1-.3-8.5z"/><path d="M318.967 376.488c3.314.11 6.09 2.886 6.2 6.2.11 3.313-2.486 5.91-5.8 5.8-3.314-.11-6.09-2.887-6.2-6.2-.11-3.314 2.486-5.91 5.8-5.8"/><path d="M317.2 380.5c-2.4-2.4-6.2-2.5-8.5-.3s-2.2 6.1.3 8.5c2.4 2.4 5.9 4.3 8.5.3 1.7-2.7 2.1-6-.3-8.5z"/><path d="M309 380.8c-2.4-2.4-6.2-2.5-8.5-.3s-2.2 6.1.3 8.5c2.4 2.4 3.8 5.3 8.5.3 2.2-2.3 2.2-6.1-.3-8.5z"/><path d="M296.1 382.1c-3.5-1.2-6.9-.7-7.5 1.1 0 0 2.3 5.3 3.3 5.8 3.3 1.7 8.8.6 9.4-1.3.6-1.8-1.7-4.3-5.2-5.6z"/><path d="M289.3 377.4c-3.5-2.7-7.3-3.5-8.5-2 0 0 1.1 6.1 2.1 7 3.2 3 9.4 4.1 10.6 2.6 1.2-1.5-.7-5-4.2-7.6z"/><path d="M282.4 369.7c-1.2-3.5-3.7-5.9-5.6-5.2-1.9.6-1.7 6.4-1.2 7.5.4 1 3.7 5.9 5.6 5.2 1.9-.6 2.4-3.9 1.2-7.5zm-1.3-29.7c-1.9-.6-5.1 4.2-5.5 5.3-.7 1.9-.6 6.9 1.3 7.5 1.9.6 4.3-1.8 5.5-5.3 1.1-3.6.6-6.9-1.3-7.5z"/><path d="M280.905 336.684c2.142-2.057 4.311-1.357 4.845 1.565.534 2.922-.77 6.959-2.912 9.017-2.142 2.057-4.31 1.357-4.844-1.565-.534-2.922.77-6.959 2.911-9.017"/><path d="M278.3 350.8c-2-.1-4.1 2.8-4 6.5.1 1.9 1.2 6.8 3.1 7 2 .1 3.7-2.8 4-6.5.3-3.8-1.1-6.9-3.1-7zm60 9.5c-1.9-.6-4.3 1.8-5.5 5.3-1.1 3.5-.6 6.9 1.3 7.5 1.9.6 3.4-2.2 5.5-5.3.8-1.1.6-6.9-1.3-7.5z"/><path d="M331.81 368.042c2.142-2.058 4.311-1.357 4.845 1.565.534 2.922-.77 6.959-2.912 9.016-2.142 2.058-4.31 1.358-4.845-1.564-.533-2.922.77-6.959 2.912-9.017"/><path d="M340.9 356.3c-.5-3.7-2.9-6.3-4.9-5.9-1.9.4-2.9 3.7-2.1 7.3.8 3.6 2.9 6.3 4.9 5.9 1.9-.4 2.3-5.9 2.1-7.3zm-6.8-19.8c-.2-1.2-3.3-3-4.1-3-2-.1-2.9 3.7-2.1 7.3.8 3.6 2.9 6.3 4.9 5.9 1.8-.4 1.9-6.3 1.3-10.2z"/><path d="M339.9 347.8c-.3-1.4-2.9-6.3-4.9-5.9-1.9.4-2.9 3.7-2.1 7.3.8 3.6 2.9 6.3 4.9 5.9 2-.4 2.4-6.1 2.1-7.3zm-14.7-19.4c-3.5-1.2-9.1-1.7-9.7.2-.6 1.9 1.7 4.4 5.2 5.6 3.5 1.2 6.9.7 7.5-1.1.7-2-3-4.7-3-4.7z"/><path d="M314.9 324s-5.9-1-6.5.8c-.6 1.9 1.4 5.3 4.9 6.5 3.5 1.2 6.9.7 7.5-1.1.7-1.8-2.4-4.9-5.9-6.2zm-18.4 5.2c-.9-1.7-6.3-.5-7.6 0-3.4 1.5-5.2 4.6-4.3 6.3.9 1.7 4.3 1.7 7.6 0 3.4-1.7 5.3-4.5 4.3-6.3z"/><path d="M307.3 326.3c-.5-1.9-6.1-1.9-7.5-1.6-2.7.5-6.1 3.4-5.5 5.3.5 1.9 3.9 2.6 7.5 1.6 3.5-1.1 6-3.5 5.5-5.3z"/></g><path fill="#CCCCC2" d="M329.379 335.721c12.028 12.028 12.028 31.53 0 43.558-12.028 12.028-31.53 12.028-43.558 0-12.028-12.028-12.028-31.53 0-43.558 12.028-12.028 31.53-12.028 43.558 0"/><path d="M307.6 326.8c-17 0-30.8 13.8-30.8 30.8 0 1 6-24.9 30-24.9s31.6 26.1 31.6 24.9c-.1-17.1-13.8-30.8-30.8-30.8z" fill="#BFBFBA"/><path fill="#C1C1C1" d="M268.39 245.51c9.88 9.88 9.88 25.9 0 35.78-9.88 9.88-25.9 9.88-35.78 0-9.88-9.88-9.88-25.9 0-35.78 9.88-9.88 25.9-9.88 35.78 0"/><g fill="#D3D3D3"><path d="M266.41 246.79c8.787 8.787 8.787 23.033 0 31.82-8.787 8.787-23.033 8.787-31.82 0-8.787-8.787-8.787-23.033 0-31.82 8.787-8.787 23.033-8.787 31.82 0"/><path d="M265.7 275.3c-1.7-1.7-4.3-1.8-5.9-.2-1.6 1.6-1.5 4.2.2 5.9 1.7 1.7 4.8.7 5.9.2.6-.3 1.4-4.2-.2-5.9z"/><path d="M258.352 275.865c2.292.083 4.217 2.008 4.3 4.3.083 2.292-1.708 4.082-4 4-2.292-.083-4.217-2.008-4.3-4.3-.083-2.292 1.708-4.083 4-4"/><path d="M257.1 278.6c-1.7-1.7-4.3-1.8-5.9-.2-1.6 1.6-1.5 4.2.2 5.9 1.7 1.7 4.1 2.9 5.9.2 1.2-1.9 1.5-4.2-.2-5.9z"/><path d="M251.5 278.8c-1.7-1.7-4.3-1.8-5.9-.2-1.6 1.6-1.5 4.2.2 5.9 1.7 1.7 2.6 3.6 5.9.2 1.5-1.7 1.5-4.2-.2-5.9z"/><path d="M242.5 279.7c-2.4-.9-4.8-.5-5.2.8 0 0 1.6 3.6 2.3 4 2.3 1.2 6.1.4 6.5-.9.5-1.3-1.1-3-3.6-3.9z"/><path d="M237.9 276.4c-2.4-1.8-5.1-2.4-5.9-1.4 0 0 .8 4.2 1.5 4.9 2.2 2.1 6.5 2.9 7.3 1.8.8-1.1-.5-3.4-2.9-5.3z"/><path d="M233.1 271.2c-.8-2.4-2.6-4.1-3.8-3.6-1.3.4-1.1 4.4-.8 5.2.3.7 2.5 4.1 3.8 3.6 1.3-.5 1.6-2.8.8-5.2zm-.9-20.6c-1.3-.4-3.5 2.9-3.8 3.7-.5 1.3-.4 4.8.9 5.2 1.3.4 3-1.2 3.8-3.7.8-2.5.4-4.8-.9-5.2z"/><path d="M232.092 248.265c1.494-1.447 3-.96 3.365 1.086.365 2.047-.55 4.879-2.043 6.325-1.493 1.447-3 .96-3.364-1.086-.365-2.047.55-4.879 2.042-6.325"/><path d="M230.3 258.1c-1.4-.1-2.8 1.9-2.7 4.5 0 1.3.8 4.7 2.2 4.8 1.4.1 2.6-1.9 2.7-4.5.1-2.6-.9-4.8-2.2-4.8zm41.4 6.6c-1.3-.4-3 1.2-3.8 3.7-.8 2.5-.4 4.8.9 5.2 1.3.4 2.4-1.5 3.8-3.7.6-.8.4-4.8-.9-5.2z"/><path d="M267.264 269.974c1.494-1.446 3-.96 3.365 1.087.365 2.047-.55 4.879-2.043 6.325-1.494 1.447-3 .96-3.365-1.087-.365-2.047.55-4.878 2.043-6.325"/><path d="M273.5 261.9c-.3-2.6-2-4.3-3.4-4.1-1.3.3-2 2.5-1.4 5.1.5 2.5 2 4.3 3.4 4.1 1.3-.3 1.5-4.1 1.4-5.1zm-4.7-13.7c-.1-.8-2.3-2.1-2.8-2.1-1.4-.1-2 2.5-1.4 5.1.5 2.5 2 4.3 3.4 4.1 1.2-.3 1.2-4.4.8-7.1z"/><path d="M272.8 256c-.2-.9-2-4.3-3.4-4.1-1.3.3-2 2.5-1.5 5.1.5 2.5 2 4.3 3.4 4.1 1.4-.3 1.7-4.2 1.5-5.1zm-10.1-13.4c-2.4-.9-6.3-1.2-6.7.1-.4 1.3 1.2 3 3.6 3.9 2.4.8 4.8.5 5.2-.8.4-1.3-2.1-3.2-2.1-3.2z"/><path d="M255.5 239.6s-4-.7-4.5.6c-.4 1.3 1 3.6 3.4 4.5 2.4.8 4.8.5 5.2-.8.5-1.3-1.6-3.4-4.1-4.3zm-12.6 3.6c-.6-1.2-4.4-.4-5.3 0-2.4 1-3.6 3.2-3 4.4.6 1.2 3 1.2 5.3 0s3.6-3.2 3-4.4z"/><path d="M250.3 241.1c-.4-1.3-4.2-1.3-5.2-1.1-1.9.4-4.2 2.3-3.8 3.6.4 1.3 2.7 1.8 5.2 1.1 2.4-.6 4.1-2.3 3.8-3.6z"/></g><path fill="#E2E2E2" d="M265.561 247.639c8.318 8.318 8.318 21.805 0 30.123-8.318 8.318-21.805 8.318-30.123 0-8.318-8.318-8.318-21.805 0-30.123 8.318-8.318 21.805-8.318 30.123 0"/><path d="M250.5 241.5c-11.7 0-21.3 9.5-21.3 21.3 0 .7 4.1-17.2 20.7-17.2s21.8 18 21.8 17.2c0-11.8-9.5-21.3-21.2-21.3z" fill="#BFBFBA"/><path fill="#C1C1C1" d="M427.9 236.9c-2.7-13.7-12.9-22.9-22.9-20.6-9.9 2.3-15.8 15.2-13.1 28.8 2.7 13.7 12.9 22.9 22.9 20.6 9.9-2.2 15.8-15.1 13.1-28.8z"/><g fill="#D3D3D3"><path d="M425.8 236.7c-2.4-12.2-11.5-20.4-20.4-18.4-8.9 2-14.1 13.5-11.7 25.7 2.4 12.2 11.5 20.4 20.4 18.4 8.8-2.1 14.1-13.5 11.7-25.7z"/><path d="M423 250.2c-1.5-1.4-3.4-1-4.2.8-.8 1.8-.3 4.4 1.3 5.7 1.5 1.4 3.5-.1 4.2-.8.4-.4.2-4.3-1.3-5.7z"/><path d="M420.2 252.7c-1.5-1.4-3.4-1-4.2.8-.8 1.8-.3 4.4 1.3 5.7 1.6 1.3 3.4 1 4.2-.8.8-1.8.3-4.4-1.3-5.7z"/><path d="M417.5 254.8c-1.5-1.4-3.4-1-4.2.8-.8 1.8-.3 4.4 1.3 5.7 1.5 1.4 3.5 2.2 4.2-.8.5-2 .2-4.3-1.3-5.7z"/><path d="M413.6 255.9c-1.5-1.4-3.4-1-4.2.8-.8 1.8-.3 4.4 1.3 5.7 1.5 1.4 2.6 3.1 4.2-.8.7-1.8.2-4.4-1.3-5.7z"/><path d="M407.3 258.2c-1.9-.4-3.5.3-3.6 1.6 0 0 1.8 3.3 2.4 3.5 1.9.8 4.4-.6 4.5-1.9.1-1.3-1.4-2.7-3.3-3.2z"/><path d="M403.4 255.8c-2.1-1.4-4.1-1.6-4.4-.4 0 0 1.4 4 2 4.5 2 1.7 5.2 1.7 5.6.5.3-1.1-1.1-3.2-3.2-4.6z"/><path d="M399 251.4c-1.1-2.2-2.6-3.6-3.4-2.9-.8.6 0 4.5.4 5.2.3.6 2.6 3.6 3.4 2.9.8-.6.6-3-.4-5.2zm-4.6-20c-1-.2-1.9 3.4-2 4.2-.1 1.4.6 4.7 1.6 4.9 1 .2 1.9-1.7 2-4.2.1-2.5-.6-4.7-1.6-4.9z"/><path d="M395.2 228.1c-1-.2-1.9 1.7-2 4.2-.1 2.5.6 4.7 1.6 4.9 1 .2 1.9-1.7 2-4.2.1-2.4-.6-4.7-1.6-4.9zm1.7 15.3c-.4-2.5-1.5-4.5-2.5-4.3-1 .1-1.6 2.3-1.1 4.8.3 1.3 1.5 4.5 2.5 4.3 1-.1 1.5-2.3 1.1-4.8zm28.3-4.6c-1-.2-1.9 1.7-2 4.2-.1 2.5.6 4.7 1.6 4.9 1 .2 1.4-1.9 2-4.2.3-.8-.6-4.7-1.6-4.9z"/><path d="M424.4 243.6c-1-.2-1.9 1.7-2 4.2-.1 2.5.6 4.7 1.6 4.9 1 .2 1.9-1.7 2-4.2.1-2.4-.6-4.7-1.6-4.9zm1.5-7.8c-.7-2.4-2.3-3.9-3.2-3.4-.9.5-.9 2.8-.1 5.2.9 2.4 2.3 3.9 3.2 3.4 1-.5.4-4.3.1-5.2zm-5.9-12.6c-.3-.8-2-1.7-2.4-1.6-1 .2-.9 2.8-.1 5.2.9 2.4 2.3 3.9 3.2 3.4.8-.5.1-4.5-.7-7z"/><path d="M424.3 230.1c-.3-.9-2.3-3.9-3.2-3.4-.9.5-.9 2.8-.1 5.2.9 2.4 2.3 3.9 3.2 3.4 1-.5.5-4.4.1-5.2zm-9.8-11.4c-1.9-.4-4.7-.1-4.8 1.2-.1 1.3 1.4 2.8 3.3 3.2 1.9.4 3.5-.3 3.6-1.6.1-1.4-2.1-2.8-2.1-2.8z"/><path d="M408.9 216.9s-3 0-3.1 1.3c-.1 1.3 1.4 3.4 3.3 3.8 1.9.4 3.5-.3 3.6-1.6 0-1.3-1.9-3.1-3.8-3.5zm-8.4 5.6c-.7-1.1-3.2.3-3.8.9-1.5 1.4-2 3.7-1.3 4.7.7 1.1 2.4.7 3.8-.9 1.5-1.5 2-3.7 1.3-4.7z"/><path d="M405.4 219.2c-.5-1.2-3.2-.6-3.9-.2-1.3.7-2.5 3-2 4.2.5 1.2 2.3 1.3 3.9.2s2.5-2.9 2-4.2z"/></g><path fill="#D5D6C9" d="M424.9 236.9c-2.3-11.5-10.9-19.2-19.2-17.3-8.4 1.9-13.3 12.8-11 24.2 2.3 11.5 10.9 19.2 19.2 17.3 8.3-1.9 13.2-12.7 11-24.2z"/><path d="M405.6 219.5c-8.4 1.9-13.3 12.8-11 24.2.1.7-.4-17.5 11.4-20.2 11.8-2.7 19 14.1 18.8 13.3-2.2-11.4-10.8-19.2-19.2-17.3z" fill="#BFBFBA"/><path fill="#C1C1C1" d="M318.225 125.175c17.3 17.3 17.3 45.35 0 62.65-17.3 17.3-45.35 17.3-62.65 0-17.3-17.3-17.3-45.35 0-62.65 17.3-17.3 45.35-17.3 62.65 0"/><path d="M314.76 127.44c15.387 15.387 15.387 40.333 0 55.72s-40.333 15.387-55.72 0-15.387-40.333 0-55.72 40.333-15.387 55.72 0" fill="#D3D3D3"/><path fill="none" d="M313.204 128.996c14.527 14.527 14.527 38.081 0 52.609-14.527 14.527-38.081 14.527-52.609 0-14.527-14.528-14.527-38.081 0-52.609 14.528-14.527 38.081-14.527 52.609 0"/><path d="M286.9 118.1c-20.6 0-37.2 16.7-37.2 37.2 0 1.2 7.2-30.1 36.3-30.1 29.1 0 38.2 31.5 38.2 30.1 0-20.6-16.7-37.2-37.3-37.2z" fill="#BFBFBA"/><path fill="#C1C1C1" d="M151.3 274.582c9.334 11.442 9.334 29.994 0 41.437-9.334 11.442-24.466 11.442-33.8 0-9.333-11.443-9.333-29.995 0-41.437 9.334-11.442 24.466-11.442 33.8 0"/><g fill="#D3D3D3"><path d="M149.461 276.045c8.318 10.193 8.318 26.718 0 36.911-8.318 10.193-21.805 10.193-30.123 0-8.318-10.193-8.318-26.718 0-36.911 8.318-10.193 21.805-10.193 30.123 0"/><path d="M148.8 309.1c-1.6-1.9-4.1-2-5.6-.2s-1.4 4.9.2 6.8c1.6 1.9 4.5.8 5.6.2.6-.3 1.4-4.8-.2-6.8z"/><path d="M144.7 311.2c-1.6-1.9-4.1-2-5.6-.2s-1.4 4.9.2 6.8c1.6 1.9 4.1 2 5.6.2s1.4-4.8-.2-6.8z"/><path d="M140.7 312.9c-1.6-1.9-4.1-2-5.6-.2s-1.4 4.9.2 6.8c1.6 1.9 3.8 3.4 5.6.2 1.1-2.1 1.4-4.8-.2-6.8z"/><path d="M135.4 313.1c-1.6-1.9-4.1-2-5.6-.2s-1.4 4.9.2 6.8c1.6 1.9 2.5 4.2 5.6.2 1.4-1.8 1.4-4.8-.2-6.8z"/><path d="M126.9 314.2c-2.3-1-4.5-.6-4.9.9 0 0 1.5 4.2 2.2 4.6 2.2 1.3 5.7.4 6.2-1 .3-1.5-1.2-3.5-3.5-4.5z"/><path d="M122.5 310.4c-2.3-2.1-4.8-2.8-5.6-1.6 0 0 .7 4.9 1.4 5.6 2.1 2.4 6.2 3.3 6.9 2 .8-1.1-.4-3.9-2.7-6z"/><path d="M118 304.3c-.8-2.8-2.4-4.7-3.6-4.2-1.2.5-1.1 5.1-.8 6 .3.8 2.4 4.7 3.6 4.2 1.2-.5 1.6-3.2.8-6zm-.9-23.8c-1.2-.5-3.3 3.4-3.6 4.3-.5 1.5-.4 5.5.9 6 1.2.5 2.8-1.4 3.6-4.3.7-2.8.3-5.5-.9-6z"/><path d="M119 277c-1.2-.5-2.8 1.4-3.6 4.3-.7 2.8-.4 5.5.9 6 1.2.5 2.8-1.4 3.6-4.3.7-2.8.3-5.5-.9-6zm-3.7 12.1c-1.3-.1-2.7 2.2-2.6 5.2 0 1.5.8 5.5 2.1 5.6 1.3.1 2.4-2.2 2.6-5.2.2-3-.8-5.5-2.1-5.6zm39.2 7.7c-1.2-.5-2.8 1.4-3.6 4.3-.7 2.8-.4 5.5.9 6 1.2.5 2.2-1.8 3.6-4.3.5-.9.3-5.5-.9-6z"/><path d="M152.2 302.1c-1.2-.5-2.8 1.4-3.6 4.3-.7 2.8-.4 5.5.9 6 1.2.5 2.8-1.4 3.6-4.3.7-2.8.4-5.5-.9-6zm4-8.6c-.3-3-1.9-5-3.2-4.7-1.3.3-1.9 3-1.4 5.9.5 2.9 1.9 5 3.2 4.7 1.3-.3 1.5-4.7 1.4-5.9zm-4.5-15.7c-.1-.9-2.2-2.4-2.7-2.4-1.3-.1-1.9 3-1.4 5.9.5 2.9 1.9 5 3.2 4.7 1.3-.4 1.4-5.2.9-8.2z"/><path d="M155.6 286.7c-.2-1.1-1.9-5-3.2-4.7-1.3.3-1.9 3-1.4 5.9.5 2.9 1.9 5 3.2 4.7 1.3-.3 1.6-4.8 1.4-5.9zm-9.6-15.5c-2.3-1-5.9-1.4-6.3.1-.4 1.5 1.1 3.5 3.4 4.5s4.5.6 4.9-.9c.4-1.5-2-3.7-2-3.7z"/><path d="M139.2 267.8s-3.8-.8-4.2.7c-.4 1.5.9 4.2 3.2 5.2 2.3 1 4.5.6 4.9-.9.4-1.6-1.6-4.1-3.9-5zm-12 4.1c-.6-1.4-4.1-.4-5 0-2.2 1.2-3.4 3.7-2.8 5.1.6 1.4 2.8 1.4 5 0s3.4-3.7 2.8-5.1z"/><path d="M134.2 269.5c-.4-1.5-4-1.5-4.9-1.3-1.8.4-4 2.7-3.6 4.2.3 1.5 2.5 2.1 4.9 1.3 2.3-.8 4-2.7 3.6-4.2z"/></g><path fill="#D8D8D6" d="M148.613 277.105c7.85 9.607 7.85 25.183 0 34.79s-20.576 9.607-28.426 0c-7.85-9.607-7.85-25.183 0-34.79s20.576-9.607 28.426 0"/><path d="M134.4 269.9c-11.1 0-20.1 11-20.1 24.6 0 .8 3.9-19.9 19.6-19.9 15.7 0 20.6 20.8 20.6 19.9 0-13.5-9-24.6-20.1-24.6z" fill="#BFBFBA"/><path fill="#C1C1C1" d="M124.446 160.392c12.072-11.579 29.654-9.87 39.271 3.816s7.627 34.168-4.445 45.746c-12.072 11.579-29.655 9.87-39.271-3.816-9.617-13.687-7.627-34.168 4.445-45.746"/><g fill="#D3D3D3"><path d="M126.381 162.232c10.77-10.293 26.462-8.768 35.049 3.406 8.587 12.174 6.817 30.386-3.953 40.679-10.77 10.292-26.462 8.767-35.049-3.406-8.586-12.174-6.817-30.386 3.953-40.679"/><path d="M157.1 202.1c-1.6-2.3-4.5-2.7-6.4-.9-1.9 1.8-2.2 5.2-.5 7.5 1.6 2.3 5.2 1.4 6.4.9.7-.3 2.1-5.2.5-7.5z"/><path d="M152.1 203.9c-1.6-2.3-4.5-2.7-6.4-.9-1.9 1.8-2.2 5.2-.5 7.5 1.7 2.3 4.5 2.7 6.4.9 1.9-1.8 2.1-5.2.5-7.5z"/><path d="M147.3 205.3c-1.6-2.3-4.5-2.7-6.4-.9-1.9 1.8-2.2 5.2-.5 7.5 1.6 2.3 4.1 4.2 6.4.9 1.5-2.2 2.1-5.1.5-7.5z"/><path d="M141.1 205c-1.6-2.3-4.5-2.7-6.4-.9-1.9 1.8-2.2 5.2-.5 7.5 1.6 2.3 2.4 4.9 6.4.9 1.8-1.9 2.1-5.2.5-7.5z"/><path d="M131.1 205.2c-2.6-1.3-5.2-1.2-5.8.4 0 0 1.3 4.8 2 5.3 2.4 1.7 6.6 1.1 7.3-.5.6-1.5-.9-3.8-3.5-5.2z"/><path d="M126.4 200.5c-2.4-2.6-5.3-3.7-6.3-2.4 0 0 .3 5.5 1 6.4 2.2 2.9 6.8 4.3 7.8 3 1.1-1.2-.1-4.4-2.5-7z"/><path d="M121.8 193.2c-.6-3.2-2.3-5.5-3.8-5-1.5.4-1.8 5.5-1.5 6.6.2.9 2.3 5.5 3.8 5 1.4-.4 2.1-3.4 1.5-6.6zm1.5-26.4c-1.4-.7-4.2 3.4-4.6 4.3-.7 1.6-1 6.1.4 6.7 1.4.7 3.4-1.3 4.6-4.3 1.2-3 1-6-.4-6.7z"/><path d="M125.9 163.2c-1.4-.7-3.4 1.3-4.6 4.3-1.2 3-1 6.1.4 6.7 1.4.7 3.4-1.3 4.6-4.3 1.1-3 1-6-.4-6.7zm-5.6 13c-1.5-.3-3.4 2.2-3.6 5.5-.1 1.7.3 6.1 1.8 6.4 1.5.3 3.1-2.2 3.6-5.5s-.3-6.2-1.8-6.4zm44.8 12.9c-1.4-.7-3.4 1.3-4.6 4.3-1.2 3.1-1 6.1.4 6.7 1.4.7 2.8-1.7 4.6-4.3.6-1 1-6.1-.4-6.7z"/><path d="M161.9 194.7c-1.4-.7-3.4 1.3-4.6 4.3-1.2 3-1 6.1.4 6.7 1.4.7 3.4-1.3 4.6-4.3 1.1-3.1.9-6.1-.4-6.7zm2.3-14.6c-1.5.2-2.5 3-2.2 6.3.3 3.3 1.7 5.8 3.2 5.5 1.5-.2 2.2-5 2.2-6.3-.1-3.2-1.7-5.7-3.2-5.5zm-.3-12.4c-.1-1-2.3-2.9-2.9-3-1.5-.2-2.5 3-2.2 6.3.3 3.3 1.7 5.8 3.2 5.5 1.5-.1 2.1-5.3 1.9-8.8z"/><path d="M167.4 178.1c-.1-1.2-1.7-5.8-3.2-5.5-1.5.2-2.5 3-2.2 6.3.3 3.3 1.7 5.8 3.2 5.5 1.5-.2 2.3-5.2 2.2-6.3zm-9.5-18.2c-2.6-1.3-6.7-2.2-7.4-.6-.7 1.6.9 4 3.5 5.3 2.6 1.3 5.2 1.1 5.8-.4.6-1.6-1.9-4.3-1.9-4.3z"/><path d="M150.4 155.3s-4.4-1.3-5 .3c-.7 1.6.6 4.8 3.2 6.1 2.6 1.3 5.2 1.1 5.8-.4.7-1.7-1.4-4.7-4-6zm-14.4 3.2c-.6-1.6-4.8-.9-5.8-.5-2.7 1.1-4.3 3.7-3.8 5.3.6 1.6 3.2 1.8 5.8.5 2.7-1.3 4.4-3.7 3.8-5.3z"/><path d="M138.9 154.7c-2.1.3-4.9 2.5-4.6 4.2.2 1.7 2.7 2.6 5.5 2 2.8-.6 4.9-2.5 4.7-4.2-.3-1.7-4.5-2.1-5.6-2z"/></g><path fill="#CCCCC2" d="M127.258 163.453c10.165-9.723 24.975-8.284 33.078 3.215 8.103 11.499 6.43 28.703-3.735 38.426-10.165 9.724-24.975 8.285-33.078-3.214-8.103-11.5-6.43-28.703 3.735-38.427"/><path d="M144.6 157.1c-12.9-1.3-24.6 9.9-26 24.9-.1.9 6.7-21.6 24.9-19.8 18.2 1.8 21.7 25.4 21.8 24.3 1.5-14.9-7.8-28.1-20.7-29.4z" fill="#BFBFBA"/></svg>