<svg viewBox="0 0 512 512" xmlns="http://www.w3.org/2000/svg"><path d="M256 7.9C119 7.9 7.9 119 7.9 256S119 504.1 256 504.1 504.1 393 504.1 256 393 7.9 256 7.9z" fill="#334D5C"/><path fill="#F2C900" d="M342.126 169.874c47.566 47.566 47.566 124.685 0 172.251s-124.685 47.566-172.251 0-47.566-124.685 0-172.251 124.685-47.566 172.251 0"/><g fill="#F9D56E"><path d="M342.1 169.9c-47.6-47.6-124.6-47.6-172.2 0-47.6 47.6-47.6 124.6 0 172.2 47.6 47.6 219.8-124.7 172.2-172.2z"/><path d="M255.9 96.6l-22.2 35.9c7.2-1.3 14.7-2.1 22.4-2.1 7.5 0 14.9.7 22 2l-22.2-35.8z"/></g><path fill="#F2C900" d="M256 381.6c-7.6 0-15.1-.7-22.4-2.1l22.2 35.9 22.2-35.8c-7.1 1.3-14.5 2-22 2zm159.2-125.5l-35.9-22.2c1.3 7.2 2.1 14.7 2.1 22.4 0 7.5-.7 14.9-2 22l35.8-22.2z"/><path fill="#F9D56E" d="M132.3 233.9l-35.9 22.2 35.8 22.2c-1.3-7.1-2-14.5-2-22 .1-7.7.8-15.2 2.1-22.4z"/><g fill="#F9D56E"><path d="M327.5 153c6.1 4.2 11.9 9 17.3 14.4 5.3 5.3 10 11 14.2 17l9.7-41-41.2 9.6zM167.2 344.9c-5.4-5.4-10.2-11.2-14.4-17.3l-9.7 41.1 41-9.7c-5.9-4-11.6-8.7-16.9-14.1z"/></g><path fill="#F2C900" d="M358.9 327.7c-4.2 6.1-9 11.9-14.4 17.3-5.3 5.3-11 10-17 14.2l41 9.7-9.6-41.2z"/><g fill="#F9D56E"><path d="M143.1 143.3l9.7 41c4.1-6 8.8-11.7 14.2-17 5.4-5.4 11.2-10.2 17.3-14.4l-41.2-9.6zm174.1-34.4l-34.3 24.6c7.2 1.5 14.4 3.8 21.4 6.7 6.9 2.9 13.5 6.4 19.6 10.3l-6.7-41.6z"/></g><path fill="#FFC217" d="M207.7 372c-7-2.9-13.7-6.5-19.8-10.5l6.7 41.7 34.2-24.6c-7.1-1.5-14.1-3.7-21.1-6.6z"/><path d="M378.4 283c-1.5 7.2-3.8 14.4-6.7 21.4-2.9 6.9-6.4 13.5-10.3 19.6l41.6-6.7-24.6-34.3z" fill="#F2C900"/><path fill="#F9D56E" d="M108.7 194.8l24.6 34.2c1.5-7.1 3.7-14.2 6.6-21.1 2.9-7 6.5-13.7 10.5-19.8l-41.7 6.7z"/><path d="M361.6 188.5c4 6.2 7.5 12.8 10.4 19.9 2.9 7 5 14 6.5 21.1l24.7-34.1-41.6-6.9z" fill="#FFC217"/><path fill="#F9D56E" d="M139.8 304c-2.9-7.1-5.1-14.2-6.6-21.4l-24.7 34.2 41.6 6.8c-4-6.1-7.4-12.6-10.3-19.6z"/><path d="M303.5 372.2c-7 2.9-14 5-21.1 6.5l34.1 24.7 6.9-41.6c-6.2 4-12.8 7.5-19.9 10.4z" fill="#F2C900"/><path fill="#F9D56E" d="M195.1 108.7l-6.8 41.6c6.1-3.9 12.6-7.4 19.6-10.2 7.1-2.9 14.2-5.1 21.4-6.6l-34.2-24.8z"/></svg>