<?xml version="1.0" standalone="no"?>
<!DOCTYPE svg PUBLIC "-//W3C//DTD SVG 20010904//EN"
 "http://www.w3.org/TR/2001/REC-SVG-20010904/DTD/svg10.dtd">
<svg version="1.0" xmlns="http://www.w3.org/2000/svg"
 width="512.000000pt" height="512.000000pt" viewBox="0 0 512.000000 512.000000"
 preserveAspectRatio="xMidYMid meet">
<metadata>
Created by potrace 1.11, written by Peter Selinger 2001-2013
</metadata>
<g transform="translate(0.000000,512.000000) scale(0.100000,-0.100000)"
fill="#000000" stroke="none">
<path d="M0 2560 l0 -2560 2560 0 2560 0 0 2560 0 2560 -2560 0 -2560 0 0
-2560z m3009 2175 c162 -31 436 -140 575 -229 105 -67 186 -155 186 -201 0 -9
-42 -60 -92 -113 -75 -79 -97 -109 -115 -157 -12 -33 -114 -301 -228 -595
-114 -294 -231 -598 -260 -675 -29 -77 -85 -221 -123 -320 -38 -99 -151 -394
-251 -655 -100 -261 -198 -513 -216 -560 -19 -47 -75 -193 -126 -325 -96 -251
-134 -322 -203 -381 -60 -51 -171 -103 -250 -116 -186 -31 -393 68 -489 234
-44 76 -70 190 -62 273 8 87 13 101 197 578 83 216 183 478 223 582 40 105
191 496 335 870 144 374 286 743 315 820 30 77 86 223 125 325 154 398 143
359 136 496 -6 128 -2 140 44 157 31 11 201 6 279 -8z"/>
<path d="M2913 4639 c-139 -40 184 -246 470 -299 105 -19 176 -6 177 34 0 5
-21 30 -47 55 -125 120 -481 244 -600 210z"/>
<path d="M2990 3079 c-154 -146 -254 -198 -461 -244 -59 -13 -123 -31 -142
-39 -82 -34 -237 -160 -281 -228 -8 -13 -62 -149 -121 -303 -59 -154 -124
-325 -146 -380 -60 -156 -241 -625 -300 -780 -48 -127 -53 -148 -54 -220 0
-71 4 -89 33 -148 75 -152 228 -230 385 -197 70 14 168 78 208 135 16 22 110
251 209 510 100 259 194 504 210 545 27 68 157 408 280 730 27 69 87 226 135
350 122 316 135 350 132 350 -1 0 -40 -37 -87 -81z m-696 -565 c7 -18 -10 -44
-29 -44 -18 0 -48 37 -40 49 10 17 62 13 69 -5z m254 -247 c6 -5 12 -22 12
-38 0 -50 -67 -67 -95 -25 -13 19 -14 29 -6 45 21 38 54 45 89 18z m-347 -286
c29 -29 33 -42 29 -91 -7 -96 -148 -116 -185 -26 -22 53 -18 75 19 112 45 45
95 47 137 5z m-197 -243 c31 -44 -20 -94 -69 -68 -32 17 -40 45 -22 74 12 18
22 22 46 18 18 -2 38 -13 45 -24z m206 -423 c18 -22 8 -50 -19 -50 -32 0 -49
28 -32 49 17 20 35 20 51 1z"/>
</g>
</svg>
